<svg xmlns="http://www.w3.org/2000/svg" width="9.414" height="9.402" viewBox="0 0 9.414 9.402">
  <g id="Group_100674" data-name="Group 100674" transform="translate(0.133 0.1)">
    <g id="Group_100677" data-name="Group 100677">
      <path id="Path_58839" data-name="Path 58839" d="M4.3,0h.574a.49.49,0,0,0,.069.015,4.49,4.49,0,0,1,.707.109A4.6,4.6,0,0,1,9.111,3.808c.028.168.047.337.07.506v.575a.476.476,0,0,0-.015.069A4.578,4.578,0,0,1,5.389,9.131c-.17.028-.342.047-.513.071H4.3a.142.142,0,0,0-.078-.016A4.418,4.418,0,0,1,2.8,8.841,4.6,4.6,0,0,1,3.788.071C3.959.043,4.13.023,4.3,0m4.3,4.6A4.018,4.018,0,1,0,4.584,8.627,4.028,4.028,0,0,0,8.606,4.6" transform="translate(0)" fill="#9dadbd" stroke="#9dadbd" stroke-width="0.2"/>
      <path id="Path_58840" data-name="Path 58840" d="M127.933,98.888h-1.254a1.139,1.139,0,0,1,.426.775h.828v.38h-.821c-.076.775-.692,1.269-1.664,1.3.593.616,1.239,1.391,1.877,2.173h-.73c-.593-.714-1.147-1.375-1.862-2.135v-.471h.418c.821,0,1.261-.342,1.315-.866h-1.733v-.38h1.71c-.106-.441-.509-.661-1.17-.661h-.54v-.494h3.2Z" transform="translate(-121.745 -96.147)" fill="#9dadbd" stroke="#9dadbd" stroke-width="0.2"/>
    </g>
  </g>
</svg>
