<svg xmlns="http://www.w3.org/2000/svg" width="36.309" height="35.175" viewBox="0 0 36.309 35.175">
  <g id="Layer_x0020_1" transform="translate(0 0)">
    <g id="_154337608" transform="translate(0 0)">
      <path id="Path_842" data-name="Path 842" d="M72.148,297H71v8.834H92.026c-.088-.707-.088-8.481,0-8.834H72.148Z" transform="translate(-64.639 -270.673)" fill="#e64c3c" fill-rule="evenodd"/>
      <path id="Path_843" data-name="Path 843" d="M99,206.746h21.2L120.114,198H99Z" transform="translate(-90.166 -180.419)" fill="#7d6599" fill-rule="evenodd"/>
      <path id="Path_844" data-name="Path 844" d="M57.387,105.779c.088-.442.088-5.742,0-6.184-.177-.088-20.673,0-23.853,0-1.237,0-2.562-.088-3.445.53a3.137,3.137,0,0,0,.088,5.212,6.332,6.332,0,0,0,3.445.53c3.18,0,23.588.088,23.853-.088Z" transform="translate(-26.114 -90.672)" fill="#f5eec8" fill-rule="evenodd"/>
      <path id="Path_845" data-name="Path 845" d="M4.771,71.088A5.536,5.536,0,0,0,0,76.654v.088a5.558,5.558,0,0,0,3.71,5.212l1.06.265h26.68c.353-.265.972-.442.883-1.414-.088-.883-.883-.972-1.237-1.148-.265.088-20.673.088-23.853.088-1.325,0-2.385.177-3.445-.53A3.136,3.136,0,0,1,3.71,74c.883-.618,2.209-.53,3.445-.53,3.18,0,23.676-.088,23.853,0a1.57,1.57,0,0,0,.883-.353,1.924,1.924,0,0,0,.442-.707A1.24,1.24,0,0,0,31.451,71H4.682Z" transform="translate(0.088 -64.639)" fill="#f19c1f" fill-rule="evenodd"/>
      <path id="Path_846" data-name="Path 846" d="M3.859,7.272h.177V1H6.509V7.272H25.238V1H1.915C-.382,1-.912,1-1,2.5V6.124A1.125,1.125,0,0,0-.558,7.1c.8.707,3.357,0,4.417.353Z" transform="translate(1 -0.823)" fill="#3b97d3" fill-rule="evenodd"/>
      <path id="Path_847" data-name="Path 847" d="M134.42,225.543c-.353.088-.442.177-.442.707v1.237c0,2.3-.265,1.767,5.212,1.767,1.06,0,9.011.088,9.364-.088.53-.177.353-1.325.353-1.944,0-2.3.177-1.767-5.212-1.767-1.237,0-8.746-.088-9.276,0Z" transform="translate(-122.052 -205.4)" fill="#9ec7d3" fill-rule="evenodd"/>
      <path id="Path_848" data-name="Path 848" d="M353,207.658h1.678c2.474,0,3.18.177,3.357-1.237V200.59c0-.883-.177-1.59-1.414-1.59h-3.534v8.746Z" transform="translate(-321.726 -181.331)" fill="#7d6599" fill-rule="evenodd"/>
      <path id="Path_849" data-name="Path 849" d="M28.649,206.716H32.89V197.97h-2.65c-1.148,0-1.767-.088-2.209.707a9.528,9.528,0,0,0-.177,2.827v3C27.854,206.274,27.854,206.009,28.649,206.716Z" transform="translate(-25.292 -180.389)" fill="#7d6599" fill-rule="evenodd"/>
      <path id="Path_850" data-name="Path 850" d="M7.272,304.834V296c-.265.265-.088,1.678-.088,2.209v6.626H4.71v-8.746H4.269c-1.237,0-3.18-.353-3.269,1.237v6.449c.088.707.442,1.148,1.679,1.148H7.361Z" transform="translate(-0.823 -269.762)" fill="#e64c3c" fill-rule="evenodd"/>
      <path id="Path_851" data-name="Path 851" d="M131.523,325.386a11.3,11.3,0,0,0-3.092.618c-3.18,1.325.265,3.357,5.742,3a11.3,11.3,0,0,0,3.092-.618c3.18-1.325-.353-3.445-5.654-3Z" transform="translate(-115.886 -296.498)" fill="#f5eec8" fill-rule="evenodd"/>
      <path id="Path_852" data-name="Path 852" d="M339,297c.088,1.325,0,3,0,4.417,0,.972.088,3.622,0,4.417a11.21,11.21,0,0,0,3.092-.177c.883-.53.618-1.414.618-2.65,0-.618.088-4.506,0-4.947a2.939,2.939,0,0,0-.265-.53l-.53-.353H339Z" transform="translate(-308.963 -270.673)" fill="#e64c3c" fill-rule="evenodd"/>
      <path id="Path_853" data-name="Path 853" d="M324,5.361h2.915c.442-.177.972.088,1.414-.177a1.539,1.539,0,0,0,.707-1.06c.088-.972,0-2.3,0-3.357,0-.707,0-.972-.353-1.325A1.435,1.435,0,0,0,327.445-1H324V5.361Z" transform="translate(-295.288 1)" fill="#3b97d3" fill-rule="evenodd"/>
      <path id="Path_854" data-name="Path 854" d="M309.316,304.834h2.474a36.78,36.78,0,0,0,0-4.417c0-1.413.088-3,0-4.417h-2.474C309.228,296.353,309.228,304.128,309.316,304.834Z" transform="translate(-281.841 -269.762)" fill="#ed7b2b" fill-rule="evenodd"/>
      <path id="Path_855" data-name="Path 855" d="M42.827,296.088h-2.65v8.746H42.65v-6.626A8.875,8.875,0,0,1,42.739,296Z" transform="translate(-36.378 -269.762)" fill="#f19c1f" fill-rule="evenodd"/>
      <path id="Path_856" data-name="Path 856" d="M311,306.569h2.385V298H311Z" transform="translate(-283.436 -271.585)" fill="#f19c1f" fill-rule="evenodd"/>
      <path id="Path_857" data-name="Path 857" d="M56,7.272l2.562-.088V1H56Z" transform="translate(-50.964 -0.823)" fill="#67b9cc" fill-rule="evenodd"/>
      <path id="Path_858" data-name="Path 858" d="M296,6.272h2.474V0h-2.385Z" transform="translate(-269.762 0.088)" fill="#67b9cc" fill-rule="evenodd"/>
      <path id="Path_859" data-name="Path 859" d="M84.088,206.746h1.237V198H84.088Z" transform="translate(-76.491 -180.419)" fill="#b49aca" fill-rule="evenodd"/>
      <path id="Path_860" data-name="Path 860" d="M338.088,206.746h1.237V198H338Z" transform="translate(-308.051 -180.419)" fill="#b49aca" fill-rule="evenodd"/>
    </g>
  </g>
</svg>
