<svg xmlns="http://www.w3.org/2000/svg" width="38.098" height="28.309" viewBox="0 0 38.098 28.309">
  <g id="Layer_x0020_1" transform="translate(0)">
    <g id="_153441664" transform="translate(0)">
      <path id="Path_891" data-name="Path 891" d="M23.19,31.947c.057-.117.021-12.7.021-14.243a15.458,15.458,0,0,1,.033-2,13.827,13.827,0,0,1,2.035.033l-.008-.052c-.1-.08-4.625-.029-5.165-.029-.847,0-1.761-.033-2.6,0-.136.006-.37.086-.414.249-.036.138.015,1.8-.013,1.948-.011.059.027-.019-.044.056l-.082.057a.279.279,0,0,1-.249-.033l-.2-.209a10.18,10.18,0,0,0-.764-.73,1.731,1.731,0,0,1-.14-.123c-.479-.51-1.228-1.232-1.759-1.755l-.023-.023-.011-.011L13.2,14.55c-.1-.1-.14-.163-.236-.247-.057-.052-.1-.059-.144-.119a9.192,9.192,0,0,0-.753-.745c-.038-.033-.105-.08-.13-.107-.056-.059-.048-.086-.121-.146-.4-.326-.042-.563.146-.738.414-.383.851-.851,1.259-1.22.171-.155.337-.318.5-.483.092-.092.172-.159.259-.247l.5-.487c.209-.17.736-.72.912-.916l.021-.027a.213.213,0,0,1,.063-.052L15.514,9l.013-.011c.019-.015.019-.017.038-.034l.121-.144L15.7,8.8l.027-.019c.236-.174.193-.211.262-.268.222-.184.057-.075.176-.184.036-.034.021-.017.069-.05a3.13,3.13,0,0,0,.266-.239c.109-.09.157-.163.268-.239.146-.1.282.077.284.082a10.874,10.874,0,0,1,.029,1.45c0,.958-.107.772,2.23.772l4.981,0a6.43,6.43,0,0,0,.944-.057c-.326-.033-.812.006-1.161.008-.969,0-.868.077-.864-.266V5.24a2.531,2.531,0,0,0-.1-1.038.771.771,0,0,0-.117-.17l-.3-.251c-.169-.109-.115-.011-.174-.128H13.5c-.023,1.148,0,2.416,0,3.584,0,.483.042.9-.395,1.084a.55.55,0,0,1-.245.069c-.192.01-.408,0-.6,0L9.9,8.376c-.3,0-.883.057-.962-.247-.1-.2-.123-.117-.126-.437l0-4.042c-3.6,0-7.255.025-10.849,0a.476.476,0,0,0-.236.029l-.017.008-.479.291-.011.011-.092.126a1.064,1.064,0,0,0-.09.174L-3,4.483v.368c.025,6.7,0,13.42,0,20.115v5.895a2.817,2.817,0,0,0,.013.3c0,.008.011.027.013.034l.056.136a1.537,1.537,0,0,0,.1.161.734.734,0,0,0,.123.142l.3.209c.067.034.013.01.09.031a.379.379,0,0,1,.107.038,1.485,1.485,0,0,0,.5.033H23.184Z" transform="translate(3 -3.643)" fill="#ffcf63" fill-rule="evenodd"/>
      <path id="Path_892" data-name="Path 892" d="M7647.781,2162.133a8.185,8.185,0,0,1,.843.006c.106.014.266.039.393.042a3.136,3.136,0,0,1,.782.2l.2.088c.057.025.088.042.145.073s.084.044.14.076l.493.349a2.771,2.771,0,0,1,.295.286l.061.06a.062.062,0,0,0,.01.012,4.115,4.115,0,0,1,.45.634,4.722,4.722,0,0,1,.278.7,3.73,3.73,0,0,1,.1,1.339,1.647,1.647,0,0,1-.048.169c-.015.064-.011.117-.026.191-.018.1-.02.033-.051.14-.027.088,0,.063-.045.172,0,.006-.021.039-.031.065-.014.042-.01.052-.026.093l-1,1.359a3.185,3.185,0,0,1-.517.348l-.213.1c-.058.027-.016.013-.08.042l-.482.165a.453.453,0,0,0-.172.045c.08.182.012,4.573.025,5.221.153.019.1-.011.206-.048a11.851,11.851,0,0,0,1.237-.5l.171-.092c.066-.032.089-.044.16-.084.36-.2.7-.448,1.048-.683a4.818,4.818,0,0,0,.732-.639l.173-.189c.123-.138.273-.246.484-.5.078-.1.145-.178.228-.277l.311-.437c.033-.053.057-.1.092-.151l.394-.611c.061-.1.107-.213.165-.318l.158-.347c.023-.044.077-.111.092-.144l.056-.142a2.907,2.907,0,0,0,.141-.36l.121-.413a.359.359,0,0,1,.03-.115c.112-.247.162-.689.234-.843a.568.568,0,0,0,.034-.245,4.387,4.387,0,0,1,.036-.455,8.112,8.112,0,0,0,.012-1.892c-.023-.153-.037-.326-.047-.468-.011-.164-.057-.268-.075-.431l-.1-.4a.4.4,0,0,1-.046-.207c-.009-.1-.029-.081-.062-.169l-.308-.82a2.051,2.051,0,0,0-.285-.55c-.06-.117-.1-.213-.17-.337-.1-.174-.575-.991-.67-1.09-.014-.016-.015-.012-.038-.033l-.014-.011s-.007-.01-.012-.013l-1-1.09a2.322,2.322,0,0,1-.271-.229,2.215,2.215,0,0,0-.268-.24c-.09-.071-.188-.149-.273-.209l-.162-.128-.012-.011-.039-.031c-.011-.007-.061-.032-.078-.042a11.524,11.524,0,0,0-1.085-.639c-.124-.037-.062-.023-.163-.084l-.062-.033a7.063,7.063,0,0,0-.716-.4c-.2-.032-.062-.035-.176-.067-.075-.021-.148-.009-.235-.039-.069-.023-.1-.034-.182-.057-.1-.029-.372.013-.473-.025a4.178,4.178,0,0,0-.431-.077,3.235,3.235,0,0,1-.371-.062l.016-.133-.066-.007a6.435,6.435,0,0,1-.945.057l-4.981,0c-2.337,0-2.229.187-2.229-.772a11.176,11.176,0,0,0-.027-1.45c-.006,0-.141-.182-.283-.083a3.579,3.579,0,0,0-.271.24,2.612,2.612,0,0,1-.266.239.286.286,0,0,0-.068.049c-.121.11.045,0-.177.184-.068.058-.027.094-.263.269l-.026.02-.012.011-.122.144c-.019.017-.019.019-.036.035l-.016.012-.026.019a.23.23,0,0,0-.064.052l-.021.026c-.179.2-.705.748-.911.916l-.5.486c-.086.088-.166.155-.258.247-.167.165-.332.328-.5.483-.408.37-.844.835-1.259,1.22-.187.174-.548.413-.145.738.075.06.064.088.12.146.024.027.091.073.131.107a9.329,9.329,0,0,1,.753.746c.047.06.084.067.143.119.094.084.141.149.236.248l.606.526a.033.033,0,0,0,.011.011l.023.023c.529.523,1.279,1.246,1.758,1.755.034.038.1.086.141.122a10.269,10.269,0,0,1,.764.73l.2.209a.272.272,0,0,0,.248.033l.083-.058c.069-.075.032,0,.044-.055.029-.147-.021-1.811.014-1.949.044-.163.275-.243.414-.249.838-.032,1.754,0,2.6,0,.54,0,5.066-.051,5.165.029Z" transform="translate(-7619.513 -2150.094)" fill="#94d6a4" fill-rule="evenodd"/>
      <path id="Path_893" data-name="Path 893" d="M14730.979,3352.626a1.358,1.358,0,0,1-.361.023c-.15,0-.2.027-.357.024-.26,0-.518,0-.775,0-.039.146-.049.02-.049.313v5.054c0,.182-.014.182.049.312.127-.057,2.83-.241,3.7-.511.113-.046.242-.065.359-.123l.889-.408.02-.007,1.668-1.121.463-.425a.156.156,0,0,0,.039-.035l1.434-1.839s.008-.009.01-.013l.049-.092c.037-.071.07-.115.107-.184.127-.265.26-.529.387-.793a8.994,8.994,0,0,0-1.309-9.167l-.932-.995a.342.342,0,0,0-.039-.035c-.375-.3-.754-.621-1.158-.883a9.927,9.927,0,0,0-5.662-1.48l-.016.132c.117.042.258.032.367.063a4.1,4.1,0,0,1,.434.077c.1.038.281.075.375.1l.182.057c.088.029.164.016.234.039a8.191,8.191,0,0,1,.992.383l.059.032c.1.062.039.048.164.084a11.57,11.57,0,0,1,1.086.64c.018.009.066.034.078.042l.039.031s.008.007.01.011l.16.128c.088.057.186.136.277.208a2.113,2.113,0,0,1,.268.24,2.013,2.013,0,0,0,.27.23,8.025,8.025,0,0,1,1.734,2.238c.072.124.113.218.172.337a8.567,8.567,0,0,1-.553,8.927c-.035.054-.061.1-.09.151l-.311.437c-.082.1-.148.182-.229.278-.211.257-.361.364-.484.5l-.172.189a4.644,4.644,0,0,1-.736.638c-.342.236-.684.479-1.047.684a1.46,1.46,0,0,1-.158.084l-.172.092a11.919,11.919,0,0,1-1.236.5c-.1.039-.055.067-.205.048-.016-.646.051-5.038-.025-5.22Z" transform="translate(-14701.211 -3333.826)" fill="#77c2a4" fill-rule="evenodd"/>
      <path id="Path_894" data-name="Path 894" d="M13668,6298.675c.133,0,1.156.021,1.256-.018l.135-.057a.973.973,0,0,0,.328-.2,1.112,1.112,0,0,0,.352-.582c.043-.122.031-2.6.016-2.919-.064-.132-.049-.132-.047-.313v-5.054c0-.294.01-.166.047-.312l0-6.759a13.444,13.444,0,0,0-2.035-.031,15.161,15.161,0,0,0-.031,2C13668.021,6285.976,13668.055,6298.558,13668,6298.675Z" transform="translate(-13641.807 -6270.372)" fill="#ffc250" fill-rule="evenodd"/>
      <path id="Path_895" data-name="Path 895" d="M9695.057,8782.071a1.013,1.013,0,0,0-.146-.6,1.821,1.821,0,0,0-.367-.4l-1.27-1.254a15.409,15.409,0,0,0-1.582-1.449l-.584-.191a2.975,2.975,0,0,0-.65.02l-.42.161a1.425,1.425,0,0,0-.564.422c-.266.293-.51.313-.125.678a7.776,7.776,0,0,1,.758.743.061.061,0,0,0,.01.015.077.077,0,0,0,.02.029c.045.056.2.144.4.362.352.364.838.785,1.2,1.159.059.059.135.138.193.192a.174.174,0,0,1,.016.269l-1.986,1.932c-.125.116-.262.255-.391.377-.557.537-.539.4-.117.86a1.782,1.782,0,0,0,1.7.611l.568-.205a5.725,5.725,0,0,0,.834-.733l2.191-2.111a1.163,1.163,0,0,0,.311-.876Z" transform="translate(-9670.576 -8761.345)" fill="#f9f6f4" fill-rule="evenodd"/>
      <path id="Path_896" data-name="Path 896" d="M6168.62,6H6164l0,4.1c.006.718.5.684,1.089.684l2.357.013c.193,0,.41.01.6,0a.554.554,0,0,0,.246-.069c.437-.188.395-.6.395-1.084,0-1.169-.021-2.5,0-3.644h-.069Z" transform="translate(-6152.185 -5.99)" fill="#254176" fill-rule="evenodd"/>
      <path id="Path_897" data-name="Path 897" d="M13323.711,7.148l.066.008c-.066-.18-.023-4.374-.023-5.126V1.74c0-.038,0-.109,0-.144a1.347,1.347,0,0,0-.236-.485l-.426-.3a.07.07,0,0,1-.018-.008,2.635,2.635,0,0,0-.906-.054H13321c.057.117,0,.019.172.128l.3.251a.917.917,0,0,1,.117.17,2.519,2.519,0,0,1,.1,1.038V6.891c0,.341-.105.266.863.266.348,0,.834-.038,1.162-.008Z" transform="translate(-13295.477 -0.743)" fill="#ffc250" fill-rule="evenodd"/>
      <path id="Path_898" data-name="Path 898" d="M1596.277,8803.33a.615.615,0,0,0,.793.11l.119-.117a.546.546,0,0,0-.094-.78l-.345-.354c-.082-.076-.168-.156-.243-.236l-.335-.336c-.046-.045-.086-.066-.13-.11l-.222-.235c-.329-.312-.649-.8-1.113-.648a6.254,6.254,0,0,0-.977.878l-.464.475a.074.074,0,0,1-.011.013l-.086.084c-.046.049-.082.1-.113.127l-.356.342a.514.514,0,0,0-.218.48.587.587,0,0,0,.839.451.916.916,0,0,0,.264-.194,2.76,2.76,0,0,1,.234-.226l.079-.062.011-.015.021-.025c.09-.115.245-.315.389-.347,0,.314-.023,3.562.019,3.762a.626.626,0,0,0,.216.307c.044.107-.011.045.081.1.006,0,.111.04.121.044a.617.617,0,0,0,.668-.3,3,3,0,0,0,.1-1.208c0-.854-.036-1.786,0-2.628.2.115.546.611.749.654Z" transform="translate(-1589.421 -8783.734)" fill="#254176" fill-rule="evenodd"/>
      <path id="Path_899" data-name="Path 899" d="M4681.457,8795.879a.57.57,0,0,0,.273-.545.821.821,0,0,0-.335-.515l-.64-.636c-.2-.2-.445-.475-.642-.635l-.305-.318a1.279,1.279,0,0,0-.12-.1.551.551,0,0,0-.646-.068.938.938,0,0,0-.207.174l-.244.238c-.038.037-.054.063-.088.1l-1.165,1.171c-.211.21-.322.219-.377.5-.065.334.057.462.295.632a.533.533,0,0,0,.6-.06c.156-.1.211-.215.335-.3l.316-.332c.057-.06.145-.177.242-.2.05.147.018,2.791.018,3.372a.906.906,0,0,0,.112.59.5.5,0,0,0,.469.215.53.53,0,0,0,.462-.227c.1-.021.088-.044.112-.144a1.873,1.873,0,0,0,.046-.7c0-.95-.027-2.106,0-3.014a6.681,6.681,0,0,1,.551.521l.024.024c.017.018.025.029.046.049l.022.021a.725.725,0,0,0,.593.281.314.314,0,0,0,.191-.044.248.248,0,0,0,.07-.062Z" transform="translate(-4667.978 -8776.147)" fill="#254176" fill-rule="evenodd"/>
      <path id="Path_900" data-name="Path 900" d="M2557.971,12807.151h5.678a.524.524,0,0,0,.58-.316.554.554,0,0,0-.14-.683.6.6,0,0,0-.466-.151h-5.678a.581.581,0,0,0-.466,1.01.607.607,0,0,0,.49.14Z" transform="translate(-2552.382 -12781.47)" fill="#254176" fill-rule="evenodd"/>
    </g>
  </g>
</svg>
