<svg xmlns="http://www.w3.org/2000/svg" width="31.537" height="37.943" viewBox="0 0 31.537 37.943">
  <g id="Layer_x0020_1" transform="translate(0 0)">
    <g id="_158524528" transform="translate(0 0)">
      <path id="Path_831" data-name="Path 831" d="M36.7,199.344H16.612c-1.662,0-3.474.3-4.23-.755a1.9,1.9,0,0,1,1.208-3.021c.6-.151,21.9,0,23.263,0h1.511V193H14.648a4.7,4.7,0,0,0-3.927,1.36,4.392,4.392,0,0,0-.3,5.891c1.662,2.115,3.776,1.813,6.344,1.813h21.6V199.5H36.854Z" transform="translate(-8.186 -164.136)" fill="#3c9ae1" fill-rule="evenodd"/>
      <path id="Path_832" data-name="Path 832" d="M22.625,140.063H47.7V137.5H26.1c-1.511,0-4.683.453-4.532-2.115a1.943,1.943,0,0,1,1.511-1.813c.6-.151,22.054,0,23.263,0h1.511V131H22.927c-.151,0-3.927.755-3.927,4.532a4.663,4.663,0,0,0,.3,1.662,3.675,3.675,0,0,0,1.964,2.266c.6.453,1.36.453,1.511.6Z" transform="translate(-16.315 -111.501)" fill="#ff5023" fill-rule="evenodd"/>
      <path id="Path_833" data-name="Path 833" d="M7.533,78.214H29.89V75.647H14.633c-1.057,0-9.063.151-9.668-.151a1.991,1.991,0,0,1,.151-3.776c.6-.151,21.45,0,22.658,0H29.89V69.151H18.107V70.36A4.286,4.286,0,0,1,17.2,69H15.237a10.6,10.6,0,0,1-.906,1.36V69.151H9.648c-1.662,0-4.23-.151-5.589.3-.3.151-.755.3-.906.6A4.861,4.861,0,0,0,1.34,72.776a4.645,4.645,0,0,0,3.474,5.438,17.345,17.345,0,0,0,2.87.151Z" transform="translate(-1.222 -58.867)" fill="#ff9711" fill-rule="evenodd"/>
      <path id="Path_834" data-name="Path 834" d="M31.4,12.2H36.08V9.635a39.476,39.476,0,0,1-4.23,0A2.561,2.561,0,0,1,30.944,4.8c.906-.453,2.568-.3,3.776-.3H51.639c.6,0,.755,0,1.057-.3a1.3,1.3,0,0,0-1.057-2.266H34.721c-2.115,0-3.625-.151-4.985.6a5.328,5.328,0,0,0,1.36,9.819l.3.151Z" transform="translate(-23.123 -1.918)" fill="#3c9ae1" fill-rule="evenodd"/>
      <path id="Path_835" data-name="Path 835" d="M50.87,23V21.036a17.075,17.075,0,0,1,3.927,0V23H65.975c-.151,0-.3-.151-.453-.151a2.652,2.652,0,0,1-.755-.6,2.6,2.6,0,0,1,1.511-4.381H49.51c-1.208,0-2.87-.151-3.776.3A2.611,2.611,0,0,0,46.64,23,39.5,39.5,0,0,0,50.87,23Z" transform="translate(-37.912 -15.435)" fill="#fff" fill-rule="evenodd"/>
      <path id="Path_836" data-name="Path 836" d="M58.744,151.55h-.151a1.529,1.529,0,0,1-1.057-.6,2.25,2.25,0,0,1-.6-1.359,2.091,2.091,0,0,1,1.662-1.964h.151c-1.208,0-22.658-.151-23.263,0a1.943,1.943,0,0,0-1.511,1.813C33.82,152,36.992,151.55,38.5,151.55H58.744Z" transform="translate(-29.019 -125.556)" fill="#fff" fill-rule="evenodd"/>
      <path id="Path_837" data-name="Path 837" d="M51.471,212.55l-.6-.3c-.3-.151-.3-.151-.453-.453a1.908,1.908,0,0,1,.906-3.172h.3c-1.208,0-22.507-.151-23.263,0a1.993,1.993,0,0,0-1.208,3.021c.755,1.057,2.568.755,4.23.755H51.471Z" transform="translate(-22.955 -177.342)" fill="#fff" fill-rule="evenodd"/>
      <path id="Path_838" data-name="Path 838" d="M41.58,90.55c-.3-.151-.6,0-1.208-.6a2.25,2.25,0,0,1-.6-1.36,2.049,2.049,0,0,1,1.057-1.662l.755-.3c-1.208,0-22.054-.151-22.658,0a1.991,1.991,0,0,0-.151,3.776c.755.3,8.61.151,9.668.151H41.58Z" transform="translate(-15.028 -73.771)" fill="#fff" fill-rule="evenodd"/>
      <path id="Path_839" data-name="Path 839" d="M113,55.568h11.782c.3-.151.6-.151.906-.453a.913.913,0,0,0,.453-.906c0-.755-.906-1.208-1.511-1.208H113Z" transform="translate(-96.115 -45.284)" fill="#3c9ae1" fill-rule="evenodd"/>
      <path id="Path_840" data-name="Path 840" d="M86.151,40.327V44.1a4.286,4.286,0,0,0,.906-1.36,7.567,7.567,0,0,1,1.057-1.208l.453.6c.151.151.3.453.453.6a10.6,10.6,0,0,0,.906,1.36v-5.74a17.076,17.076,0,0,0-3.927,0v1.964Z" transform="translate(-73.194 -32.762)" fill="#ff5023" fill-rule="evenodd"/>
      <path id="Path_841" data-name="Path 841" d="M94,62.208h1.964c-.151-.151-.3-.453-.453-.6l-.453-.6C94.755,61.3,94.3,61.906,94,62.208Z" transform="translate(-79.985 -52.075)" fill="#3c9ae1" fill-rule="evenodd"/>
    </g>
  </g>
</svg>
