<svg width="260" height="223" viewBox="0 0 260 223" fill="none" xmlns="http://www.w3.org/2000/svg">
<path d="M142.5 214C208.054 214 258.606 245.507 258.606 179.953C258.606 114.399 205.464 61.2571 139.91 61.2571C74.3559 61.2571 21.2139 114.399 21.2139 179.953C21.2139 245.507 76.946 214 142.5 214Z" fill="#D7262F" fill-opacity="0.03"/>
<path opacity="0.06" d="M22.471 44.942C34.8814 44.942 44.942 34.8814 44.942 22.471C44.942 10.0606 34.8814 0 22.471 0C10.0606 0 0 10.0606 0 22.471C0 34.8814 10.0606 44.942 22.471 44.942Z" fill="#88D3FF"/>
<path fill-rule="evenodd" clip-rule="evenodd" d="M77.8494 220.425C77.8494 220.425 65.2944 206.412 28.8584 210.612C28.8584 210.612 38.6684 221.473 49.1794 222.875L77.8494 220.425Z" fill="#D7262F" fill-opacity="0.08"/>
<path fill-rule="evenodd" clip-rule="evenodd" d="M99.2787 207.462C99.2787 207.462 77.2067 184.689 32.0107 177.332C32.0107 177.332 46.0247 208.844 76.6807 220.416H119.074L99.2787 207.462Z" fill="#D7262F" fill-opacity="0.08"/>
<path fill-rule="evenodd" clip-rule="evenodd" d="M128.767 220.425C128.767 220.425 96.827 162.967 55.835 148.605C55.835 148.605 67.747 200.805 114.694 221.829L128.767 220.425Z" fill="#D7262F" fill-opacity="0.08"/>
<path fill-rule="evenodd" clip-rule="evenodd" d="M80.7109 135.64C80.7109 135.64 89.4689 188.893 133.963 220.415L147.978 220.425C147.978 220.425 126.961 155.961 80.7109 135.64ZM210.749 220.44C210.749 220.44 223.303 206.427 259.74 210.63C259.74 210.63 249.93 221.491 239.419 222.893L210.749 220.44Z" fill="#D7262F" fill-opacity="0.08"/>
<path fill-rule="evenodd" clip-rule="evenodd" d="M189.319 207.472C189.319 207.472 211.392 184.699 256.587 177.342C256.587 177.342 242.572 208.854 211.917 220.426H169.524L189.324 207.472H189.319Z" fill="#D7262F" fill-opacity="0.08"/>
<path fill-rule="evenodd" clip-rule="evenodd" d="M159.832 220.435C159.832 220.435 191.772 162.977 232.764 148.613C232.764 148.613 220.852 200.813 173.905 221.837L159.832 220.435Z" fill="#D7262F" fill-opacity="0.08"/>
<path fill-rule="evenodd" clip-rule="evenodd" d="M207.888 135.65C207.888 135.65 199.129 188.903 154.634 220.425L140.62 220.435C140.62 220.435 161.641 155.97 207.888 135.65" fill="#D7262F" fill-opacity="0.08"/>
<path fill-rule="evenodd" clip-rule="evenodd" d="M246.077 111.29V127.055C246.078 127.262 246.037 127.467 245.958 127.659C245.879 127.85 245.763 128.024 245.616 128.17C245.47 128.317 245.296 128.433 245.105 128.512C244.914 128.591 244.708 128.631 244.501 128.631H218.224C218.017 128.631 217.812 128.591 217.621 128.512C217.43 128.433 217.256 128.317 217.109 128.17C216.963 128.024 216.847 127.85 216.768 127.659C216.689 127.467 216.648 127.262 216.648 127.055V111.29C216.647 111.037 216.708 110.787 216.826 110.562C216.959 110.306 217.16 110.091 217.407 109.942C217.654 109.792 217.938 109.713 218.226 109.714H244.503C244.799 109.713 245.088 109.796 245.339 109.953C245.589 110.11 245.79 110.334 245.918 110.6C246.026 110.814 246.081 111.051 246.08 111.29" fill="#4595CE"/>
<path fill-rule="evenodd" clip-rule="evenodd" d="M245.916 110.6L231.362 120.575L216.827 110.562C216.96 110.306 217.161 110.091 217.408 109.942C217.655 109.792 217.938 109.713 218.227 109.714H244.504C244.8 109.714 245.089 109.796 245.339 109.953C245.59 110.11 245.791 110.334 245.919 110.6" fill="#88D3FF"/>
<path fill-rule="evenodd" clip-rule="evenodd" d="M55.1351 111.29V127.055C55.1354 127.262 55.0947 127.467 55.0156 127.659C54.9364 127.85 54.8202 128.024 54.6737 128.17C54.5272 128.317 54.3533 128.433 54.1618 128.512C53.9704 128.591 53.7652 128.631 53.5581 128.631H27.2821C27.075 128.631 26.8699 128.591 26.6785 128.511C26.4871 128.432 26.3132 128.316 26.1668 128.17C26.0203 128.024 25.9041 127.85 25.8249 127.658C25.7457 127.467 25.705 127.262 25.7051 127.055V111.29C25.704 111.036 25.7658 110.786 25.8851 110.562C26.018 110.306 26.219 110.091 26.4659 109.941C26.7129 109.792 26.9963 109.713 27.2851 109.714H53.5591C53.8545 109.713 54.1441 109.796 54.3945 109.953C54.6449 110.109 54.8458 110.334 54.9741 110.6C55.0814 110.814 55.1368 111.05 55.1361 111.29" fill="#4595CE"/>
<path fill-rule="evenodd" clip-rule="evenodd" d="M54.9698 110.6L40.4198 120.574L25.8838 110.562C26.0167 110.306 26.2176 110.091 26.4646 109.941C26.7116 109.792 26.995 109.713 27.2838 109.714H53.5588C53.8542 109.713 54.1438 109.796 54.3942 109.953C54.6446 110.109 54.8455 110.334 54.9738 110.6" fill="#88D3FF"/>
<path fill-rule="evenodd" clip-rule="evenodd" d="M15.2049 74.4129L11.4719 72.3389C11.4114 72.3051 11.3419 72.291 11.2731 72.2985C11.2042 72.3059 11.1394 72.3346 11.0876 72.3805C11.0357 72.4264 10.9995 72.4873 10.9837 72.5547C10.968 72.6221 10.9737 72.6928 10.9999 72.7569L12.6689 76.8389C12.6945 76.9014 12.7006 76.9703 12.6863 77.0363C12.672 77.1024 12.6381 77.1626 12.5889 77.2089L7.86885 81.6749C7.828 81.7136 7.77803 81.7414 7.72358 81.7556C7.66914 81.7698 7.61197 81.7701 7.5574 81.7563C7.50283 81.7426 7.45263 81.7152 7.41145 81.6769C7.37027 81.6385 7.33945 81.5904 7.32185 81.5369L0.0418524 59.3619C0.0204523 59.2983 0.0187075 59.2297 0.0368452 59.1651C0.054983 59.1005 0.0921622 59.0429 0.143538 58.9997C0.194913 58.9565 0.258102 58.9298 0.324869 58.9231C0.391636 58.9163 0.458885 58.9299 0.517852 58.9619L20.0449 69.5489C20.0914 69.5741 20.1312 69.6099 20.1612 69.6535C20.1911 69.697 20.2103 69.7471 20.2171 69.7995C20.224 69.8519 20.2183 69.9052 20.2005 69.955C20.1827 70.0048 20.1534 70.0497 20.1149 70.0859L15.5969 74.3579C15.5454 74.407 15.4796 74.4383 15.4091 74.4473C15.3385 74.4563 15.267 74.4425 15.2049 74.4079M223.23 85.7909L227.175 87.4289C227.239 87.4554 227.309 87.4615 227.377 87.4462C227.444 87.4309 227.505 87.395 227.552 87.3436C227.598 87.2921 227.627 87.2275 227.635 87.1588C227.643 87.0901 227.629 87.0206 227.596 86.9599L225.475 83.0929C225.442 83.0339 225.428 82.9663 225.435 82.8991C225.441 82.8319 225.468 82.7684 225.512 82.7169L229.696 77.7439C229.732 77.7008 229.779 77.6676 229.831 77.6473C229.883 77.627 229.94 77.6203 229.996 77.6277C230.052 77.6352 230.105 77.6567 230.15 77.6901C230.195 77.7235 230.231 77.7678 230.255 77.8189L240.002 99.0249C240.03 99.0857 240.039 99.1535 240.028 99.2195C240.017 99.2856 239.986 99.3467 239.94 99.3951C239.894 99.4435 239.834 99.4769 239.768 99.4909C239.703 99.505 239.635 99.4991 239.573 99.4739L218.973 91.1649C218.924 91.1453 218.88 91.1144 218.845 91.0746C218.81 91.0348 218.786 90.9874 218.773 90.9361C218.76 90.8849 218.759 90.8313 218.771 90.7798C218.783 90.7283 218.807 90.6804 218.841 90.6399L222.846 85.8819C222.892 85.8279 222.953 85.7898 223.022 85.7731C223.091 85.7564 223.163 85.7619 223.229 85.7889" fill="#88D3FF"/>
<path fill-rule="evenodd" clip-rule="evenodd" d="M163.279 219.426C163.279 219.426 161.988 206.66 164.808 199.501C167.628 192.342 178.303 179.107 173.485 168.91C168.667 158.713 139.928 149.31 133.637 164.087C127.346 178.864 139.821 203.953 132.144 219.026C129.27 224.668 155.516 223.075 161.885 220.085C162.771 219.669 163.279 219.426 163.279 219.426M155.907 133.552C155.907 133.552 164.407 126.077 166.955 120.263C169.503 114.449 164.114 109.363 159.281 112.944C155.687 115.737 152.275 118.758 149.067 121.987L155.907 133.552V133.552Z" fill="#FAC4A0"/>
<path fill-rule="evenodd" clip-rule="evenodd" d="M186.618 162.79L155.671 185.747C155.265 186.048 154.804 186.266 154.314 186.389C153.823 186.511 153.314 186.536 152.814 186.462C152.314 186.387 151.834 186.215 151.401 185.956C150.968 185.696 150.59 185.353 150.289 184.947L103.289 121.588C102.988 121.182 102.77 120.721 102.647 120.231C102.525 119.741 102.5 119.231 102.574 118.731C102.648 118.231 102.82 117.751 103.08 117.318C103.34 116.885 103.683 116.507 104.089 116.206L135.036 93.2489C135.856 92.6415 136.883 92.3845 137.893 92.5345C138.902 92.6845 139.81 93.2293 140.418 94.0489L187.418 157.409C188.025 158.229 188.282 159.256 188.132 160.265C187.982 161.274 187.437 162.182 186.618 162.79" fill="#626366"/>
<path fill-rule="evenodd" clip-rule="evenodd" d="M178.68 158.311L153.685 176.853C153.358 177.096 152.985 177.272 152.59 177.372C152.194 177.471 151.782 177.491 151.379 177.431C150.975 177.371 150.587 177.233 150.237 177.023C149.887 176.813 149.582 176.537 149.339 176.209L111.378 125.036C111.135 124.708 110.959 124.336 110.86 123.94C110.761 123.544 110.74 123.132 110.8 122.729C110.86 122.325 110.999 121.937 111.209 121.587C111.419 121.237 111.695 120.932 112.023 120.689L137.017 102.147C137.679 101.656 138.509 101.448 139.324 101.569C140.139 101.69 140.872 102.129 141.363 102.791L179.324 153.964C179.815 154.626 180.023 155.455 179.902 156.27C179.781 157.085 179.342 157.819 178.68 158.31" fill="white"/>
<path fill-rule="evenodd" clip-rule="evenodd" d="M164.808 127.406C164.808 127.406 160.768 134.324 164.7 138.171C168.632 142.018 171.57 138.403 173.444 134.233C175.318 130.063 175.144 127.089 171.883 125.294C168.622 123.499 166.091 124.367 164.807 127.406" fill="#FAC4A0"/>
<path fill-rule="evenodd" clip-rule="evenodd" d="M170.418 143.634C170.418 143.634 170.074 148.693 173.461 150.102C176.848 151.511 179.78 148.017 180.361 145.988C180.942 143.959 184.804 137.665 180.807 134.651C176.81 131.637 172.233 133.004 170.414 143.635M185.444 145.135C185.444 145.135 181.895 143.258 179.329 149.181C176.763 155.104 184.243 159.681 187.337 153.237C189.444 148.852 188.854 146.827 185.444 145.137M131.844 220.092C131.844 220.092 134.744 206.367 132.808 198.399C130.872 190.431 124.752 185.162 123.408 176.746C122.064 168.33 121.072 153.775 116.756 147.958C112.44 142.141 110.585 141.753 112.588 138.11C114.591 134.467 122.267 137.561 127.459 144.51C132.651 151.459 134.034 159.184 136.541 164.319C139.048 169.454 147.699 181.249 150.518 183.688C153.337 186.127 158.057 187.507 159.839 189.91" fill="#FAC4A0"/>
<path fill-rule="evenodd" clip-rule="evenodd" d="M180.185 29.5139H206.995C207.303 29.5139 207.609 29.5747 207.893 29.6926C208.178 29.8106 208.437 29.9836 208.655 30.2016C208.873 30.4197 209.046 30.6785 209.164 30.9634C209.282 31.2483 209.343 31.5536 209.343 31.8619V50.0479C209.343 50.3563 209.282 50.6616 209.164 50.9465C209.046 51.2313 208.873 51.4902 208.655 51.7082C208.437 51.9262 208.178 52.0992 207.893 52.2172C207.609 52.3352 207.303 52.3959 206.995 52.3959H191.695L188.323 56.9119C188.27 56.9823 188.202 57.0394 188.123 57.0788C188.044 57.1181 187.957 57.1386 187.869 57.1386C187.781 57.1386 187.695 57.1181 187.616 57.0788C187.537 57.0394 187.469 56.9823 187.416 56.9119L184.044 52.3959H180.185C179.877 52.3959 179.571 52.3352 179.286 52.2172C179.002 52.0992 178.743 51.9262 178.525 51.7082C178.307 51.4902 178.134 51.2313 178.016 50.9465C177.898 50.6616 177.837 50.3563 177.837 50.0479V31.8619C177.837 31.5536 177.898 31.2483 178.016 30.9634C178.134 30.6785 178.307 30.4197 178.525 30.2016C178.743 29.9836 179.002 29.8106 179.286 29.6926C179.571 29.5747 179.877 29.5139 180.185 29.5139" fill="#4595CE"/>
<path fill-rule="evenodd" clip-rule="evenodd" d="M226.286 22.761H199.476C198.853 22.761 198.256 23.0084 197.816 23.4487C197.375 23.889 197.128 24.4863 197.128 25.109V43.295C197.128 43.9177 197.375 44.5149 197.816 44.9553C198.256 45.3956 198.853 45.643 199.476 45.643H214.776L218.148 50.159C218.201 50.2296 218.269 50.2868 218.348 50.3263C218.427 50.3658 218.513 50.3863 218.601 50.3863C218.689 50.3863 218.776 50.3658 218.855 50.3263C218.934 50.2868 219.002 50.2296 219.055 50.159L222.427 45.643H226.286C226.909 45.643 227.506 45.3956 227.946 44.9553C228.387 44.5149 228.634 43.9177 228.634 43.295V25.109C228.634 24.4863 228.387 23.889 227.946 23.4487C227.506 23.0084 226.909 22.761 226.286 22.761" fill="#88D3FF"/>
<path fill-rule="evenodd" clip-rule="evenodd" d="M146.284 146.778C146.284 146.778 145.91 145.107 147.156 144.878C148.402 144.649 151.103 147.048 150.766 148.014C150.429 148.98 147.52 149.989 146.266 149.814C144.876 149.62 138.629 146.522 137.231 143.494C135.833 140.466 137.097 137.201 138.831 137.848C140.565 138.495 142.552 140.189 142.27 140.757C141.532 141.496 140.695 142.128 139.782 142.636C139.782 142.636 142.655 146.676 146.284 146.778Z" stroke="#35867D"/>
<path d="M145.06 137.029C145.06 137.029 148.741 136.614 149.211 140.129M145.112 134.866C145.112 134.866 150.936 133.71 151.699 139.742M144.707 132.132C144.707 132.132 153.443 130.672 154.374 139.305" stroke="#35867D" stroke-width="0.818" stroke-linecap="round"/>
<path d="M128.535 102.185L120.864 108.01" stroke="white" stroke-width="0.817" stroke-linecap="round"/>
<path fill-rule="evenodd" clip-rule="evenodd" d="M19.3444 80.8931C19.2674 80.8932 19.1911 80.8782 19.1199 80.8489C19.0487 80.8195 18.984 80.7764 18.9294 80.7221C18.0494 79.8491 17.5684 79.2891 17.5484 79.2651C17.4971 79.2065 17.4579 79.1383 17.4331 79.0645C17.4082 78.9907 17.3983 78.9127 17.4038 78.835C17.4093 78.7573 17.4302 78.6815 17.4652 78.612C17.5003 78.5424 17.5487 78.4805 17.6078 78.4298C17.6669 78.3791 17.7355 78.3406 17.8096 78.3165C17.8837 78.2925 17.9618 78.2834 18.0394 78.2897C18.117 78.2961 18.1926 78.3178 18.2618 78.3535C18.331 78.3893 18.3924 78.4384 18.4424 78.4981C18.4424 78.5041 18.9164 79.0491 19.7594 79.8861C19.8427 79.9681 19.8997 80.0731 19.9231 80.1876C19.9464 80.3021 19.9351 80.421 19.8906 80.5291C19.846 80.6372 19.7703 80.7295 19.673 80.7944C19.5757 80.8592 19.4613 80.8936 19.3444 80.8931M108.179 46.5771C108.151 46.5771 108.122 46.5751 108.093 46.5711C106.856 46.3904 105.605 46.3268 104.355 46.3811C104.276 46.3876 104.197 46.3781 104.122 46.3531C104.046 46.3282 103.977 46.2883 103.918 46.2359C103.858 46.1834 103.81 46.1196 103.776 46.048C103.741 45.9765 103.722 45.8988 103.719 45.8196C103.715 45.7404 103.728 45.6613 103.756 45.5871C103.783 45.5128 103.826 45.445 103.881 45.3876C103.935 45.3303 104.001 45.2845 104.074 45.2531C104.147 45.2218 104.225 45.2054 104.304 45.2051C105.627 45.1479 106.952 45.2148 108.262 45.4051C108.409 45.4277 108.541 45.5045 108.633 45.6201C108.725 45.7358 108.77 45.8818 108.76 46.0292C108.749 46.1767 108.683 46.3148 108.576 46.4161C108.468 46.5174 108.326 46.5745 108.178 46.5761M94.0045 49.2891C93.8696 49.2896 93.7386 49.2438 93.6335 49.1593C93.5283 49.0747 93.4555 48.9566 93.4271 48.8247C93.3988 48.6928 93.4166 48.5552 93.4776 48.4349C93.5387 48.3147 93.6393 48.219 93.7625 48.1641C94.9458 47.6307 96.1458 47.1387 97.3624 46.6881C97.5056 46.6451 97.6597 46.6582 97.7934 46.7247C97.9272 46.7913 98.0306 46.9062 98.0827 47.0463C98.1348 47.1863 98.1316 47.341 98.0738 47.4787C98.016 47.6165 97.9079 47.7271 97.7715 47.7881C96.5795 48.2294 95.4035 48.7111 94.2435 49.2331C94.1672 49.2681 94.0843 49.2862 94.0005 49.2861M118.049 50.6791C117.925 50.6789 117.804 50.6393 117.703 50.5661C116.693 49.8257 115.622 49.1701 114.503 48.6061C114.431 48.5733 114.366 48.5263 114.313 48.4679C114.259 48.4095 114.218 48.3408 114.191 48.2661C114.165 48.1913 114.154 48.1119 114.159 48.0328C114.164 47.9536 114.185 47.8762 114.22 47.8053C114.256 47.7345 114.305 47.6715 114.366 47.6202C114.426 47.5689 114.496 47.5304 114.572 47.5069C114.648 47.4835 114.728 47.4755 114.807 47.4836C114.886 47.4917 114.962 47.5157 115.031 47.5541C116.209 48.1475 117.335 48.8372 118.398 49.6161C118.499 49.6891 118.574 49.7921 118.612 49.9104C118.651 50.0287 118.651 50.1561 118.612 50.2744C118.574 50.3926 118.499 50.4956 118.398 50.5685C118.297 50.6414 118.176 50.6804 118.051 50.6801M84.7205 54.7461C84.5964 54.7466 84.4754 54.708 84.3747 54.6356C84.274 54.5633 84.1987 54.4609 84.1597 54.3432C84.1206 54.2255 84.1198 54.0985 84.1573 53.9803C84.1948 53.8621 84.2687 53.7587 84.3685 53.6851C85.4111 52.9084 86.4821 52.1724 87.5815 51.4771C87.6471 51.4358 87.7203 51.4078 87.7967 51.3948C87.8732 51.3817 87.9515 51.3839 88.0271 51.4011C88.1028 51.4184 88.1743 51.4503 88.2375 51.4952C88.3008 51.54 88.3546 51.5969 88.396 51.6626C88.4373 51.7282 88.4652 51.8014 88.4782 51.8779C88.4913 51.9543 88.4891 52.0326 88.4719 52.1082C88.4547 52.1839 88.4227 52.2554 88.3779 52.3187C88.333 52.3819 88.2761 52.4358 88.2104 52.4771C87.1371 53.1557 86.0908 53.8747 85.0714 54.6341C84.9698 54.7098 84.8462 54.7505 84.7195 54.7501M125.155 58.7151C125.051 58.715 124.948 58.6872 124.858 58.6345C124.768 58.5818 124.694 58.5061 124.642 58.4151C124.022 57.3211 123.322 56.2736 122.549 55.2811C122.498 55.2205 122.46 55.1503 122.436 55.0744C122.413 54.9986 122.405 54.9188 122.413 54.8399C122.421 54.7609 122.445 54.6844 122.483 54.6149C122.522 54.5455 122.574 54.4845 122.636 54.4357C122.699 54.3868 122.771 54.3512 122.847 54.3308C122.924 54.3104 123.004 54.3058 123.083 54.3171C123.161 54.3284 123.237 54.3555 123.305 54.3968C123.372 54.438 123.431 54.4925 123.477 54.5571C124.286 55.5952 125.017 56.6907 125.666 57.8351C125.717 57.9245 125.744 58.0257 125.743 58.1287C125.743 58.2316 125.716 58.3326 125.664 58.4216C125.612 58.5106 125.538 58.5844 125.449 58.6357C125.359 58.6871 125.258 58.7141 125.155 58.7141M76.6754 61.9361C76.5596 61.9361 76.4463 61.9019 76.3498 61.8379C76.2532 61.7739 76.1777 61.6828 76.1327 61.5761C76.0876 61.4693 76.0751 61.3517 76.0966 61.2379C76.118 61.124 76.1726 61.0191 76.2534 60.9361C77.1541 60.0027 78.0754 59.0931 79.0174 58.2071C79.1326 58.1093 79.2809 58.0596 79.4316 58.068C79.5824 58.0765 79.7242 58.1426 79.8277 58.2526C79.9311 58.3626 79.9884 58.5082 79.9876 58.6592C79.9868 58.8102 79.928 58.9551 79.8234 59.0641C78.8954 59.9407 77.9871 60.8381 77.0984 61.7561C77.0437 61.8128 76.9782 61.8579 76.9057 61.8888C76.8332 61.9198 76.7553 61.9358 76.6764 61.9361M128.53 68.9031C128.388 68.903 128.25 68.8509 128.143 68.7564C128.035 68.662 127.966 68.5317 127.948 68.3901C127.786 67.1417 127.54 65.9057 127.212 64.6901C127.177 64.5411 127.201 64.3842 127.28 64.2527C127.358 64.1212 127.485 64.0254 127.633 63.9856C127.78 63.9458 127.938 63.9651 128.072 64.0395C128.206 64.1139 128.305 64.2375 128.349 64.3841C128.69 65.6516 128.946 66.9404 129.114 68.2421C129.125 68.3252 129.119 68.4096 129.094 68.4898C129.07 68.57 129.029 68.6441 128.973 68.7071C128.918 68.77 128.85 68.8205 128.774 68.855C128.697 68.8895 128.614 68.9072 128.53 68.9071M69.3924 69.9071C69.2789 69.907 69.1678 69.874 69.0725 69.8122C68.9772 69.7504 68.9018 69.6623 68.8554 69.5587C68.809 69.455 68.7936 69.3401 68.811 69.2279C68.8284 69.1157 68.8779 69.0108 68.9534 68.9261L69.5444 68.2641C70.2111 67.5127 70.8701 66.7741 71.5215 66.0481C71.6255 65.9319 71.7715 65.8618 71.9273 65.8533C72.083 65.8448 72.2358 65.8985 72.3519 66.0026C72.4681 66.1067 72.5382 66.2526 72.5467 66.4084C72.5552 66.5641 72.5015 66.7169 72.3974 66.8331C71.7474 67.5591 71.0895 68.2971 70.4235 69.0471L69.8324 69.7111C69.7773 69.7738 69.7095 69.824 69.6334 69.8585C69.5574 69.893 69.4749 69.9109 69.3914 69.9111M62.0994 77.8741C61.9833 77.8747 61.8697 77.841 61.7727 77.7772C61.6757 77.7134 61.5997 77.6223 61.5543 77.5155C61.5089 77.4086 61.496 77.2907 61.5174 77.1766C61.5388 77.0625 61.5934 76.9572 61.6744 76.8741C62.5618 75.9487 63.4398 75.0154 64.3084 74.0741C64.361 74.0173 64.4242 73.9714 64.4944 73.939C64.5647 73.9066 64.6407 73.8884 64.718 73.8854C64.7953 73.8824 64.8724 73.8946 64.945 73.9214C65.0176 73.9482 65.0842 73.989 65.1409 74.0416C65.1977 74.0941 65.2436 74.1573 65.276 74.2276C65.3084 74.2978 65.3266 74.3738 65.3296 74.4511C65.3326 74.5284 65.3204 74.6055 65.2936 74.6781C65.2668 74.7507 65.226 74.8173 65.1735 74.8741C64.3001 75.8221 63.4171 76.7614 62.5244 77.6921C62.4697 77.7497 62.4038 77.7955 62.3307 77.8268C62.2576 77.8581 62.1789 77.8742 62.0994 77.8741ZM128.013 79.6441C127.925 79.644 127.839 79.6242 127.759 79.5862C127.68 79.5481 127.61 79.4928 127.555 79.4242C127.5 79.3556 127.461 79.2755 127.44 79.1898C127.42 79.1042 127.42 79.015 127.438 78.9291C127.711 77.6955 127.911 76.447 128.038 75.1901C128.057 75.0372 128.135 74.8976 128.255 74.8012C128.375 74.7049 128.528 74.6594 128.681 74.6746C128.834 74.6897 128.976 74.7643 129.075 74.8824C129.174 75.0004 129.222 75.1525 129.21 75.3061C129.079 76.6094 128.872 77.9039 128.59 79.1831C128.562 79.314 128.489 79.4311 128.385 79.5151C128.28 79.5991 128.15 79.645 128.016 79.6451M54.3704 85.4111C54.2502 85.4114 54.1327 85.3749 54.0339 85.3065C53.935 85.238 53.8595 85.1409 53.8176 85.0283C53.7756 84.9156 53.7692 84.7927 53.7992 84.6763C53.8293 84.5599 53.8942 84.4554 53.9854 84.3771C54.2354 84.1617 54.4851 83.9384 54.7344 83.7071C55.4258 83.0691 56.1108 82.4247 56.7894 81.7741C56.8453 81.7206 56.9112 81.6786 56.9833 81.6505C57.0554 81.6225 57.1323 81.6089 57.2097 81.6105C57.287 81.6122 57.3633 81.6291 57.4341 81.6603C57.5049 81.6914 57.5689 81.7362 57.6224 81.7921C57.676 81.8479 57.7179 81.9138 57.746 81.9859C57.7741 82.058 57.7876 82.1349 57.786 82.2123C57.7843 82.2896 57.7674 82.3659 57.7363 82.4367C57.7051 82.5076 57.6603 82.5716 57.6045 82.6251C56.9205 83.2811 56.2301 83.9304 55.5335 84.5731C55.2748 84.8124 55.0151 85.0441 54.7545 85.2681C54.6478 85.3605 54.5116 85.4116 54.3704 85.4121M27.9024 87.4421C27.8011 87.4418 27.7015 87.4153 27.6134 87.3651C26.4783 86.719 25.3769 86.0154 24.3135 85.2571C24.2482 85.2132 24.1923 85.1567 24.1492 85.091C24.1061 85.0252 24.0766 84.9514 24.0624 84.874C24.0483 84.7967 24.0498 84.7173 24.0668 84.6405C24.0839 84.5637 24.1161 84.4911 24.1617 84.427C24.2072 84.3629 24.2651 84.3085 24.332 84.2672C24.3989 84.2258 24.4734 84.1982 24.5511 84.1861C24.6289 84.174 24.7082 84.1776 24.7845 84.1966C24.8608 84.2157 24.9326 84.2499 24.9954 84.2971C26.0268 85.0325 27.0949 85.715 28.1954 86.3421C28.3079 86.4065 28.396 86.5063 28.446 86.626C28.496 86.7456 28.5051 86.8784 28.472 87.0037C28.4388 87.129 28.3652 87.2399 28.2626 87.3192C28.16 87.3985 28.0341 87.4416 27.9044 87.4421M124.198 89.7141C124.097 89.7137 123.997 89.6869 123.908 89.6364C123.82 89.5859 123.746 89.5133 123.694 89.4258C123.642 89.3383 123.614 89.2388 123.612 89.137C123.61 89.0352 123.634 88.9346 123.682 88.8451C124.287 87.7304 124.84 86.5897 125.341 85.4231C125.406 85.2849 125.523 85.1774 125.665 85.1232C125.808 85.069 125.966 85.0723 126.107 85.1325C126.247 85.1927 126.358 85.305 126.417 85.4457C126.477 85.5865 126.479 85.7447 126.423 85.8871C125.908 87.0871 125.339 88.2604 124.716 89.4071C124.666 89.5004 124.591 89.5784 124.5 89.6326C124.409 89.6869 124.305 89.7154 124.198 89.7151M44.9494 90.4881C44.805 90.4893 44.6651 90.4372 44.5565 90.3418C44.448 90.2465 44.3783 90.1145 44.3609 89.971C44.3435 89.8276 44.3795 89.6828 44.462 89.5642C44.5446 89.4456 44.6679 89.3615 44.8084 89.3281C46.0214 89.027 47.2027 88.6108 48.3364 88.0851C48.4069 88.0503 48.4837 88.03 48.5621 88.0254C48.6406 88.0207 48.7192 88.0318 48.7933 88.058C48.8674 88.0842 48.9355 88.125 48.9936 88.1779C49.0517 88.2309 49.0987 88.2949 49.1316 88.3662C49.1646 88.4376 49.183 88.5148 49.1856 88.5934C49.1883 88.6719 49.1752 88.7502 49.1471 88.8237C49.1191 88.8971 49.0766 88.9641 49.0222 89.0209C48.9678 89.0776 48.9026 89.1229 48.8304 89.1541C47.6288 89.7112 46.3768 90.1525 45.0914 90.4721C45.045 90.4836 44.9973 90.4893 44.9494 90.4891M38.0554 90.9241C38.0338 90.9252 38.0121 90.9252 37.9904 90.9241C36.6794 90.7752 35.3832 90.5166 34.1154 90.1511C34.0385 90.1322 33.9662 90.098 33.9028 90.0505C33.8394 90.0031 33.7862 89.9433 33.7465 89.8748C33.7067 89.8063 33.6812 89.7305 33.6713 89.6519C33.6615 89.5734 33.6677 89.4936 33.6894 89.4174C33.7112 89.3413 33.748 89.2703 33.7978 89.2087C33.8476 89.1471 33.9093 89.0962 33.9792 89.059C34.0492 89.0218 34.1259 88.9991 34.2048 88.9923C34.2837 88.9854 34.3632 88.9945 34.4384 89.0191C35.6426 89.3671 36.8739 89.6127 38.1194 89.7531C38.2684 89.7705 38.4051 89.8441 38.5017 89.9589C38.5982 90.0736 38.6474 90.2209 38.6391 90.3706C38.6308 90.5204 38.5657 90.6613 38.4571 90.7647C38.3484 90.8681 38.2044 90.9262 38.0544 90.9271M118.779 99.0741C118.676 99.0741 118.575 99.047 118.486 98.9955C118.396 98.944 118.322 98.8699 118.27 98.7807C118.219 98.6914 118.191 98.5901 118.191 98.487C118.191 98.3839 118.218 98.2825 118.269 98.1931C118.921 97.0551 119.565 95.9391 120.201 94.8451C120.239 94.7761 120.29 94.7155 120.352 94.6666C120.414 94.6178 120.484 94.5818 120.56 94.5607C120.636 94.5396 120.715 94.5339 120.793 94.5439C120.871 94.5539 120.946 94.5794 121.014 94.619C121.082 94.6585 121.141 94.7112 121.189 94.774C121.236 94.8368 121.27 94.9085 121.289 94.9847C121.308 95.061 121.312 95.1403 121.3 95.2179C121.288 95.2956 121.261 95.3701 121.219 95.4371C120.573 96.5484 119.93 97.6617 119.29 98.7771C119.239 98.868 119.165 98.9437 119.075 98.9964C118.985 99.0491 118.883 99.077 118.778 99.0771M113.551 108.538C113.45 108.538 113.35 108.512 113.262 108.462C113.174 108.412 113.1 108.34 113.048 108.253C112.995 108.166 112.967 108.067 112.964 107.965C112.961 107.864 112.985 107.764 113.032 107.674C113.632 106.534 114.243 105.399 114.865 104.268C114.903 104.2 114.953 104.14 115.013 104.092C115.073 104.043 115.142 104.007 115.217 103.985C115.291 103.963 115.369 103.957 115.446 103.965C115.523 103.973 115.597 103.996 115.665 104.034C115.733 104.071 115.793 104.121 115.841 104.181C115.89 104.241 115.926 104.311 115.948 104.385C115.97 104.459 115.977 104.537 115.968 104.614C115.96 104.691 115.937 104.765 115.899 104.833C115.283 105.96 114.674 107.09 114.072 108.225C114.022 108.32 113.947 108.399 113.856 108.454C113.764 108.509 113.659 108.538 113.551 108.538M108.734 118.207C108.636 118.207 108.538 118.182 108.451 118.134C108.365 118.087 108.291 118.018 108.238 117.935C108.185 117.851 108.154 117.756 108.147 117.657C108.14 117.559 108.159 117.46 108.2 117.37C108.744 116.199 109.3 115.035 109.868 113.876C109.901 113.804 109.947 113.738 110.005 113.684C110.063 113.63 110.131 113.588 110.206 113.561C110.28 113.534 110.359 113.522 110.438 113.526C110.518 113.531 110.595 113.551 110.666 113.586C110.737 113.62 110.801 113.669 110.853 113.729C110.905 113.789 110.944 113.859 110.968 113.935C110.992 114.01 111.001 114.09 110.994 114.169C110.986 114.248 110.963 114.324 110.925 114.394C110.352 115.563 109.795 116.73 109.268 117.866C109.221 117.968 109.146 118.054 109.051 118.114C108.957 118.175 108.847 118.207 108.734 118.207M104.528 128.165C104.433 128.165 104.339 128.142 104.254 128.097C104.17 128.053 104.097 127.988 104.043 127.91C103.989 127.831 103.955 127.74 103.943 127.645C103.932 127.55 103.944 127.454 103.978 127.365C104.423 126.185 104.9 124.971 105.4 123.755C105.46 123.611 105.574 123.496 105.718 123.435C105.863 123.375 106.025 123.375 106.169 123.434C106.314 123.493 106.429 123.608 106.489 123.752C106.549 123.896 106.55 124.059 106.49 124.203C106.004 125.388 105.534 126.58 105.081 127.779C105.039 127.891 104.964 127.988 104.866 128.056C104.767 128.125 104.65 128.161 104.53 128.161M101.235 138.446C101.146 138.446 101.057 138.425 100.976 138.386C100.895 138.346 100.825 138.289 100.77 138.217C100.715 138.146 100.677 138.063 100.659 137.975C100.64 137.887 100.643 137.796 100.665 137.709C100.991 136.456 101.342 135.21 101.72 133.971C101.771 133.827 101.874 133.709 102.01 133.64C102.146 133.571 102.303 133.557 102.448 133.601C102.594 133.646 102.717 133.745 102.791 133.878C102.865 134.01 102.885 134.167 102.846 134.314C102.473 135.537 102.126 136.767 101.804 138.004C101.772 138.13 101.698 138.242 101.595 138.322C101.492 138.401 101.366 138.445 101.235 138.445M99.2934 149.064C99.2738 149.065 99.2541 149.065 99.2345 149.064C99.079 149.048 98.9362 148.972 98.8374 148.851C98.7385 148.73 98.6918 148.574 98.7075 148.419C98.8325 147.162 99.0075 145.863 99.2145 144.557C99.2442 144.407 99.331 144.275 99.4564 144.188C99.5818 144.101 99.736 144.066 99.8867 144.091C100.037 144.115 100.173 144.197 100.264 144.319C100.355 144.442 100.396 144.595 100.376 144.746C100.172 146.004 100.005 147.267 99.8764 148.536C99.8618 148.681 99.7938 148.816 99.6855 148.914C99.5772 149.012 99.4364 149.066 99.2905 149.066M99.3565 159.849C99.2131 159.849 99.0747 159.797 98.9672 159.702C98.8597 159.607 98.7905 159.476 98.7725 159.334C98.6125 158.04 98.5095 156.74 98.4635 155.434C98.4583 155.278 98.5152 155.126 98.6217 155.012C98.7281 154.898 98.8755 154.831 99.0314 154.825C99.1088 154.822 99.1862 154.834 99.2589 154.86C99.3316 154.887 99.3982 154.928 99.4549 154.981C99.5116 155.034 99.5572 155.097 99.5891 155.168C99.6209 155.238 99.6384 155.315 99.6404 155.392C99.6844 156.659 99.7845 157.923 99.9405 159.186C99.951 159.269 99.9437 159.353 99.9192 159.433C99.8946 159.513 99.8533 159.586 99.7981 159.649C99.7428 159.712 99.6749 159.762 99.5987 159.796C99.5226 159.83 99.44 159.848 99.3565 159.848M102.187 170.232C102.074 170.232 101.962 170.199 101.867 170.137C101.771 170.075 101.696 169.986 101.649 169.882C101.12 168.686 100.657 167.462 100.261 166.215C100.221 166.068 100.239 165.911 100.312 165.778C100.384 165.644 100.506 165.543 100.651 165.497C100.796 165.451 100.954 165.463 101.09 165.531C101.227 165.598 101.332 165.716 101.383 165.859C101.765 167.065 102.213 168.249 102.725 169.405C102.765 169.495 102.782 169.593 102.774 169.69C102.766 169.788 102.734 169.882 102.68 169.964C102.627 170.046 102.554 170.114 102.468 170.161C102.382 170.207 102.285 170.232 102.187 170.232ZM108.027 179.268C107.944 179.268 107.861 179.25 107.785 179.216C107.709 179.181 107.642 179.131 107.586 179.068C106.719 178.09 105.905 177.067 105.145 176.003C105.064 175.876 105.034 175.722 105.063 175.574C105.092 175.425 105.176 175.294 105.3 175.206C105.423 175.118 105.575 175.081 105.724 175.102C105.874 175.124 106.01 175.202 106.103 175.32C106.839 176.35 107.628 177.34 108.467 178.286C108.543 178.371 108.593 178.476 108.611 178.588C108.628 178.7 108.612 178.815 108.566 178.919C108.519 179.023 108.443 179.111 108.347 179.172C108.252 179.234 108.14 179.266 108.026 179.265M114.691 185.277C114.567 185.277 114.445 185.237 114.344 185.164C113.811 184.773 113.285 184.371 112.765 183.958C112.651 183.858 112.579 183.718 112.566 183.567C112.552 183.416 112.597 183.265 112.692 183.146C112.786 183.028 112.923 182.95 113.074 182.93C113.224 182.91 113.377 182.949 113.499 183.038C113.999 183.438 114.514 183.83 115.038 184.214C115.138 184.287 115.213 184.39 115.251 184.509C115.289 184.627 115.289 184.754 115.25 184.872C115.212 184.99 115.137 185.092 115.037 185.165C114.936 185.238 114.816 185.278 114.691 185.278M202.744 78.8591C202.602 78.8598 202.465 78.8092 202.357 78.7165C202.25 78.6239 202.18 78.4954 202.159 78.3549C202.139 78.2143 202.17 78.0712 202.247 77.952C202.324 77.8327 202.442 77.7454 202.578 77.7061C203.908 77.3337 205.294 77.2026 206.669 77.3191C206.825 77.3301 206.97 77.4025 207.072 77.5203C207.175 77.6382 207.226 77.7919 207.215 77.9476C207.204 78.1033 207.132 78.2482 207.014 78.3505C206.896 78.4528 206.742 78.5041 206.586 78.4931C205.351 78.3871 204.106 78.5029 202.91 78.8351C202.856 78.851 202.8 78.8591 202.743 78.8591M216.968 81.9591C216.871 81.9588 216.776 81.9344 216.69 81.8881C215.557 81.2761 214.395 80.7201 213.205 80.2201C213.061 80.1601 212.947 80.0454 212.887 79.9011C212.828 79.7568 212.828 79.5947 212.888 79.4506C212.948 79.3064 213.063 79.192 213.207 79.1325C213.351 79.0729 213.513 79.0731 213.657 79.1331C214.881 79.6464 216.078 80.2191 217.247 80.8511C217.363 80.9128 217.455 81.0116 217.509 81.1318C217.562 81.2519 217.573 81.3864 217.541 81.5138C217.509 81.6412 217.435 81.7542 217.331 81.8347C217.228 81.9152 217.1 81.9587 216.968 81.9581M196.238 87.0051C196.15 87.005 196.063 86.9851 195.983 86.9467C195.904 86.9084 195.834 86.8526 195.779 86.7835C195.724 86.7145 195.685 86.6339 195.665 86.5478C195.645 86.4617 195.645 86.3722 195.664 86.2861C195.95 84.9571 196.405 83.6702 197.018 82.4571C197.093 82.3224 197.217 82.2221 197.364 82.1775C197.511 82.1329 197.67 82.1477 197.806 82.2185C197.942 82.2894 198.046 82.4109 198.094 82.5569C198.142 82.7029 198.131 82.862 198.063 83.0001C197.497 84.1238 197.076 85.3155 196.812 86.5461C196.783 86.676 196.71 86.792 196.606 86.8752C196.502 86.9583 196.373 87.0038 196.239 87.0041M195.857 97.9351C195.712 97.9349 195.572 97.8808 195.464 97.7833C195.356 97.6858 195.288 97.5518 195.272 97.4071C195.139 96.1404 195.059 94.8737 195.032 93.6071V93.4441C195.031 93.3665 195.045 93.2893 195.073 93.2171C195.102 93.1449 195.144 93.079 195.198 93.0233C195.252 92.9675 195.317 92.923 195.388 92.8922C195.459 92.8615 195.536 92.8451 195.613 92.8441C195.691 92.8415 195.769 92.8547 195.842 92.8827C195.914 92.9108 195.981 92.9532 196.037 93.0074C196.093 93.0616 196.137 93.1265 196.167 93.1983C196.198 93.27 196.213 93.3471 196.213 93.4251V93.5771C196.235 94.7571 196.313 95.9691 196.447 97.2871C196.456 97.3691 196.447 97.452 196.422 97.5304C196.396 97.6088 196.354 97.6809 196.299 97.7421C196.244 97.8033 196.176 97.8522 196.101 97.8856C196.025 97.9191 195.944 97.9362 195.861 97.9361M197.727 108.758C197.593 108.758 197.463 108.711 197.358 108.627C197.254 108.542 197.182 108.424 197.153 108.293C196.875 107.011 196.61 105.726 196.359 104.437C196.342 104.36 196.34 104.28 196.354 104.202C196.368 104.125 196.397 104.05 196.44 103.984C196.483 103.918 196.539 103.861 196.605 103.817C196.671 103.773 196.744 103.742 196.822 103.727C196.9 103.713 196.98 103.713 197.057 103.73C197.134 103.746 197.207 103.778 197.272 103.824C197.337 103.869 197.392 103.927 197.433 103.994C197.475 104.061 197.503 104.136 197.515 104.214C197.734 105.347 197.992 106.6 198.304 108.045C198.323 108.131 198.322 108.22 198.302 108.306C198.282 108.391 198.243 108.471 198.187 108.54C198.132 108.608 198.062 108.663 197.983 108.701C197.903 108.739 197.816 108.758 197.728 108.758M200.077 119.492C199.942 119.492 199.811 119.445 199.706 119.359C199.601 119.274 199.529 119.155 199.501 119.022C199.235 117.744 198.961 116.467 198.681 115.192C198.662 115.116 198.659 115.036 198.671 114.958C198.683 114.88 198.71 114.806 198.752 114.739C198.793 114.672 198.848 114.614 198.912 114.568C198.976 114.523 199.049 114.491 199.126 114.474C199.203 114.457 199.283 114.455 199.36 114.47C199.438 114.484 199.511 114.514 199.577 114.557C199.643 114.601 199.699 114.657 199.743 114.722C199.787 114.788 199.817 114.862 199.831 114.939C200.108 116.202 200.386 117.483 200.654 118.783C200.672 118.869 200.67 118.957 200.65 119.042C200.629 119.127 200.589 119.206 200.534 119.274C200.479 119.342 200.409 119.397 200.33 119.434C200.251 119.472 200.165 119.491 200.077 119.491M201.922 130.319C201.779 130.319 201.641 130.266 201.534 130.172C201.427 130.077 201.357 129.946 201.339 129.804C201.184 128.561 200.998 127.261 200.786 125.941C200.771 125.863 200.771 125.783 200.786 125.705C200.802 125.627 200.834 125.554 200.879 125.488C200.924 125.423 200.982 125.367 201.049 125.325C201.116 125.282 201.191 125.254 201.27 125.242C201.348 125.229 201.429 125.232 201.506 125.251C201.583 125.271 201.655 125.305 201.719 125.353C201.782 125.401 201.835 125.461 201.874 125.53C201.914 125.599 201.939 125.675 201.948 125.754C202.162 127.088 202.348 128.402 202.508 129.654C202.519 129.737 202.511 129.821 202.487 129.901C202.462 129.981 202.421 130.054 202.365 130.117C202.31 130.18 202.242 130.23 202.166 130.264C202.09 130.298 202.007 130.316 201.923 130.316M202.632 141.271C202.476 141.271 202.327 141.209 202.216 141.099C202.106 140.989 202.044 140.839 202.043 140.683V140.545C202.043 139.314 202.013 138.052 201.953 136.789C201.946 136.633 202.001 136.481 202.106 136.366C202.21 136.25 202.357 136.181 202.512 136.173C202.668 136.168 202.819 136.224 202.934 136.328C203.049 136.433 203.119 136.578 203.129 136.733C203.189 138.013 203.22 139.297 203.22 140.544V140.682C203.22 140.838 203.159 140.988 203.048 141.098C202.938 141.208 202.788 141.27 202.632 141.27M201.789 152.213C201.705 152.213 201.621 152.195 201.543 152.16C201.466 152.124 201.398 152.072 201.342 152.008C201.287 151.944 201.246 151.868 201.223 151.786C201.2 151.705 201.194 151.619 201.207 151.535C201.407 150.263 201.57 148.965 201.697 147.675C201.703 147.597 201.725 147.521 201.761 147.451C201.797 147.381 201.846 147.319 201.906 147.269C201.966 147.219 202.036 147.181 202.111 147.158C202.186 147.135 202.265 147.127 202.343 147.134C202.421 147.142 202.496 147.165 202.565 147.203C202.634 147.24 202.695 147.291 202.744 147.352C202.793 147.413 202.83 147.483 202.851 147.559C202.873 147.634 202.879 147.713 202.869 147.791C202.74 149.104 202.573 150.412 202.369 151.715C202.348 151.854 202.278 151.981 202.172 152.072C202.066 152.164 201.93 152.215 201.789 152.215M199.251 162.893C199.159 162.893 199.067 162.872 198.984 162.83C198.901 162.788 198.83 162.727 198.775 162.652C198.72 162.577 198.684 162.49 198.67 162.398C198.655 162.306 198.663 162.212 198.691 162.124C199.091 160.889 199.454 159.644 199.779 158.389C199.819 158.238 199.917 158.109 200.052 158.03C200.187 157.952 200.348 157.93 200.499 157.97C200.65 158.009 200.779 158.108 200.858 158.242C200.936 158.377 200.958 158.538 200.918 158.689C200.585 159.965 200.216 161.232 199.811 162.489C199.773 162.608 199.699 162.711 199.598 162.785C199.497 162.858 199.376 162.898 199.251 162.898M195.136 173.071C195.037 173.071 194.938 173.045 194.851 172.997C194.764 172.948 194.69 172.878 194.637 172.793C194.585 172.709 194.554 172.612 194.549 172.512C194.544 172.412 194.565 172.313 194.608 172.223C195.18 171.059 195.721 169.881 196.231 168.688C196.297 168.551 196.413 168.445 196.555 168.392C196.697 168.338 196.855 168.342 196.994 168.401C197.134 168.461 197.245 168.572 197.304 168.712C197.364 168.852 197.367 169.009 197.313 169.151C196.795 170.362 196.246 171.559 195.665 172.742C195.617 172.841 195.542 172.924 195.448 172.982C195.355 173.041 195.247 173.071 195.136 173.071M189.494 182.471C189.386 182.471 189.28 182.44 189.187 182.383C189.095 182.326 189.02 182.245 188.971 182.148C188.922 182.051 188.901 181.943 188.909 181.835C188.918 181.726 188.956 181.623 189.02 181.535C189.784 180.491 190.512 179.422 191.203 178.327C191.287 178.195 191.419 178.102 191.572 178.068C191.724 178.034 191.884 178.062 192.015 178.145C192.147 178.229 192.24 178.361 192.275 178.513C192.309 178.666 192.281 178.825 192.197 178.957C191.492 180.073 190.749 181.164 189.969 182.231C189.915 182.306 189.843 182.366 189.76 182.408C189.677 182.45 189.586 182.471 189.493 182.471M182.102 190.558C181.982 190.558 181.865 190.522 181.767 190.453C181.668 190.385 181.593 190.288 181.551 190.175C181.509 190.063 181.502 189.94 181.532 189.824C181.562 189.708 181.627 189.604 181.717 189.525C182.692 188.68 183.629 187.794 184.529 186.867C184.583 186.812 184.648 186.767 184.718 186.737C184.789 186.706 184.866 186.69 184.943 186.689C185.02 186.688 185.097 186.702 185.169 186.73C185.241 186.759 185.306 186.801 185.361 186.855C185.417 186.909 185.461 186.973 185.492 187.044C185.522 187.115 185.539 187.191 185.54 187.269C185.541 187.346 185.527 187.423 185.498 187.494C185.47 187.566 185.427 187.632 185.373 187.687C184.451 188.637 183.489 189.546 182.487 190.415C182.381 190.508 182.244 190.559 182.102 190.559M172.943 196.559C172.809 196.56 172.678 196.515 172.573 196.431C172.468 196.347 172.395 196.23 172.366 196.099C172.336 195.968 172.353 195.831 172.413 195.71C172.472 195.59 172.571 195.493 172.693 195.437C173.859 194.89 174.996 194.282 176.098 193.617C176.165 193.577 176.238 193.551 176.314 193.539C176.391 193.528 176.469 193.531 176.544 193.55C176.619 193.569 176.689 193.602 176.751 193.648C176.814 193.694 176.866 193.751 176.906 193.818C176.946 193.884 176.972 193.957 176.984 194.034C176.995 194.11 176.992 194.188 176.973 194.263C176.954 194.338 176.921 194.408 176.875 194.471C176.829 194.533 176.772 194.585 176.705 194.625C175.567 195.312 174.395 195.938 173.191 196.503C173.114 196.54 173.029 196.559 172.942 196.559" fill="#88D3FF"/>
</svg>
