<svg xmlns="http://www.w3.org/2000/svg" width="34" height="34" viewBox="0 0 34 34">
  <g id="Group_101425" data-name="Group 101425" transform="translate(1581 -6118)">
    <circle id="Ellipse_2154" data-name="Ellipse 2154" cx="17" cy="17" r="17" transform="translate(-1581 6118)" fill="#33a1e1" opacity="0.05"/>
    <g id="Group_101294" data-name="Group 101294" transform="translate(-979.395 4651.779)">
      <path id="Path_181875" data-name="Path 181875" d="M-229.191,1741.359h-1.916v-1.935h.226l1.69.012Z" transform="translate(-347.075 -253.707)" fill="#33a1e1"/>
      <path id="Path_181876" data-name="Path 181876" d="M-372.016,1482.072H-374.9c-.485,0-.693-.209-.693-.695q0-2.875,0-5.751c0-.5.206-.7.7-.7h5.751c.487,0,.691.205.691.695q0,2.875,0,5.751c0,.5-.2.7-.7.7Zm2.439-1.13v-4.882h-4.883v4.882Z" transform="translate(-208.485 -0.003)" fill="#33a1e1"/>
      <path id="Path_181877" data-name="Path 181877" d="M-589.151,1699.155h-2.867c-.491,0-.694-.2-.694-.69q0-2.884,0-5.767c0-.476.21-.687.685-.687h5.783a.589.589,0,0,1,.678.677q0,2.9,0,5.8a.581.581,0,0,1-.668.668Q-587.693,1699.157-589.151,1699.155Zm-2.429-6.014v4.881h4.881v-4.881Z" transform="translate(-0.226 -208.229)" fill="#33a1e1"/>
      <path id="Path_181878" data-name="Path 181878" d="M-585.809,1478.5q0,1.458,0,2.916a.573.573,0,0,1-.65.651q-2.916,0-5.832,0a.58.58,0,0,1-.657-.662q0-2.908,0-5.816a.583.583,0,0,1,.668-.667h5.8c.468,0,.671.207.671.679Q-585.809,1477.051-585.809,1478.5Zm-6.014-2.449v4.884h4.887v-4.884Z" transform="translate(0)" fill="#33a1e1"/>
      <path id="Path_181879" data-name="Path 181879" d="M-279.115,1694.213v-1.945h1.925v1.919c-.058,0-.116.007-.174.007h-1.562c-.064,0-.129.009-.193.014Z" transform="translate(-301.022 -208.476)" fill="#33a1e1"/>
      <path id="Path_181880" data-name="Path 181880" d="M-278.769,1836.234v-1.912h1.916c0,.047.013.088.013.13,0,.548,0,1.1,0,1.645,0,.087,0,.157-.122.156-.575-.005-1.151,0-1.726,0A.472.472,0,0,1-278.769,1836.234Z" transform="translate(-301.358 -344.733)" fill="#33a1e1"/>
      <path id="Path_181881" data-name="Path 181881" d="M-371.355,1694.136a1.311,1.311,0,0,0-.173-.023c-.515,0-1.031,0-1.546,0h-.189v-1.93h1.9a.445.445,0,0,1,.017.087q0,.887,0,1.774a.756.756,0,0,1-.012.1Z" transform="translate(-210.72 -208.395)" fill="#33a1e1"/>
      <path id="Path_181882" data-name="Path 181882" d="M-324.655,1739.457v1.923h-1.92l.006,0q-.005-.8-.011-1.594c0-.108-.005-.217-.008-.324l0,0a.422.422,0,0,1,.106-.028q.879,0,1.758,0a.348.348,0,0,1,.078.019Z" transform="translate(-255.486 -253.724)" fill="#33a1e1"/>
      <path id="Path_181883" data-name="Path 181883" d="M-371.365,1786.944v1.914h-1.923v-1.909h1.929Z" transform="translate(-210.696 -299.288)" fill="#33a1e1"/>
      <path id="Path_181884" data-name="Path 181884" d="M-309.5,1540.887h-1.912v-1.921h1.912Z" transform="translate(-270.051 -61.43)" fill="#33a1e1"/>
      <path id="Path_181885" data-name="Path 181885" d="M-528.592,1756.059h1.913c0,.05.012.092.012.134,0,.548,0,1.1,0,1.645,0,.126-.041.155-.159.153-.543-.005-1.086,0-1.629,0-.043,0-.085-.005-.141-.009Z" transform="translate(-61.73 -269.664)" fill="#33a1e1"/>
      <path id="Path_181886" data-name="Path 181886" d="M-527,1539.012v1.917h-1.912v-1.917Z" transform="translate(-61.422 -61.474)" fill="#33a1e1"/>
    </g>
  </g>
</svg>
