<svg xmlns="http://www.w3.org/2000/svg" xmlns:xlink="http://www.w3.org/1999/xlink" width="24" height="24" viewBox="0 0 24 24">
  <defs>
    <clipPath id="clip-path">
      <rect id="Rectangle_26505" data-name="Rectangle 26505" width="24" height="24" transform="translate(-1547 9495)" fill="#fff"/>
    </clipPath>
  </defs>
  <g id="Group_101448" data-name="Group 101448" transform="translate(-16 -130)">
    <g id="Mask_Group_1201" data-name="Mask Group 1201" transform="translate(1563 -9365)" clip-path="url(#clip-path)">
      <g id="Group_100866" data-name="Group 100866" transform="translate(19.269 60.239)">
        <path id="Path_181838" data-name="Path 181838" d="M-499.251,309.2v-3.3a.654.654,0,0,1,.626-.381,1.5,1.5,0,0,0,1.4-1.515,1.5,1.5,0,0,0-1.4-1.5.653.653,0,0,1-.626-.381v-3.3a.571.571,0,0,1,.527-.371q1.71,0,3.421,0c.115,0,.139.039.138.144,0,.438,0,.876,0,1.314a.518.518,0,0,0,.514.566.508.508,0,0,0,.5-.562c0-.433.006-.865,0-1.3,0-.137.042-.165.171-.165q5.713,0,11.426,0a.512.512,0,0,1,.569.559q0,5.005,0,10.01a.51.51,0,0,1-.558.553q-5.746,0-11.493,0c-.134,0-.155-.043-.153-.162.007-.432,0-.865,0-1.3a.512.512,0,0,0-.512-.565.512.512,0,0,0-.5.562c0,.433-.006.865,0,1.3,0,.134-.036.166-.167.166-1.067-.005-2.135-.011-3.2,0A.647.647,0,0,1-499.251,309.2Zm4.045-6.707c0,.162,0,.325,0,.487a.508.508,0,0,0,.5.522.5.5,0,0,0,.508-.516q.007-.5,0-.991a.5.5,0,0,0-.509-.514.508.508,0,0,0-.5.524C-495.208,302.169-495.206,302.332-495.206,302.494Zm1.01,3.034c0-.174.006-.348,0-.521a.5.5,0,0,0-.5-.491.5.5,0,0,0-.509.5q-.01.512,0,1.025a.5.5,0,0,0,.507.5.507.507,0,0,0,.5-.505C-494.191,305.864-494.2,305.7-494.2,305.528Z" transform="translate(-1063.429 9143.049)" fill="#d8dee5"/>
        <path id="Path_181839" data-name="Path 181839" d="M-473.988,303.712a.5.5,0,0,0-.361-.474.493.493,0,0,0-.58.226q-2,3-4,6.006a.5.5,0,0,0,.109.729.5.5,0,0,0,.729-.167q2-3,4.005-6.005A.55.55,0,0,0-473.988,303.712Zm-4.544-.5a1.521,1.521,0,0,0-1.522,1.5,1.521,1.521,0,0,0,1.511,1.53,1.521,1.521,0,0,0,1.522-1.5A1.52,1.52,0,0,0-478.532,303.213Zm2.523,5.552a1.521,1.521,0,0,0,1.5,1.525,1.521,1.521,0,0,0,1.533-1.508,1.52,1.52,0,0,0-1.5-1.525A1.521,1.521,0,0,0-476.009,308.765Z" transform="translate(-1074.469 9140.309)" fill="#33a1e1"/>
        <path id="Path_181840" data-name="Path 181840" d="M-295.128,366.893a.512.512,0,0,1-.51-.5.511.511,0,0,1,.508-.514.511.511,0,0,1,.5.5A.511.511,0,0,1-295.128,366.893Z" transform="translate(-1257.874 9078.648)" fill="#d8dee5"/>
        <path id="Path_181841" data-name="Path 181841" d="M-204.8,456.213a.511.511,0,0,1-.5.5.511.511,0,0,1-.507-.516.511.511,0,0,1,.511-.494A.511.511,0,0,1-204.8,456.213Z" transform="translate(-1343.654 8992.871)" fill="#d8dee5"/>
      </g>
    </g>
  </g>
</svg>
