<svg xmlns="http://www.w3.org/2000/svg" width="44" height="44" viewBox="0 0 44 44">
  <g id="Group_101694" data-name="Group 101694" transform="translate(-16 -211)">
    <rect id="Rectangle_26397" data-name="Rectangle 26397" width="44" height="44" transform="translate(16 211)" fill="rgba(245,245,245,0.35)"/>
    <g id="vuesax_bold_empty-wallet-add" data-name="vuesax/bold/empty-wallet-add" transform="translate(-465.999 33)">
      <g id="empty-wallet-add">
        <path id="Vector" d="M0,0H23.361V23.361H0Z" transform="translate(492.64 188)" fill="none" opacity="0"/>
        <path id="Vector-2" data-name="Vector" d="M3.893,0A3.9,3.9,0,0,0,0,3.893,3.816,3.816,0,0,0,.565,5.9,3.864,3.864,0,0,0,3.893,7.787a3.8,3.8,0,0,0,2.56-.973A3.5,3.5,0,0,0,7.222,5.9a3.816,3.816,0,0,0,.565-2.005A3.892,3.892,0,0,0,3.893,0Z" transform="translate(503.011 206.505) rotate(135)" fill="#9dadbd"/>
        <path id="Vector-3" data-name="Vector" d="M12.021,1.849v3.7h-1.46v-3.7a.388.388,0,0,0-.535-.36L2.307,4.4A1.308,1.308,0,0,0,1.46,5.636v.652A3.636,3.636,0,0,0,0,9.208V5.636a2.772,2.772,0,0,1,1.791-2.6L9.519.117A1.923,1.923,0,0,1,10.172,0,1.854,1.854,0,0,1,12.021,1.849Z" transform="translate(495.073 189.996)" fill="#9dadbd"/>
        <path id="Vector-4" data-name="Vector" d="M2.925.487V1.46a.486.486,0,0,1-.477.487H1.026A1.008,1.008,0,0,1,0,1.061.972.972,0,0,1,.287.282.925.925,0,0,1,.968,0h1.47A.488.488,0,0,1,2.925.487Z" transform="translate(510.644 201.629)" fill="#9dadbd"/>
        <path id="Vector-5" data-name="Vector" d="M16.528,5.061h.993a.976.976,0,0,0,.973-.973V3.66A3.668,3.668,0,0,0,14.834,0H3.66a3.608,3.608,0,0,0-2.2.74A3.636,3.636,0,0,0,0,3.66V5.392a.548.548,0,0,0,.74.487A5.284,5.284,0,0,1,2.433,5.6,5.363,5.363,0,0,1,7.787,10.95,5.647,5.647,0,0,1,7.31,13.1a.542.542,0,0,0,.467.769h7.057a3.668,3.668,0,0,0,3.66-3.66v-.185a.976.976,0,0,0-.973-.973h-.847A2.113,2.113,0,0,1,14.6,7.573a1.96,1.96,0,0,1,.526-1.927A1.94,1.94,0,0,1,16.528,5.061Zm-5.334-.195H6.327a.73.73,0,0,1,0-1.46h4.867a.73.73,0,1,1,0,1.46Z" transform="translate(495.073 195.544)" fill="#9dadbd"/>
        <path id="Vector-6" data-name="Vector" d="M5.46,3.389l-1.833,1.7a.656.656,0,0,1-.439.172.638.638,0,0,1-.456-.189L1.88,4.215A.645.645,0,1,1,2.792,3.3l.413.413L4.582,2.442a.645.645,0,1,1,.878.947Z" transform="translate(493.629 202.97)" fill="#fff"/>
      </g>
    </g>
  </g>
</svg>
