<svg xmlns="http://www.w3.org/2000/svg" width="24" height="24" viewBox="0 0 24 24">
  <g id="vuesax_bold_frame" data-name="vuesax/bold/frame" transform="translate(-108 -252)">
    <g id="frame">
      <path id="Vector" d="M4.082,0a4.078,4.078,0,0,0-.1,8.155.693.693,0,0,1,.189,0h.06A4.079,4.079,0,0,0,4.082,0Z" transform="translate(115.918 255.407)" fill="#33a1e1"/>
      <path id="Vector-2" data-name="Vector" d="M10.414,1.2a8.532,8.532,0,0,0-8.722,0A3.392,3.392,0,0,0,0,3.974,3.363,3.363,0,0,0,1.684,6.732,7.939,7.939,0,0,0,6.049,7.944a7.939,7.939,0,0,0,4.365-1.212A3.39,3.39,0,0,0,12.1,3.957,3.383,3.383,0,0,0,10.414,1.2Z" transform="translate(113.951 264.649)" fill="#9dadbd" opacity="0.4"/>
      <path id="Vector-3" data-name="Vector" d="M0,0H24V24H0Z" transform="translate(132 276) rotate(180)" fill="none" opacity="0"/>
    </g>
  </g>
</svg>
