<svg xmlns="http://www.w3.org/2000/svg" xmlns:xlink="http://www.w3.org/1999/xlink" width="284.134" height="191.604" viewBox="0 0 284.134 191.604">
  <defs>
    <clipPath id="clip-path">
      <rect id="Rectangle_26704" data-name="Rectangle 26704" width="284.134" height="191.604" fill="#f5f6fa"/>
    </clipPath>
    <clipPath id="clip-path-2">
      <rect id="Rectangle_26707" data-name="Rectangle 26707" width="126.823" height="108.498" fill="#333"/>
    </clipPath>
  </defs>
  <g id="Group_101494" data-name="Group 101494" transform="translate(-45.915 -192.863)">
    <g id="Group_101466" data-name="Group 101466" transform="translate(45.915 192.863)">
      <g id="Group_101465" data-name="Group 101465" clip-path="url(#clip-path)">
        <path id="Path_181899" data-name="Path 181899" d="M14.33,29.246c5.117-9.462,12.346-16.992,22.835-18.369C48.206,9.427,58.212,16.691,67.99,22.02c35.519,19.348,79.878,14.892,117.424-.148C204.1,14.383,250.52-13.376,267.989,7.835c4.137,5.025,5.96,11.515,7.608,17.813,5.022,19.184,9.453,38.848,8.376,58.65-2.359,43.392-32.923,64.5-70.365,78.892-39.748,15.28-81.248,28.084-123.829,28.406-23.656.18-49.106-4.4-65.675-21.29C14.383,160.4,8.7,147.181,5.1,133.777A152.231,152.231,0,0,1,3.43,62.547c2.05-9.532,5.135-22.642,10.9-33.3" transform="translate(0 0)" fill="#f5f6fa"/>
      </g>
    </g>
    <g id="Group_101473" data-name="Group 101473" transform="translate(123.89 250.021)">
      <g id="Group_101472" data-name="Group 101472" clip-path="url(#clip-path-2)">
        <path id="Path_181902" data-name="Path 181902" d="M114.028,87.42c4.1,1.253,6.809,3.732,7.88,7.723a10.6,10.6,0,0,1-11.245,13.321,23.622,23.622,0,0,1-5.258-1.046c-4.466-1.4-6.561-5.471-5.371-10.344a14.778,14.778,0,0,1,2.916-5.7c-12.861.729-25.387-1-38.022-1.5a1.8,1.8,0,0,0,.088.49c2.428,3.991,1.942,7.874-.621,11.546a14.342,14.342,0,0,1-10.53,6.4c-7.089.768-11.424-5.194-11.966-10.014A11.9,11.9,0,0,1,46.1,87.4c.642-.557.591-.763-.136-1.132-7.594-3.856-11.082-10.307-11.681-18.573-.52-7.183.746-14.2,1.98-21.215,1.2-6.838,2.678-13.638,2.843-20.62a26.926,26.926,0,0,0-1.66-11.064A15.41,15.41,0,0,0,32.6,8.318c-1.559,3.007-4.406,3.726-7.333,4.181-5.895.915-11.774.275-17.647-.349-1.129-.12-2.262-.219-3.382-.4C1.508,11.307.058,9.906,0,7.726A5.222,5.222,0,0,1,4.068,2.864c.884-.179,1.532-.32,1.952-1.3A2.573,2.573,0,0,1,8.49.323c5.845-.07,11.7-.775,17.53.148a8.3,8.3,0,0,1,5.666,3.465,2.335,2.335,0,0,0,.874.761c5.836,2.975,8.84,8,10.115,14.2a38.6,38.6,0,0,1-.111,14.983c-.277,1.483-.3,1.5,1.237,1.443,13.458-.472,26.915-.987,40.375-1.416,10.795-.344,21.594-.531,32.395-.3,5.333.113,8.819,3.395,9.817,9.108.824,4.719.332,9.42-.286,14.1a84.333,84.333,0,0,1-6.481,22.993,20.457,20.457,0,0,1-5.593,7.607m-15.925.9A27.089,27.089,0,0,0,106.231,88c5.889-1.289,9.068-5.36,10.985-10.726a85.044,85.044,0,0,0,2.762-10.5c1.2-5.5,2.512-10.987,2.895-16.633a18.732,18.732,0,0,0-.919-8.267,5.821,5.821,0,0,0-4.884-4.009c-3.408-.478-6.808-.132-10.212-.165-21.388-.209-42.742.876-64.106,1.6-.8.027-1.113.244-1.209,1.092-.547,4.82-1.652,9.549-2.421,14.334-.813,5.061-1.444,10.148-.346,15.247,1.528,7.1,5.465,12.069,12.671,14.094a41.653,41.653,0,0,0,8.518,1.39c4.535.3,9.079.51,13.607.9,8.141.7,16.266,1.617,24.532,1.963M52.72,104.929a10.29,10.29,0,0,0,9.152-6.9c.993-3.2-.35-5.942-3.255-7.566-2.437-1.362-5.123-1.606-7.7-2.342a1.41,1.41,0,0,0-1.219.305,9.762,9.762,0,0,0-4.55,6.736c-.85,5,2.865,9.786,7.571,9.763m58.295-.847a11.581,11.581,0,0,0,1.177-.005,6.034,6.034,0,0,0,5.482-5.143,5.653,5.653,0,0,0-3.858-6c-.686-.275-1.41-.454-2.1-.718-.943-.36-1.891-.73-2.208-1.852-.057-.2-.165-.5-.424-.378-1.058.48-2.483.236-3.231,1.21a11.9,11.9,0,0,0-2.778,7.723,4.114,4.114,0,0,0,2.742,4.058,13.047,13.047,0,0,0,5.2,1.1M15.359,9.864a37.632,37.632,0,0,0,5.946-.311,28.945,28.945,0,0,0,6.421-1.169c.588-.206,1.275-.451,1.33-1.271a1.866,1.866,0,0,0-1.115-1.781,8.139,8.139,0,0,0-2.973-.949,59.759,59.759,0,0,0-12.937-.131A12.157,12.157,0,0,1,7.1,4.065a.847.847,0,0,0-.85.064A20.688,20.688,0,0,0,3.579,6.008a1.872,1.872,0,0,0-.757,1.957c.255.87,1.041,1.052,1.77,1.1,3.614.233,7.191.946,10.766.8" transform="translate(0 0)" fill="#333"/>
        <path id="Path_181903" data-name="Path 181903" d="M177.949,22.55a21.9,21.9,0,0,1,2.162-9.559c.475-1.016,1.172-1.7,2.343-1.426A1.973,1.973,0,0,1,184,13.952c-.165,1.695-.253,3.407-.567,5.075-.372,1.976-.676,3.956-.947,5.946a5.569,5.569,0,0,1-.359,1.388,2.062,2.062,0,0,1-2.255,1.416,2.007,2.007,0,0,1-1.857-1.889,13.377,13.377,0,0,1-.065-3.338" transform="translate(-97.262 -6.291)" fill="#333"/>
        <path id="Path_181904" data-name="Path 181904" d="M137.61,30.718c.01-2.555.716-4.1,1.784-4.218,1.665-.179,2.177,1.228,2.772,2.344.694,1.3,1.223,2.691,1.826,4.042a8.63,8.63,0,0,0,1.55,2.543,2.507,2.507,0,0,1,0,3.631,2.391,2.391,0,0,1-3.485-.364c-2.32-2.428-4.3-5.05-4.45-7.977" transform="translate(-75.245 -14.481)" fill="#333"/>
        <path id="Path_181905" data-name="Path 181905" d="M217.377,28.9a6.427,6.427,0,0,1-.808,2.119c-1.763,3.21-4.656,5.266-7.583,7.249a1.913,1.913,0,0,1-2.6-.495,1.83,1.83,0,0,1-.161-2.518c2.508-2.957,4.984-5.974,8.557-7.758a1.675,1.675,0,0,1,2.591,1.4" transform="translate(-112.529 -14.905)" fill="#333"/>
        <path id="Path_181906" data-name="Path 181906" d="M126.255,113.913c-2.14,0-4.281.035-6.42-.019-.752-.019-1,.225-1,.948,0,2.1-.07,4.2-.062,6.292a7.509,7.509,0,0,1-.531,3.2,1.684,1.684,0,0,1-1.6,1.145,1.661,1.661,0,0,1-1.609-1.123,7.121,7.121,0,0,1-.52-3.332c.1-2.14.136-4.283.247-6.421.038-.731-.192-.967-.935-1-2.619-.123-5.235-.324-7.851-.49-.984-.063-1.854-.288-1.98-1.473-.105-.983.547-1.625,1.721-1.663,2.665-.087,5.332-.193,8-.183.986,0,1.248-.32,1.3-1.261.144-2.836.334-5.673.629-8.5.1-1-.207-1.167-1.084-1.169-2.4-.008-4.808-.092-7.212-.15-1.395-.033-2.106-.581-2.048-1.635.07-1.249.908-1.54,1.994-1.564,2.622-.056,5.244-.175,7.866-.215.767-.012,1.167-.145,1.264-1.041.158-1.472.5-2.925.772-4.384.129-.691.384-1.288,1.246-1.225.89.064,1.162.645,1.153,1.445-.014,1.356.014,2.712-.045,4.065-.034.759.243.983.979.966q6.425-.143,12.852-.213c.794-.008,1.151-.2,1.184-1.078.055-1.482.242-2.961.408-4.437a2.056,2.056,0,0,1,4.111.035c.108,1.437.121,2.885.093,4.326-.014.771.161,1.063,1.011,1.051,4.5-.062,9.007-.073,13.51-.059.722,0,.951-.249,1.076-.935.345-1.889.789-3.758,1.186-5.637.217-1.031.76-1.693,1.891-1.557,1.087.13,1.411.937,1.419,1.888.014,1.7.034,3.411-.053,5.111-.046.889.234,1.118,1.093,1.1,2.71-.056,5.421-.044,8.132-.036,1.712.005,2.7.843,2.658,2.2-.042,1.295-1.016,2.077-2.646,2.091-2.8.023-5.6.062-8.394.021-.9-.013-1.18.273-1.24,1.174-.2,3.052-.48,6.1-.793,9.142-.094.913.139,1.206,1.085,1.215,3.366.03,6.731.152,10.1.231,1.9.044,2.817.747,2.818,2.17,0,1.454-.988,2.165-2.954,2.134-3.453-.056-6.908-.073-10.36-.185-.9-.029-1.21.229-1.3,1.112-.359,3.7-.372,7.423-.908,11.1-.094.648-.174,1.3-.315,1.938a2.565,2.565,0,0,1-2.833,2c-1.175-.1-1.718-.755-1.884-2.252-.414-3.739.288-7.41.7-11.095.329-2.942.386-2.923-2.6-2.969-3.147-.049-6.3-.056-9.44-.223-1.3-.069-1.633.349-1.613,1.577.039,2.359-.092,4.72-.11,7.079a8.1,8.1,0,0,1-.731,3.429,1.988,1.988,0,0,1-3.683-.123,6.794,6.794,0,0,1-.523-3.208c.316-2.568.107-5.158.38-7.723.091-.853-.167-1.167-1.048-1.148-2.184.047-4.369.015-6.554.015v-.475m.235-4.174v.121c2.138,0,4.278-.042,6.415.021.852.025,1.152-.223,1.161-1.08.03-2.925.091-5.849.207-8.771.037-.927-.447-.952-1.127-.955-4.234-.024-8.468-.054-12.7-.117-.7-.01-.992.151-1.016.92-.092,2.966-.235,5.932-.405,8.894-.043.738.155,1,.919.982,2.182-.043,4.365-.014,6.547-.014M146.512,99.06v.057c-2.1,0-4.194.02-6.29-.01-.715-.011-1.115.1-1.138.968-.078,3.012-.214,6.024-.372,9.034-.038.721.241.881.9.893q6.158.114,12.315.294c.623.018.929-.108,1-.818q.44-4.694.992-9.377c.1-.826-.164-1.072-.977-1.055-2.14.044-4.281.015-6.421.015" transform="translate(-56.858 -47.356)" fill="#333"/>
      </g>
    </g>
  </g>
</svg>
