<svg xmlns="http://www.w3.org/2000/svg" xmlns:xlink="http://www.w3.org/1999/xlink" width="284.134" height="191.604" viewBox="0 0 284.134 191.604">
  <defs>
    <clipPath id="clip-path">
      <rect id="Rectangle_26704" data-name="Rectangle 26704" width="284.134" height="191.604" fill="#f5f6fa"/>
    </clipPath>
    <clipPath id="clip-path-2">
      <rect id="Rectangle_26714" data-name="Rectangle 26714" width="148.38" height="124.639" fill="none"/>
    </clipPath>
  </defs>
  <g id="Group_101500" data-name="Group 101500" transform="translate(-45.915 -192.863)">
    <g id="Group_101466" data-name="Group 101466" transform="translate(45.915 192.863)">
      <g id="Group_101465" data-name="Group 101465" clip-path="url(#clip-path)">
        <path id="Path_181899" data-name="Path 181899" d="M14.33,29.246c5.117-9.462,12.346-16.992,22.835-18.369C48.206,9.427,58.212,16.691,67.99,22.02c35.519,19.348,79.878,14.892,117.424-.148C204.1,14.383,250.52-13.376,267.989,7.835c4.137,5.025,5.96,11.515,7.608,17.813,5.022,19.184,9.453,38.848,8.376,58.65-2.359,43.392-32.923,64.5-70.365,78.892-39.748,15.28-81.248,28.084-123.829,28.406-23.656.18-49.106-4.4-65.675-21.29C14.383,160.4,8.7,147.181,5.1,133.777A152.231,152.231,0,0,1,3.43,62.547c2.05-9.532,5.135-22.642,10.9-33.3" transform="translate(0 0)" fill="#f5f6fa"/>
      </g>
    </g>
    <g id="Group_101487" data-name="Group 101487" transform="translate(113.379 237.478)">
      <g id="Group_101486" data-name="Group 101486" clip-path="url(#clip-path-2)">
        <path id="Path_181962" data-name="Path 181962" d="M0,57.066q0-4,0-7.991A9.56,9.56,0,0,1,5.787,39.75,51.526,51.526,0,0,1,16.428,36.4,140.937,140.937,0,0,1,42.891,33.24c9.373-.4,18.759-.487,28.115-1.281a30.268,30.268,0,0,1,9.378.692c7.8,1.8,6.559,5.349,6.678,14.6-.33,4.909-.62,9.958-1.1,13.1a69.349,69.349,0,0,1,9.441-2.3,42.7,42.7,0,0,1,49.32,29.592c2.749,11.468-.353,23.326-10.8,31.561-7.483,5.9-11.184,7.677-21.7,8.656-1.8-.474-4.25.573-6.02,0a2.482,2.482,0,0,0-2.362.377A97.364,97.364,0,0,0,90.106,139.7c-.844.815-1.653,1.667-2.524,2.452-1.209,1.09-2.124.934-3.02-.4-1.408-2.095.44-4.456.643-6.912a75.4,75.4,0,0,1,1.516-8.977c.227-1.166-2.015-2.762-3.146-3.485-9.844-6.291-15.613-15.2-16.8-26.9-.152-1.5-.529-2.02-2.084-1.747-1.894.332-9.992-.956-11.9-1.156-1.448-.153-1.57.442-1.32,1.624.738,3.49,1.361,4.215,2.1,7.7.225,1.06.449,1.807,1.189,5.253.536,1.966,2.331,4.01,1.667,5.565-.458,1.072-1.637,1.071-2.857.169q-6.235-4.61-12.465-9.227c-2.442-1.807-4.935-3.549-7.307-5.443a4.368,4.368,0,0,0-3.516-.95,91.324,91.324,0,0,1-14.67.857,25.971,25.971,0,0,1-4.441-.481C6.613,96.621,3.582,92.972,2.85,87.646,1.455,77.5.7,67.3,0,57.066m51.473,49.909c-.183-.731-.262-1.138-.387-1.53-1.278-4-2.543-8.014-3.855-12.008-.836-2.546-.333-3.307,2.4-3.282,2.771.024,5.542.118,8.313.2a59.1,59.1,0,0,0,7.669-.047c.853-.087,1.126-.445,1.225-1.292A35.3,35.3,0,0,1,80.492,64.6a2.609,2.609,0,0,0,1.129-1.95c.312-3.02.825-6.02,1.1-9.042.436-4.822,1.121-9.64.463-14.507a3.1,3.1,0,0,0-2.747-3.007,34.1,34.1,0,0,0-8.738-.716c-7.82.548-15.65.814-23.482,1.078a186.832,186.832,0,0,0-23.575,1.856A79.314,79.314,0,0,0,7.949,42.492C4.758,43.755,3.261,46,3.4,49.546c.486,12.307,1.092,24.6,2.677,36.826.754,5.82,3.089,7.957,8.941,8.319a60.131,60.131,0,0,0,8.149-.14A57.9,57.9,0,0,0,31.1,93.67a3.264,3.264,0,0,1,3.044.536c4.606,3.451,9.251,6.849,13.884,10.263,1.057.779,2.124,1.546,3.448,2.507m38.357,27.871c.675.018.931-.454,1.261-.762A86.739,86.739,0,0,1,103,124.695a3.217,3.217,0,0,1,2.377-.588,29.838,29.838,0,0,0,14.767-1.646c18.609-6.693,26.269-27.041,16.432-43.6C128.8,65.789,111.584,58.223,95.948,61.421c-11.879,2.43-20.393,9.29-24.264,20.983-3.9,11.788-1.2,22.363,6.994,31.577a31.543,31.543,0,0,0,10.126,7.4c2.535,1.215,2.689,1.7,2.453,4.493-.256,3.019-.883,5.978-1.426,8.977" transform="translate(0 -18.239)"/>
        <path id="Path_181963" data-name="Path 181963" d="M237.936,31.91a1.78,1.78,0,0,1,.96-1.551q4.586-3.037,9.18-6.063a1.6,1.6,0,0,1,2.488.421,1.675,1.675,0,0,1-.671,2.463c-3.057,2.024-6.1,4.071-9.2,6.038a1.674,1.674,0,0,1-2.762-1.309" transform="translate(-136.233 -13.679)"/>
        <path id="Path_181964" data-name="Path 181964" d="M220.527,11.522c.477-3.316.932-6.636,1.442-9.947A1.628,1.628,0,0,1,223.844.018a1.649,1.649,0,0,1,1.507,2.059c-.469,3.317-.984,6.628-1.486,9.94a1.609,1.609,0,0,1-1.841,1.574c-1.145-.126-1.6-.938-1.5-2.069" transform="translate(-126.258 0)"/>
        <path id="Path_181965" data-name="Path 181965" d="M246.464,60.92c-1.1.1-1.929-.289-2.076-1.455s.566-1.779,1.652-1.924c2.049-.272,4.1-.527,6.159-.719a1.7,1.7,0,1,1,.424,3.372c-2.044.3-4.1.492-6.159.725" transform="translate(-139.917 -32.528)"/>
        <path id="Path_181966" data-name="Path 181966" d="M78.417,60.869c4.6.088,8.412,1.741,10.994,5.7a8.486,8.486,0,0,1-.443,10.275c-2.165,2.8-5.16,4.392-8.377,5.637-1.092.423-2.22.757-3.292,1.221-1.854.8-2.181,1.614-1.569,3.548.289.913.583,1.826.831,2.751a5.175,5.175,0,0,1-.08,3,1.57,1.57,0,0,1-1.819,1.211,1.494,1.494,0,0,1-1.427-1.639,13.871,13.871,0,0,0-.809-4.692c-.969-3.817.147-6,3.813-7.429,1.388-.541,2.8-1.019,4.188-1.564a16.868,16.868,0,0,0,3.516-1.879c2.041-1.431,3.788-3.16,3.539-5.859-.27-2.913-2.134-4.82-4.722-5.976-3.756-1.677-7.4-.9-10.965.7-2.049.918-2.91.869-3.44-.274s0-1.885,2.04-2.829a18.649,18.649,0,0,1,8.024-1.9" transform="translate(-39.027 -34.851)"/>
        <path id="Path_181967" data-name="Path 181967" d="M80.918,151.135a2.8,2.8,0,1,1,3.069-2.783,2.89,2.89,0,0,1-3.069,2.783" transform="translate(-44.674 -83.332)"/>
        <path id="Path_181968" data-name="Path 181968" d="M252.066,123.645c-.152.23-.318.5-.5.758A197.5,197.5,0,0,0,235.2,152.135c-.2.414-.214,1.613-1.172.876-.7-.538-2.171-.649-1.494-2.274a170.73,170.73,0,0,0,6.229-17.914c1.234-4.235,2.344-8.506,3.452-12.776.257-.99.518-1.335,1.568-.786,2.4,1.257,4.87,2.387,7.3,3.591.358.177.848.228.987.793" transform="translate(-133.039 -68.135)"/>
        <path id="Path_181969" data-name="Path 181969" d="M222.673,209.343a3.8,3.8,0,0,1-3.907-3.6,3.882,3.882,0,0,1,7.758-.056,3.781,3.781,0,0,1-3.851,3.654" transform="translate(-125.257 -115.649)"/>
      </g>
    </g>
  </g>
</svg>
