<svg xmlns="http://www.w3.org/2000/svg" xmlns:xlink="http://www.w3.org/1999/xlink" width="263.611" height="183.971" viewBox="0 0 263.611 183.971">
  <defs>
    <clipPath id="clip-path">
      <rect id="Rectangle_26705" data-name="Rectangle 26705" width="263.611" height="183.971" fill="#f5f6fa"/>
    </clipPath>
    <clipPath id="clip-path-2">
      <rect id="Rectangle_26713" data-name="Rectangle 26713" width="98.708" height="126.168" fill="none"/>
    </clipPath>
  </defs>
  <g id="Group_101501" data-name="Group 101501" transform="translate(-56.635 -197)">
    <g id="Group_101468" data-name="Group 101468" transform="translate(56.635 197)">
      <g id="Group_101467" data-name="Group 101467" transform="translate(0 0)" clip-path="url(#clip-path)">
        <path id="Path_181900" data-name="Path 181900" d="M11.893,28.161A31.6,31.6,0,0,1,44.963.039c12.311.593,23.7,6.291,34.929,11.38,32.779,14.871,70.778,25.4,104.346,12.4,13.355-5.173,26.088-14.032,40.4-13.382A31.907,31.907,0,0,1,253.551,51.82c-5.564,17.979-24.483,27.841-29.519,46.241-1.9,6.949-1.13,15.034,3.7,20.385,3.257,3.612,7.9,5.573,12.169,7.907,7.788,4.256,16.514,10.737,21.224,18.46,2.094,3.437,3.188,7.7,1.993,11.543a16.186,16.186,0,0,1-4.926,6.961c-21.4,19.219-58.784,15.684-85.26,17.947-30.021,2.568-60.24,3.77-90.32,1.53C61.6,181.23,40.2,177.82,21.826,167.519,10.185,161-.815,149.81.048,136.5c.658-10.173,7.981-18.454,14.313-26.441,9.618-12.139,18.08-27.746,13.4-42.507-2.942-9.28-10.627-16.4-14.014-25.521a30.986,30.986,0,0,1-1.851-13.866" transform="translate(0 0)" fill="#f5f6fa"/>
      </g>
    </g>
    <g id="Group_101485" data-name="Group 101485" transform="translate(138.487 244.224)">
      <g id="Group_101484" data-name="Group 101484" clip-path="url(#clip-path-2)">
        <path id="Path_181957" data-name="Path 181957" d="M71.8,0a3.726,3.726,0,0,0,1.577.184c4.681.131,9.362.223,14.044.072a15.785,15.785,0,0,1,3.3.309,6.2,6.2,0,0,1,5.2,4.8,49.589,49.589,0,0,1,1.43,11.709c.481,14.9,1.234,29.8,1.342,44.711.06,8.34-.162,16.68-.794,25a98.871,98.871,0,0,1-2.238,15.585,16.565,16.565,0,0,1-3.825,7.748c-2.548,2.707-5.9,3.68-9.416,4.017a277.617,277.617,0,0,1-34.472.656c-6.652-.191-13.3-.366-19.955-.593-.886-.03-1.08.258-1.122,1.087q-.187,3.694-.22,7.389c-.012,1.335.048,2.966-1.569,3.418-1.58.442-2.248-1.021-2.965-2.093-.63-.941-1.171-1.941-1.79-2.98a16.03,16.03,0,0,0-1.837,2.95c-.513.758-.888,1.892-1.991,1.758-1.207-.148-1.109-1.408-1.265-2.273a38.829,38.829,0,0,1-.3-7.373c.025-2.192-.065-2.322-2.206-2.77-1.2-.252-2.434-.408-3.613-.745-4.641-1.329-6.8-4.07-7.332-9.335A333.564,333.564,0,0,1,.042,63.98C.273,49.894.684,35.81,1.057,21.727a43.338,43.338,0,0,1,.683-6.978C3.2,7.065,7.227,3.087,14.979,1.985A174.513,174.513,0,0,1,36.7.235,20.483,20.483,0,0,0,41.232,0ZM16.339,50.76c-.069,14.488.229,28.411.338,42.335a29.288,29.288,0,0,0,.264,3.93c.112.781.415.9,1.13.755a23.053,23.053,0,0,1,5.022-.438c10.224.141,20.438.784,30.671.551,6.118-.14,12.241-.107,18.361-.1.917,0,1.2-.271,1.228-1.165.047-1.31.319-2.611.381-3.92.514-10.871,1.1-21.741,1.476-32.617.587-16.83,1.033-33.664,1.526-50.5.054-1.846,0-3.695.035-5.542.01-.6-.144-.871-.817-.882-2.217-.037-4.433-.221-6.649-.2q-12.878.1-25.754.287A215.023,215.023,0,0,0,17.012,4.917c-1.165.16-1.433.522-1.342,1.687.235,3.028.4,6.07.395,9.107,0,11.872-.081,23.743.274,35.05M6.2,106.769c.812-3.967,3.305-6.212,6.726-7.6.758-.308,1.8-.355,2.237-.9.5-.628-.1-1.636-.11-2.5-.039-4.8-.152-9.608-.2-14.412-.234-25.091-.73-50.18-.281-75.274,0-.2-.032-.4-.057-.68-4.03.881-7.269,2.687-8.8,6.719a30.477,30.477,0,0,0-1.734,10.39c-.149,8.622-.263,17.244-.51,25.866C2.953,66.692,2.9,85,4.991,103.247A6.8,6.8,0,0,0,6.2,106.769M86.32,52.752c-.009,4.205.108,10.9-.116,17.592-.29,8.66-.538,17.322-.84,25.982-.032.935.133,1.283,1.179,1.209a54.124,54.124,0,0,1,5.663-.082c.933.031,1.172-.339,1.3-1.162.474-3.125.881-6.254,1.1-9.411.533-7.827.978-15.656.773-23.506-.175-6.733-.351-13.465-.406-20.2-.091-11.007-.45-22.007-1.23-32.988-.353-4.973-2.02-6.612-6.807-6.893a.807.807,0,0,1-.123-.009c-.772-.171-.972.15-.97.91.007,2.587-.153,5.176-.086,7.76.329,12.768.513,25.538.571,40.8m-2.053-3.557c.418-13.576-1.078-29.34.082-45.1.057-.774-.276-.878-.92-.86-1.4.04-2.793.061-4.187.008-.757-.029-.877.277-.85.942.057,1.393.063,2.791.032,4.186-.311,13.917-.577,27.836-.967,41.751-.437,15.6-.827,31.195-2.055,46.755-.062.792.2.9.859.878,1.929-.055,3.862-.135,5.789-.073,1.07.034,1.272-.387,1.3-1.346.433-14.982,1.072-29.959.918-47.14M47.024,99.829c-7.028.355-14.049.061-21.071-.139a38.472,38.472,0,0,0-9.558.674c-2.99.67-5.712,1.843-7.481,4.542a2.542,2.542,0,0,0-.321,2.881,5.149,5.149,0,0,0,4.571,2.651c1.46.019,2.121-.77,1.875-2.205-.138-.807-.392-1.6-.519-2.4-.246-1.568.422-2.646,1.978-2.832,2.685-.321,5.388-.532,8.089-.677,1.393-.075,2.089.616,2.4,1.975a14.932,14.932,0,0,1,.133,3.929c-.094,2.669-.1,2.65,2.607,2.753,13.671.52,27.339,1.156,41.026.7,1.957-.065,1.693.247,1.772-1.82.109-2.873.165-5.751.393-8.615.088-1.1-.034-1.455-1.249-1.447-8.216.057-16.432.03-24.648.03M17.155,122.26l.245.077c.242-.447.475-.9.729-1.339a16.141,16.141,0,0,1,.9-1.466c1.171-1.6,1.85-1.586,2.912.075.8,1.249,1.552,2.528,2.493,4.068.145-2.532.3-4.729.391-6.928.138-3.4.287-6.8.32-10.2.017-1.752-.542-2.2-2.265-2.075-1.755.126-3.5.354-5.257.5-.83.068-1.186.433-1.044,1.271a56.6,56.6,0,0,1,.309,7.73q.132,4.146.266,8.293m57.367-15.471c0,1.272.036,2.546-.015,3.816-.028.7.178.943.895.877,1.961-.18,3.926-.371,5.893-.427,1.089-.032,1.4-.514,1.417-1.491.049-3,.057-6,.4-8.978.077-.664-.171-.859-.811-.845-2.135.047-4.271.079-6.406.057-.745-.007-.845.346-.907.966-.2,2-.3,4.012-.47,6.024m10.354,3.594a8.577,8.577,0,0,0,6.328-5.17,31.791,31.791,0,0,0,1.477-4.816c.134-.546.092-.843-.593-.824-2.011.055-4.024.077-6.036.084-.568,0-.814.222-.837.789-.137,3.277-.447,6.547-.338,9.937" transform="translate(0)"/>
        <path id="Path_181958" data-name="Path 181958" d="M105.94,76.113c4.188,0,8.375.025,12.563-.012,1.679-.015,3.357-.178,5.037-.253a8.466,8.466,0,0,1,2.2.188c2.434.532,3.542,1.525,3.564,3.978.028,3.068.488,6.147-.046,9.213a5.818,5.818,0,0,1-4.9,4.862,156.373,156.373,0,0,1-16.2,1.249,141.405,141.405,0,0,1-20.3-.511c-2.975-.331-4.363-1.7-4.59-4.658a37.542,37.542,0,0,1,.054-7.99c.45-3.289,1.935-4.847,5.164-5.582a31.353,31.353,0,0,1,6.856-.546c3.531-.019,7.062,0,10.594,0v.066m1.331,1.772c-2.665,0-7.388-.041-12.11.017a18.55,18.55,0,0,0-7.129,1.114,3.95,3.95,0,0,0-2.675,3.38,45.535,45.535,0,0,0-.146,6.891c.13,2.5,1.41,3.683,3.906,3.836a233.433,233.433,0,0,0,32.611-.553c4.281-.336,5.791-1.993,5.758-6.325-.014-1.763-.153-3.526-.285-5.286a3.11,3.11,0,0,0-3.217-3.013c-4.885.041-9.77.323-16.713-.061" transform="translate(-57.432 -52.422)"/>
        <path id="Path_181959" data-name="Path 181959" d="M120.044,116.989c4.393.093,8.787-.4,13.181.013.613.058,1.225.128,1.837.2.363.041.815.028.769.56-.035.408-.407.447-.749.473-1.187.089-2.374.272-3.56.265-8.3-.052-16.6.082-24.893-.284a.959.959,0,0,1-.123-.005c-.453-.078-1.2.141-1.2-.5,0-.689.752-.431,1.191-.467,4.511-.368,9.033-.2,13.551-.249" transform="translate(-72.788 -80.759)"/>
        <path id="Path_181960" data-name="Path 181960" d="M119.678,94.041c-4.388-.11-8.776-.06-13.159-.346-.245-.016-.493-.01-.737-.036-.3-.032-.608-.131-.584-.489s.332-.425.635-.441c1.024-.055,2.047-.146,3.071-.155,8.036-.067,16.071-.3,24.108-.1.694.018,1.386.144,2.079.211.348.033.695.1.673.534s-.384.446-.722.491a54.522,54.522,0,0,1-7.367.329c-2.665-.008-5.331,0-8,0" transform="translate(-72.715 -63.866)"/>
        <path id="Path_181961" data-name="Path 181961" d="M119.2,106.309c-4.31-.193-8.624-.026-12.928-.377-.386-.032-1.01.1-1.024-.414-.018-.626.66-.5,1.064-.515,2.174-.1,4.349-.2,6.524-.22q9.238-.1,18.477-.132c1.186,0,2.373.166,3.559.262.412.033.946.058.93.58s-.582.493-.974.542a65.471,65.471,0,0,1-8.977.281c-2.216-.032-4.433-.006-6.65-.006" transform="translate(-72.747 -72.338)"/>
      </g>
    </g>
  </g>
</svg>
