<svg xmlns="http://www.w3.org/2000/svg" xmlns:xlink="http://www.w3.org/1999/xlink" width="263.611" height="183.971" viewBox="0 0 263.611 183.971">
  <defs>
    <clipPath id="clip-path">
      <rect id="Rectangle_26705" data-name="Rectangle 26705" width="263.611" height="183.971" fill="#f5f6fa"/>
    </clipPath>
    <clipPath id="clip-path-2">
      <rect id="Rectangle_26721" data-name="Rectangle 26721" width="94.709" height="128.657" fill="none"/>
    </clipPath>
  </defs>
  <g id="Group_101514" data-name="Group 101514" transform="translate(-56 -197)">
    <g id="Group_101502" data-name="Group 101502">
      <g id="Group_101488" data-name="Group 101488" transform="translate(56 197)">
        <g id="Group_101467" data-name="Group 101467" transform="translate(0 0)" clip-path="url(#clip-path)">
          <path id="Path_181900" data-name="Path 181900" d="M11.893,28.161A31.6,31.6,0,0,1,44.963.039c12.311.593,23.7,6.291,34.929,11.38,32.779,14.871,70.778,25.4,104.346,12.4,13.355-5.173,26.088-14.032,40.4-13.382A31.907,31.907,0,0,1,253.551,51.82c-5.564,17.979-24.483,27.841-29.519,46.241-1.9,6.949-1.13,15.034,3.7,20.385,3.257,3.612,7.9,5.573,12.169,7.907,7.788,4.256,16.514,10.737,21.224,18.46,2.094,3.437,3.188,7.7,1.993,11.543a16.186,16.186,0,0,1-4.926,6.961c-21.4,19.219-58.784,15.684-85.26,17.947-30.021,2.568-60.24,3.77-90.32,1.53C61.6,181.23,40.2,177.82,21.826,167.519,10.185,161-.815,149.81.048,136.5c.658-10.173,7.981-18.454,14.313-26.441,9.618-12.139,18.08-27.746,13.4-42.507-2.942-9.28-10.627-16.4-14.014-25.521a30.986,30.986,0,0,1-1.851-13.866" transform="translate(0 0)" fill="#f5f6fa"/>
        </g>
      </g>
    </g>
    <g id="Group_101512" data-name="Group 101512" transform="translate(140.146 236.657)">
      <g id="Group_101511" data-name="Group 101511" clip-path="url(#clip-path-2)">
        <path id="Path_182010" data-name="Path 182010" d="M50.266,16.624c3.375-4.081,6.7-7.618,11.253-9.509,6.72-2.789,13.5-3.084,19.55,1.48,2.539,1.915,4.367,4.237,8.115,4.209,2.485-.018,3.844,2.7,4.629,5.044,2.034,6.08.46,11.53-3.281,16.45-.917,1.206-1.52,1.773.148,2.955,2.369,1.678,2.934,4.487,3.15,7.209.4,5.031-.06,10.072-.092,15.11-.012,2.018-1.394,2.254-3.062,2.1-3.047-.281-3.011-.247-2.607,2.769,1.772,13.239,3.391,26.482,3.778,39.866.162,5.562-.135,11.087-.218,16.628-.043,2.86-.663,3.376-3.6,3.382-8.764.018-17.529-.075-26.291.036-14.9.189-29.78.779-44.384,4.171-1.94.451-2.986-.238-3.155-2.188-.372-4.288-.775-8.576-1.041-12.871-.914-14.744-.122-29.487.124-44.228.024-1.436-.258-2.075-1.748-1.938-.725.066-1.461,0-2.19.031-1.7.074-2.655-.72-2.688-2.427-.11-5.693-.087-11.389-.619-17.067a1.835,1.835,0,0,1,1.415-2.174c1.78-.425,1.1-1.081.372-2.03a36.848,36.848,0,0,1-7.815-21.7C-.348,10.845,9.9.474,20.974.034c4.311-.171,8.468.243,12.291,2.413a1.74,1.74,0,0,0,1.992-.072c3.53-2.033,7.078-1.4,9.849,1.65,3.12,3.433,4.5,7.608,5.159,12.6M75.875,120.585c1.168,0,2.336,0,3.5,0s2.335-.006,3.5-.017c4.984-.046,4.977-.047,5.094-5.134a251.174,251.174,0,0,0-1.389-30.805c-.706-7.036-1.733-14.04-2.593-21.061-.183-1.5-.735-2.344-2.457-2.4A144.457,144.457,0,0,0,58.4,62.418c-1.343.172-1.674.671-1.5,1.989.425,3.253.778,6.52,1,9.792,1.037,14.946,4.081,29.613,6.064,44.427a1.928,1.928,0,0,0,2.278,1.974c3.21-.059,6.422-.018,9.634-.016M41.629,29.3A31.594,31.594,0,0,0,40.095,17.54C38.07,11.415,34.843,6.134,28.316,4.086,14.892-.124,1.123,12.078,3.473,24.972c1.177,6.459,2.754,12.7,7.356,17.712.971,1.057,2.039,1.884,3.616,1.6,2.082-.373,4.165-.748,6.256-1.065,1.387-.21,1.788-.846,1.051-2.075-.938-1.563-1.81-3.173-2.863-4.654a36.4,36.4,0,0,0-6.678-7.2c-.562-.458-1.173-1.066-.628-1.861s1.305-.439,1.953-.08a19.1,19.1,0,0,1,1.838,1.185,33.43,33.43,0,0,1,9.935,11.769,2.938,2.938,0,0,0,3.48,1.81c3.173-.477,6.356-.907,9.549-1.214a2.2,2.2,0,0,0,2.2-1.965A29.593,29.593,0,0,0,41.629,29.3M15.814,79.963h.516c0,8.323-.168,16.651.057,24.969.161,5.976.443,11.963,1.153,17.915.138,1.158.412,1.732,1.752,1.47a156.248,156.248,0,0,1,16.23-2.479c1.273-.113,1.884-.729,1.849-2.161-.268-10.8-.422-21.612-.7-32.416-.171-6.64-.54-13.275-.722-19.915-.046-1.7-.616-2.391-2.342-2.222-5.226.512-10.492.6-15.667,1.663-1.459.3-2.175.875-2.147,2.439.064,3.578.02,7.158.02,10.737m29.511,41.153a109.236,109.236,0,0,1,13.049-.473c1.689.011,2.226-.681,1.983-2.256-.223-1.44-.4-2.889-.574-4.336-1.232-10.132-3.474-20.118-4.328-30.305-.5-5.955-1.1-11.9-1.668-17.852-.258-2.693-.4-2.785-3.075-2.471-2.9.34-5.8.636-8.688,1.008-3,.386-3.051.419-2.919,3.521.61,14.275,1.57,28.535,1.891,42.824.062,2.766.207,5.537.2,8.305,0,1.493.587,2.168,2.091,2.041.58-.048,1.166-.008,2.034-.008M62.87,38.195c4.159-.347,7.848-.644,11.535-.971a3.03,3.03,0,0,0,2.073-1.476A28.338,28.338,0,0,0,82.234,22.2C83.41,13.611,77.985,7.926,69.488,8.681A18.1,18.1,0,0,0,59.25,12.708c-8.072,6.745-12.565,15.53-14.445,25.776-.274,1.49.473,1.612,1.573,1.5a58.294,58.294,0,0,1,7.392-.733c3.168.073,5.149-1.493,6.948-3.782a40,40,0,0,1,8.753-7.874c.741-.519,1.668-1.484,2.465-.463s-.444,1.664-1.055,2.294a76.979,76.979,0,0,0-8.011,8.773M55.746,48.956l-.132.01c.16,2.107.3,4.215.485,6.32.3,3.379.394,3.464,3.861,3a128.556,128.556,0,0,1,27.92-.851c.806.067,1.766.187,1.886-.936.513-4.78,1.147-9.573-.187-14.328-.536-1.909-1.788-2.651-3.788-2.446-9.277.952-18.556,1.884-27.844,2.728-2.2.2-2.927,1.106-2.451,3.239a21.837,21.837,0,0,1,.25,3.267m-19.9,4.184h-.009c0-2.115-.045-4.231.015-6.345.043-1.5-.648-1.921-2.024-1.724-7.431,1.067-14.882,2-22.267,3.377-1.343.251-1.955.86-1.778,2.2a105.7,105.7,0,0,1,.4,11.58c.042,1.933,1.022,2.556,2.878,1.791a18.046,18.046,0,0,1,3.143-.892c5.867-1.262,11.85-1.5,17.8-2.018,1.4-.122,1.909-.694,1.858-2.064-.072-1.966-.018-3.938-.018-5.907m16.724-4.982c.057-.933.08-1.664.148-2.389.231-2.492.024-2.745-2.369-2.493-3.411.359-6.811.834-10.226,1.131-1.539.134-1.971.84-1.9,2.263.192,4.01.357,8.023.43,12.036.029,1.6.771,2.047,2.2,1.877,3.405-.405,6.808-.846,10.221-1.169,1.65-.156,2.032-1.01,1.932-2.492-.2-2.984-.3-5.976-.432-8.764M81.34,35.634a5.271,5.271,0,0,0,.995-.007C89.427,33.994,94.1,23.056,90.4,16.74a3.677,3.677,0,0,0-2.691-2.018c-1.424-.2-2.229.1-1.941,1.858a24.285,24.285,0,0,1-2.09,14.043c-.732,1.638-1.515,3.253-2.337,5.011M45.318,22.94a4.473,4.473,0,0,0,.6-.7c2.023-4.484-.006-13.436-3.77-16.674a4.881,4.881,0,0,0-3.781-1.418c-.5.053-1.1.035-1.359.547-.3.6.288.912.608,1.264a25.346,25.346,0,0,1,5.409,9.178c.822,2.48,1.483,5.014,2.3,7.8" transform="translate(0 0)"/>
        <path id="Path_182011" data-name="Path 182011" d="M147.734,144.591c-.2.346-.324.61-.488.847-1.452,2.094-2.9,4.189-4.373,6.269-.433.611-.974,1.226-1.8.68-.7-.466-.511-1.2-.117-1.747a49.461,49.461,0,0,1,5.027-6.3c.363-.362.815-.7,1.355-.409.2.108.277.449.395.659" transform="translate(-78.969 -80.778)"/>
        <path id="Path_182012" data-name="Path 182012" d="M66.531,152.513a5.4,5.4,0,0,1-.483.758c-1.459,1.608-2.919,3.215-4.406,4.8-.5.532-1.12,1.119-1.856.452-.676-.614-.367-1.3.146-1.917,1.437-1.722,2.788-3.534,4.778-4.686.783-.454,1.5-.552,1.82.6" transform="translate(-33.361 -85.145)"/>
      </g>
    </g>
  </g>
</svg>
