<svg xmlns="http://www.w3.org/2000/svg" xmlns:xlink="http://www.w3.org/1999/xlink" width="263.611" height="183.971" viewBox="0 0 263.611 183.971">
  <defs>
    <clipPath id="clip-path">
      <rect id="Rectangle_26705" data-name="Rectangle 26705" width="263.611" height="183.971" fill="#f5f6fa"/>
    </clipPath>
    <clipPath id="clip-path-2">
      <rect id="Rectangle_26711" data-name="Rectangle 26711" width="118.357" height="122.897" fill="none"/>
    </clipPath>
  </defs>
  <g id="Group_101498" data-name="Group 101498" transform="translate(-56.635 -197)">
    <g id="Group_101468" data-name="Group 101468" transform="translate(56.635 197)">
      <g id="Group_101467" data-name="Group 101467" transform="translate(0 0)" clip-path="url(#clip-path)">
        <path id="Path_181900" data-name="Path 181900" d="M11.893,28.161A31.6,31.6,0,0,1,44.963.039c12.311.593,23.7,6.291,34.929,11.38,32.779,14.871,70.778,25.4,104.346,12.4,13.355-5.173,26.088-14.032,40.4-13.382A31.907,31.907,0,0,1,253.551,51.82c-5.564,17.979-24.483,27.841-29.519,46.241-1.9,6.949-1.13,15.034,3.7,20.385,3.257,3.612,7.9,5.573,12.169,7.907,7.788,4.256,16.514,10.737,21.224,18.46,2.094,3.437,3.188,7.7,1.993,11.543a16.186,16.186,0,0,1-4.926,6.961c-21.4,19.219-58.784,15.684-85.26,17.947-30.021,2.568-60.24,3.77-90.32,1.53C61.6,181.23,40.2,177.82,21.826,167.519,10.185,161-.815,149.81.048,136.5c.658-10.173,7.981-18.454,14.313-26.441,9.618-12.139,18.08-27.746,13.4-42.507-2.942-9.28-10.627-16.4-14.014-25.521a30.986,30.986,0,0,1-1.851-13.866" transform="translate(0 0)" fill="#f5f6fa"/>
      </g>
    </g>
    <g id="Group_101481" data-name="Group 101481" transform="translate(127.966 250.571)">
      <g id="Group_101480" data-name="Group 101480" clip-path="url(#clip-path-2)">
        <path id="Path_181945" data-name="Path 181945" d="M90.506,122.9c-2.62-.583-4.161-2.375-5.239-4.681-1.826-3.909-3.67-7.809-5.453-11.738a1.486,1.486,0,0,0-1.609-1.02c-12.043.092-24.085.033-36.124-.323-11-.325-21.975-.978-32.923-2.1a19.019,19.019,0,0,1-5.964-1.162A5.012,5.012,0,0,1,.278,98.3,10.17,10.17,0,0,1,0,95.684Q.259,53.015.513,10.346a11.392,11.392,0,0,1,.52-3.668A6.724,6.724,0,0,1,5.981,2.388a23.075,23.075,0,0,1,5.943-.677C42.284,1.1,72.635.071,103.007.222c2.118.01,4.236-.144,6.354-.218A11.683,11.683,0,0,1,112.446.4a6.682,6.682,0,0,1,5.432,6.084c.41,3.429.065,6.873.154,10.312q.844,32.406-.437,64.8c-.243,6.395-.515,12.791-.908,19.177a5.276,5.276,0,0,1-6.095,4.954c-2.468-.237-4.943-.391-7.416-.576a2.583,2.583,0,0,0-.462.074c.871,1.266,1.724,2.453,2.522,3.676,1.625,2.492,1.56,4.571-.415,6.774a22,22,0,0,1-11.727,7.041,2.434,2.434,0,0,0-.427.185ZM7.929,52.316H7.294q0,17.04,0,34.08a37.423,37.423,0,0,0,1.346,11.5,6.178,6.178,0,0,0,5.1,3.886c2.314.159,4.625.348,6.937.527,11.889.924,23.8,1.312,35.72,1.441.7.008.931-.127.961-.9q.594-14.866,1.292-29.729c.052-1.089-.106-1.34-1.249-1.1-9.461,1.968-18.629,1.153-27.274-3.349A25.916,25.916,0,0,1,16.068,49.479c-1.325-7.133-.082-13.909,2.808-20.458a22.173,22.173,0,0,1,3.685-6.411,48.75,48.75,0,0,1,12.26-10.095A33.046,33.046,0,0,1,50.713,8.164a35.1,35.1,0,0,1,9.458,1.364c.669.184,1.03.236.949-.689-.149-1.712-.248-3.435-.229-5.152.013-1.186-.435-1.4-1.549-1.376-14.675.374-29.351.744-44.029.975a5.741,5.741,0,0,0-4.78,2.37A8.969,8.969,0,0,0,9.2,8.058c-1.237,3.251-1.257,6.661-1.265,10.058-.028,11.4-.01,22.8-.01,34.2M111.29,54.727h.235c0-3.119-.049-6.239.009-9.357.2-10.8.458-21.594.657-32.391a15.883,15.883,0,0,0-1.755-8.228c-1.067-1.909-2.278-3.64-4.928-2.9a1.646,1.646,0,0,1-.6.026c-.7-.071-.96.177-.977.932-.127,5.438-.3,10.874-.463,16.312q-.476,16.011-.952,32.022c-.014.491-.015.99-.567,1.208-.631.249-.954-.213-1.286-.614-.995-1.2-1.982-2.409-2.975-3.611-1.115-1.349-1.117-1.348-2.09.038q-1.068,1.521-2.138,3.042c-.3.426-.6.93-1.226.745-.711-.209-.626-.84-.6-1.4q.469-11.449.945-22.9.513-12.347,1.036-24.694c.029-.669.029-1.092-.894-1.079q-14.638.2-29.277.316c-.732.006-.968.223-.912.978.147,1.994.276,3.993.28,5.991a1.777,1.777,0,0,0,1.25,1.863,29.822,29.822,0,0,1,9.535,6.306c5.291,5.374,8.642,11.687,9.244,19.252C83.7,47.452,80.394,56.837,72.5,64.478c-.454.44-.561.743-.185,1.3,1.143,1.687,2.228,3.414,3.336,5.125a1.533,1.533,0,0,0,.773.7,9.629,9.629,0,0,1,4.433,3.543c6,8.241,12.107,16.412,17.883,24.809,1.817,2.641,3.8,3.826,6.9,3.751a3.756,3.756,0,0,0,3.431-1.711,6.337,6.337,0,0,0,1.12-3.243c.082-1.958.171-3.916.217-5.875q.449-19.073.879-38.147M93.084,120.468a12.408,12.408,0,0,0,9.977-5.274c1.437-1.939,1.779-3.77.187-5.751a11.541,11.541,0,0,1-.755-1.222c-6.82-11.082-15.015-21.184-22.6-31.722a10.2,10.2,0,0,0-3.307-2.917c-1.32-.743-2.683-1.1-4.073-.209a5.84,5.84,0,0,0-2.94,4.925,9.5,9.5,0,0,0,.893,4.3c2.581,5.622,5.207,11.225,7.827,16.829,2.671,5.712,5.378,11.409,8.026,17.132a6.345,6.345,0,0,0,6.762,3.906m-14.8-16.817c.073-.267-.086-.459-.183-.676-2.586-5.794-5.3-11.527-8.074-17.236a18.769,18.769,0,0,1-2.169-7.415,1.963,1.963,0,0,0-.281-.9c-1.325-2.185-2.67-4.358-4.016-6.531-.121-.195-.2-.442-.471-.507a2.877,2.877,0,0,0-2.7,2.008c-.455,10.1-.882,20.2-1.381,30.3-.049.991.263,1.086,1.09,1.082,5.715-.027,11.43-.008,17.146-.011a1.813,1.813,0,0,0,1.044-.118m15.14-55.76.209.095c.618-.869,1.229-1.743,1.856-2.605.776-1.067,1.188-1.093,2.036-.1,1.05,1.235,2.075,2.491,3.141,3.775a1.8,1.8,0,0,0,.234-1.237q.41-12.883.8-25.767c.191-6.312.357-12.625.574-18.936.031-.9-.145-1.28-1.145-1.223a33.843,33.843,0,0,1-4.553-.017c-1.117-.087-1.276.341-1.314,1.333-.326,8.626-.717,17.25-1.078,25.875q-.393,9.4-.759,18.8m-44.9,23.421a35.782,35.782,0,0,0,18.36-4.734c11.683-6.9,16.9-22.282,13.376-34.819a30.488,30.488,0,0,0-28.174-21.9A31.252,31.252,0,0,0,33.219,15.49c-11.369,7.672-17.25,18.146-15.677,32.1a24.267,24.267,0,0,0,13.308,19.6,37.261,37.261,0,0,0,17.673,4.127M6.749,4.068c-2.62.48-4.112,2-4.368,4.329A27.673,27.673,0,0,0,2.2,11.269q-.264,41.692-.507,83.384a14.717,14.717,0,0,0,.226,3.225,3.1,3.1,0,0,0,3.118,2.638,10.782,10.782,0,0,1-1.711-5.052,36.474,36.474,0,0,1-.182-4.549q.1-11.037.211-22.075.261-27.834.526-55.667c.033-3.247.558-6.376,2.868-9.105m3.188-.394A1.406,1.406,0,0,0,8.43,3.91,7.9,7.9,0,0,0,5.97,7.1C4.861,9.624,4.829,12.309,4.8,14.989q-.355,37.865-.695,75.729c-.01,1.16-.018,2.323.06,3.479.143,2.128.424,4.233,1.869,5.954a2.283,2.283,0,0,0,2.487,1,7.715,7.715,0,0,1-1.34-2.48,29.125,29.125,0,0,1-1.6-10.013c.042-5.721.112-11.442.166-17.162q.261-27.663.531-55.326c.049-4.473.431-8.891,3.65-12.5m100.71-1.749c.39.59.709,1.042,1,1.514A17.294,17.294,0,0,1,113.889,13c-.145,8.959-.358,17.917-.561,26.875q-.635,28.075-1.3,56.148a20.465,20.465,0,0,1-.415,4.529,10,10,0,0,1-1.788,3.269c1.354.594,1.868.1,2.225-1.106a46.086,46.086,0,0,0,1.715-12.556q.525-37.98.926-75.961a43.422,43.422,0,0,0-.948-10.012c-.437-1.947-.895-2.27-3.1-2.259m2.1,101.928a4.441,4.441,0,0,0,2.375-4.107c.85-19.056,1.518-38.115,1.559-57.194.024-11.2-.491-22.388-.328-33.586a17.7,17.7,0,0,0-.187-2.509,3.851,3.851,0,0,0-1.608-2.917c1.232,5.081,1.147,10.2,1.087,15.312-.228,19.313-.384,38.628-.711,57.94-.151,8.962.513,18.006-2.187,27.061M68.3,75.326a6.428,6.428,0,0,1,4.809-3.867c.626-.133.664-.367.284-.865a19.246,19.246,0,0,1-2.486-3.8c-.193-.435-.4-.618-.885-.27A29.328,29.328,0,0,1,65.3,69.336c-.458.214-.446.446-.208.824,1.04,1.651,2.063,3.313,3.213,5.166" transform="translate(0 0)"/>
        <path id="Path_181946" data-name="Path 181946" d="M77.269,87.552c-6.543-.122-13.141-1.521-19.01-5.5A23.17,23.17,0,0,1,47.921,65.728c-2.058-13.907,3.486-24.456,14.855-32.2a30.523,30.523,0,0,1,14.577-5.357A28.884,28.884,0,0,1,91.64,30.466a28.58,28.58,0,0,1,15.6,15.632,28.892,28.892,0,0,1,.674,20.411c-3.882,12.243-13.281,19.633-26.155,20.82-1.357.126-2.711.18-4.489.223m.5-.96c7.121-.116,13.85-1.607,19.477-6.089,8.728-6.951,12.1-16.28,10.882-27.212-1.5-13.412-13.331-23.841-27.467-24.266a29.591,29.591,0,0,0-17.273,5.237c-10.777,7-16.639,18.44-14.538,31.129a22.828,22.828,0,0,0,10.365,16.14c5.658,3.674,11.963,4.954,18.554,5.061" transform="translate(-29.144 -17.209)"/>
        <path id="Path_181947" data-name="Path 181947" d="M85.952,90.439a28.453,28.453,0,0,1-15.679-4.323c-6.094-3.993-9.067-9.8-9.33-16.94C60.56,58.775,65.327,51,73.8,45.348a24.617,24.617,0,0,1,15.157-4.414c12.569.627,22.66,10.3,23.37,22.309.522,8.822-2.409,16.3-9.391,21.883-4.911,3.926-10.748,5.289-16.988,5.314m24.762-24.092c.039-4.789-.709-8.322-2.489-11.58a22.866,22.866,0,0,0-30.316-9.783c-10.11,4.9-16.6,14.6-15.072,26.042a18.318,18.318,0,0,0,8.328,13.65,26.824,26.824,0,0,0,15.407,4.051c5.617-.075,10.875-1.431,15.348-4.943a22.9,22.9,0,0,0,8.794-17.437" transform="translate(-37.38 -25.097)"/>
      </g>
    </g>
  </g>
</svg>
