<svg xmlns="http://www.w3.org/2000/svg" xmlns:xlink="http://www.w3.org/1999/xlink" width="263.611" height="183.971" viewBox="0 0 263.611 183.971">
  <defs>
    <clipPath id="clip-path">
      <rect id="Rectangle_26705" data-name="Rectangle 26705" width="263.611" height="183.971" fill="#f5f6fa"/>
    </clipPath>
    <clipPath id="clip-path-2">
      <rect id="Rectangle_26715" data-name="Rectangle 26715" width="131.435" height="131.86" fill="none"/>
    </clipPath>
  </defs>
  <g id="Group_101502" data-name="Group 101502" transform="translate(-56 -197)">
    <g id="Group_101488" data-name="Group 101488" transform="translate(56 197)">
      <g id="Group_101467" data-name="Group 101467" transform="translate(0 0)" clip-path="url(#clip-path)">
        <path id="Path_181900" data-name="Path 181900" d="M11.893,28.161A31.6,31.6,0,0,1,44.963.039c12.311.593,23.7,6.291,34.929,11.38,32.779,14.871,70.778,25.4,104.346,12.4,13.355-5.173,26.088-14.032,40.4-13.382A31.907,31.907,0,0,1,253.551,51.82c-5.564,17.979-24.483,27.841-29.519,46.241-1.9,6.949-1.13,15.034,3.7,20.385,3.257,3.612,7.9,5.573,12.169,7.907,7.788,4.256,16.514,10.737,21.224,18.46,2.094,3.437,3.188,7.7,1.993,11.543a16.186,16.186,0,0,1-4.926,6.961c-21.4,19.219-58.784,15.684-85.26,17.947-30.021,2.568-60.24,3.77-90.32,1.53C61.6,181.23,40.2,177.82,21.826,167.519,10.185,161-.815,149.81.048,136.5c.658-10.173,7.981-18.454,14.313-26.441,9.618-12.139,18.08-27.746,13.4-42.507-2.942-9.28-10.627-16.4-14.014-25.521a30.986,30.986,0,0,1-1.851-13.866" transform="translate(0 0)" fill="#f5f6fa"/>
      </g>
    </g>
    <g id="Group_101491" data-name="Group 101491" transform="translate(122.556 235.249)">
      <g id="Group_101490" data-name="Group 101490" clip-path="url(#clip-path-2)">
        <path id="Path_181970" data-name="Path 181970" d="M3.023,23.6c-.259-.662-.507-1.323-.777-1.975-.595-1.434-.274-2.216,1.242-2.5A2.581,2.581,0,0,0,5.7,17.111C8.459,9.744,18.846,5.037,26.477,13.2c.881.944,1.62,1.327,2.8.926a3.009,3.009,0,0,1,.988-.155c1.266.019,1.469-.769,1.748-1.83,1.742-6.608,10-10.322,16.466-7.477a12.02,12.02,0,0,1,5.587,4.763,1.622,1.622,0,0,0,1.871.835c.964-.116.577-.864.669-1.327C57.372,5.1,61.854.99,66.193.2A12.253,12.253,0,0,1,79.432,6.836c.443.893.913,1.215,1.86.993a8.279,8.279,0,0,1,1.569-.136c1.06-.042,1.569.423,1.868,1.515,1.646,6.031,3.392,12.036,5.11,18.047a7.265,7.265,0,0,0,.324.759c.464-.331.885-.624,1.3-.927q12.56-9.183,25.12-18.365A8.943,8.943,0,0,1,127.5,8.577a9.333,9.333,0,0,1,3.608,10.137,7.87,7.87,0,0,1-3.165,4.458C117.592,30.719,107.266,38.3,96.9,45.827a1.937,1.937,0,0,0-.911,2.545q7.674,25.955,15.206,51.952a3.964,3.964,0,0,1,.277,2.51c-.54,1.611-1.3,2.727-3.266,2.8-1.753.061-3.485.577-5.239.772-1.029.115-1.248.529-1.077,1.489.694,3.9,1.346,7.813,1.984,11.725.259,1.6-.137,2.116-1.723,2.263-8.472.781-16.947,1.518-25.417,2.316q-14.559,1.371-29.056,3.289c-7.345.96-14.624,2.3-21.9,3.666a16.883,16.883,0,0,0-1.932.51c-1.97.618-3.377-.2-3.759-2.3-.513-2.819-.964-5.65-1.434-8.477-2.836-17.057-6.131-34.029-9.632-50.959C6.148,56.037,3.134,42.18.182,28.309c-.571-2.684.159-3.92,2.841-4.707m26.5-2.742a12.716,12.716,0,0,1-2.2,7.371,3.724,3.724,0,0,0-.728,2.083,3.286,3.286,0,0,1-3.615,2.919A3.251,3.251,0,0,1,19.7,30.106a3.011,3.011,0,0,1,3.2-3.127c1.789.226,2.244-.818,2.772-1.986a10.146,10.146,0,0,0,.635-5.761c-.151-1.045-.589-1.435-1.718-1.206q-8.916,1.8-17.858,3.482c-.984.186-1.039.552-.712,1.406,1.282,3.342,2.544,6.693,3.717,10.075,9.381,27.035,17.054,54.576,24.3,82.241.3,1.141.583,1.412,1.787,1.038a309.171,309.171,0,0,1,35.362-8.45q17.888-3.321,35.791-6.569c.817-.149,1.266-.232.945-1.321q-7.369-25-14.629-50.032c-.269-.925-.5-1.056-1.3-.461-2.673,2.012-5.405,3.945-8.087,5.945a8.549,8.549,0,0,1-2.8,1.387c-4.558,1.317-9.275,1.815-13.905,2.757-2.431.495-3.127-.258-2.478-2.665,1.212-4.492,3.32-8.637,4.983-12.955a4.712,4.712,0,0,1,1.745-2.188c5.032-3.646,10.028-7.341,15.057-10.991.649-.47.954-.85.69-1.735-1.705-5.718-3.338-11.458-5-17.188-.141-.486-.189-1.066-.978-.935-.745.123-.551.663-.546,1.1a12.411,12.411,0,0,1-2.334,7.533,1.94,1.94,0,0,0-.358,1.324,3.275,3.275,0,0,1-3.32,3.642A3.343,3.343,0,0,1,71.1,21.31c-.017-1.827,1.5-3.181,3.669-3.165a1.215,1.215,0,0,0,1.2-.533,10.145,10.145,0,0,0,1.707-5.536c.019-.68-.24-.917-.948-.846q-9.913,1-19.833,1.951c-.93.088-1.132.442-1.033,1.37A12.187,12.187,0,0,1,54.1,22.378a2.9,2.9,0,0,0-.528,2.346c.361,1.726-1.057,3.259-2.973,3.51a3.5,3.5,0,0,1-3.856-2.684,2.994,2.994,0,0,1,2.621-3.489,2.767,2.767,0,0,0,2.509-1.932,9.84,9.84,0,0,0,.97-5.425c-.08-.831-.37-.97-1.181-.866-6.872.885-13.718,1.934-20.553,3.06-2.062.34-2.053.338-1.717,2.469.089.564.1,1.141.131,1.491M14.475,57.113a2,2,0,0,0-.018,1.452q3.755,20.362,6.732,40.851,2.02,13.752,3.916,27.522c.141,1.028.535,1.134,1.376.965,5.245-1.05,10.523-1.916,15.81-2.723,10.441-1.592,20.929-2.809,31.437-3.833,8.656-.843,17.323-1.57,25.987-2.323.744-.065.963-.251.818-1.048-.59-3.242-1.123-6.494-1.624-9.75-.138-.9-.519-1.04-1.35-.877-7.5,1.472-15.011,2.84-22.495,4.37-13.376,2.733-26.66,5.885-39.94,9.048-2.161.515-2.8.12-3.339-2.048-4.229-16.855-8.961-33.571-13.862-50.24-1.1-3.741-2.263-7.463-3.449-11.366M74.918,43a8.011,8.011,0,0,1,3.012,1.849c.642.825,1.107.673,1.85.138,6.128-4.417,12.3-8.772,18.428-13.187,6.442-4.64,12.792-9.4,18.876-14.507.239-.2.776-.273.584-.795-.489-1.33-3.481-2.23-4.628-1.391Q96.6,27.125,80.161,39.151c-1.688,1.235-3.373,2.473-5.243,3.844m8.417,8.8a1.942,1.942,0,0,0,.463-.16q18.467-13.491,36.93-26.991c.312-.228.6-.433.6-.894a7.406,7.406,0,0,0-.61-3.491c-.488-.987-.859-1.348-1.924-.445-6.239,5.289-12.8,10.159-19.448,14.925C93.6,38.863,87.83,42.953,82.091,47.089c-.3.215-1.311.351-.581,1.063A6.605,6.605,0,0,1,83.334,51.8M59.715,9.749c5.513-.511,10.88-1.012,16.247-1.5,1-.092.447-.592.242-.942a9.515,9.515,0,0,0-9-4.194,9.242,9.242,0,0,0-7.489,6.64m-8.35,1.016C48.991,7.811,46.16,6.324,42.55,6.8c-3.734.49-6.155,2.726-7.636,6.335l16.45-2.369M80.308,52.933a3.106,3.106,0,0,0-2.248-3.347,2.144,2.144,0,0,1-1.426-1.281,4.071,4.071,0,0,0-2.575-2.3c-1.173-.508-1.921-.428-2.322.955a28.787,28.787,0,0,1-1.183,2.912,1.042,1.042,0,0,0,.025,1.168c3.03,4.453,3.016,4.462,8.3,3.132.185-.046.368-.1.556-.136.678-.113,1.017-.467.87-1.107M8.653,17.99l15.426-2.975c-2.361-2.251-4.91-3.362-7.918-2.94-3.457.485-5.877,2.467-7.508,5.915" transform="translate(0 0)"/>
        <path id="Path_181971" data-name="Path 181971" d="M115.025,159a18.092,18.092,0,0,1-5.769-1.009c-2.025-.563-2.756-.232-3.711,1.611-2.235,4.316-5.432,5.623-10.072,4.062-1.492-.5-2.926-1.174-4.422-1.663-1.589-.52-2.359-.167-3.23,1.27a1.585,1.585,0,0,0-.147.246c-2.319,6.129-8.628,6.563-13.358,4.658-2.343-.944-4.584-2.141-6.887-3.188a18.831,18.831,0,0,0-2.292-.815c-.957-.293-1.543-.878-1.29-1.895.28-1.124,1.173-1.289,2.164-1.03a26.141,26.141,0,0,1,4.9,1.99,24.767,24.767,0,0,0,6.468,2.652c3.209.576,5.876-.056,7.454-3.448,1.7-3.664,4.22-4.492,8.035-3.08a38.87,38.87,0,0,0,4.709,1.706c2.109.486,4.427-.257,5.086-2.545a7.057,7.057,0,0,1,.94-1.765c1.277-1.99,2.63-2.518,5.024-2.008a36.416,36.416,0,0,0,5.478,1.067,14.7,14.7,0,0,0,5.654-.7c1.016-.346,1.872-.224,2.236.834.4,1.153-.3,1.77-1.355,2.1a17.864,17.864,0,0,1-5.621.95" transform="translate(-32.569 -78.917)"/>
        <path id="Path_181972" data-name="Path 181972" d="M97.836,124.665c-1.385-.887-1.844.411-2.524,1.27-1.484,1.873-3.225,2.305-5.294,1.054-2.177-1.317-2.964-1.61-5.159.851-4.244,4.761-9.054,3.84-12.808,1.747-1.123-.626-2.189-1.36-3.263-2.07-.876-.579-1.265-1.364-.583-2.3.625-.856,1.45-.76,2.28-.239,1.213.76,2.387,1.6,3.66,2.239,2.537,1.279,5.572,1.841,8.278-1.292a13.18,13.18,0,0,1,2.019-1.82,5.056,5.056,0,0,1,6.135-.293c1.713,1.024,1.754,1,2.916-.578a4.18,4.18,0,0,1,4-2.034c1.575.185,2.514,1.8,1.708,2.858a1.516,1.516,0,0,1-1.361.605" transform="translate(-34.646 -61.867)"/>
      </g>
    </g>
  </g>
</svg>
