<svg xmlns="http://www.w3.org/2000/svg" xmlns:xlink="http://www.w3.org/1999/xlink" width="320.421" height="188.791" viewBox="0 0 320.421 188.791">
  <defs>
    <clipPath id="clip-path">
      <rect id="Rectangle_26706" data-name="Rectangle 26706" width="320.421" height="188.791" fill="#f5f6fa"/>
    </clipPath>
    <clipPath id="clip-path-2">
      <rect id="Rectangle_26717" data-name="Rectangle 26717" width="140.266" height="114.717" transform="translate(0 0)" fill="none"/>
    </clipPath>
  </defs>
  <g id="Group_101499" data-name="Group 101499" transform="translate(-27.863 -194.712)">
    <g id="Group_101470" data-name="Group 101470" transform="translate(27.863 194.712)">
      <g id="Group_101469" data-name="Group 101469" transform="translate(0 0)" clip-path="url(#clip-path)">
        <path id="Path_181901" data-name="Path 181901" d="M63.132,3.8S-14.81,26.066,2.513,123.181c0,0,12.37,84.128,106.394,61.86,45.85-18.785,96.671-25.51,144.666-13a47.064,47.064,0,0,0,5.641,1.224c13.846,1.831,33.724-4.538,45.458-11.955,5.468-3.454,10.437-7.982,13.1-13.993,4-9.033,3.862-17.975-3.1-25.053A126.883,126.883,0,0,1,287.446,80.6c-7.248-18.2-5.958-33.764-5.958-52.676,0,0-.617-40.2-42.68-24.123-15.207,5.814-28.573,15.909-44.4,21.152-22.549,7.466-47.018,10.581-66.881-5.419-3.408-2.742-6.49-5.9-10.078-8.4C103.389,1.3,79.436-.862,63.132,3.8" transform="translate(0.001 -0.001)" fill="#f5f6fa"/>
      </g>
    </g>
    <g id="Group_101504" data-name="Group 101504" transform="translate(117.367 237.074)">
      <g id="Group_101504-2" data-name="Group 101504" clip-path="url(#clip-path-2)">
        <path id="Path_181984" data-name="Path 181984" d="M100.036,15.2c-.43-.71.01-.91.36-1.25a7.968,7.968,0,0,0,2.25-3.83,6.358,6.358,0,0,0-4.33-7.79c-3.32-.92-6.39.87-7.36,4.42-.24.85-.56.81-1.19.61a14.429,14.429,0,0,0-4.17-.72,28.381,28.381,0,0,0-8.44,1.33,49.88,49.88,0,0,0-7.32,3.09c-16.34,8.14-31.42,18.3-46.29,28.79a29.078,29.078,0,0,1-8.93,4.49c-8.05,2.32-13.43,7.45-14.52,16.22-.38,3.13.45,6.11,1.16,9.05,2.27,9.33,8.05,16.16,16.12,20.98,10.41,6.21,21.01,12.1,31.54,18.12a46.163,46.163,0,0,0,16.37,5.77c14.34,2.15,25.15-10.49,21.46-22.87a3.494,3.494,0,0,1,.04-1.67c.28-1.59,1.53-2.65,1.93-4.19,2.37-9.1,4.86-18.18,7.28-27.27,2.1-7.86,4.71-15.57,6.64-23.49,1.69-6.98,1.1-13.58-2.6-19.79m-6.96-8.16a3.96,3.96,0,0,1,4.35-2.09,3.874,3.874,0,0,1,2.7,3.62,4.281,4.281,0,0,1-2.06,3.23c-.58.39-.94.15-1.34-.25a11.913,11.913,0,0,0-3.12-2.44c-1.06-.55-1.04-1.18-.53-2.07m-35.37,101.85a48.373,48.373,0,0,1-7.59-3.78c-8.04-4.79-16.34-9.11-24.52-13.66a63.852,63.852,0,0,1-15.61-11.97,21.276,21.276,0,0,1-6.1-12.36,13.592,13.592,0,0,1,1.06-6.63c0,1.46-.06,2.49.01,3.52a15.937,15.937,0,0,0,3.87,9.1,48.784,48.784,0,0,0,7.99,7.41,201.8,201.8,0,0,0,39.68,23.91c4.13,1.9,8.05,4.26,12.4,5.74-3.91.93-7.59.09-11.19-1.28m11.59-1.01c-1.78-.56-11.87-5.88-21.83-11.34a4.662,4.662,0,0,1-2.28-1.26l-.01-.01c-.8-.43-1.59-.87-2.38-1.31-.01.1-.01.19-.02.29-2.28-1.29-4.48-2.52-6.67-3.76a.987.987,0,0,1-.5-.58c-.97-.56-1.9-1.09-2.75-1.59h-.01a1.139,1.139,0,0,1-.87-.46.212.212,0,0,1-.03-.07c-1.13-.66-2.14-1.26-2.97-1.77a2.2,2.2,0,0,1-1.19-.7c-20.22-12.05-19.86-16.93-19.86-16.93a10.714,10.714,0,0,1-1.78-5.68,6.97,6.97,0,0,1,.1-3.03c.02-.08.04-.17.06-.25a6.272,6.272,0,0,1,4.29-4.42.536.536,0,0,0,.11-.05.407.407,0,0,1,.29-.05c.11-.03.21-.07.32-.09q.645-.3,1.32-.54c.09-.05.18-.08.27-.12a1.591,1.591,0,0,1,1.32-.53,16.388,16.388,0,0,1,5.33-.71,6.062,6.062,0,0,1,2.03-.1h.02c8.1,0,16.31,7.71,20.43,10.69q.21.135.39.27c-11.09,3.56-10.82,11.93-9.52,15.32,6.83,10.65,13.51,11.47,19.02,10.84a12.622,12.622,0,0,0,8.14-5.86c.33-.88.94-1.64,1.23-2.55.03.13.05.27.08.4.36-.64.7-1.25,1.04-1.8-.04-.18-.09-.36-.14-.56.12.08.23.16.34.23a.417.417,0,0,1,.08.06c5.68,3.69,11.15,10.34,11.81,11.16a.6.6,0,0,1,.07.08.031.031,0,0,0,.01.02,14.386,14.386,0,0,1,3.33,8.43v.02c.67,7.99-6.3,9.27-8.62,8.31m-24.33-41.95a2.43,2.43,0,0,1,1.5.77c3.17,2.42,6.3,4.88,9.48,7.28a4.324,4.324,0,0,1,1.7,3.09c1.15,6.55-4.62,11.29-10.99,10.11-5.8-1.07-10.77-6.87-10.82-12.76h.01c.02-4.99,3.35-8.41,9.12-8.49m35.58,40.79c3.21-7.64.13-13.74-4.79-19.3a129.278,129.278,0,0,0-16.39-14.89,201.072,201.072,0,0,0-22.92-16.44,47.732,47.732,0,0,0-9.23-4.35c-10.32-3.46-17.89-1.36-24.93,7.11a16.243,16.243,0,0,1,6.77-9.61c6.09-4.07,12.74-4.38,19.64-2.84,7.06,1.59,13.22,5.1,19.07,9.18a164.889,164.889,0,0,1,30.61,27.73,23.031,23.031,0,0,1,5.3,9.23,15.744,15.744,0,0,1-3.13,14.18m19.07-71.85c-.35,1.87-.84,3.72-1.35,5.55-4.18,15.13-9.12,30.03-13.49,45.11-.05.15-.17.28-.11.18-15.66-17.9-32.11-34.76-55.72-42.39l5-3.93-.32-.46c-1.53.93-3.07,1.85-4.58,2.81-2.85,1.8-2.99,1.84-6.89,1.14,2.07-1.37,3.96-2.64,5.87-3.88,14.05-9.15,28.75-17.17,43.62-24.88a30.18,30.18,0,0,1,11.12-3.65c5.75-.52,10.43,1.48,13.73,6.3,3.8,5.55,4.34,11.69,3.12,18.1" fill="#040504"/>
        <path id="Path_181985" data-name="Path 181985" d="M124.943,7.968c-4.619,4.09-8.236,8.783-13.293,12,.808-1.067,1.537-2.206,2.438-3.187,3.473-3.783,7-7.516,10.51-11.266.39-.416.757-.944,1.448-.654.585.245.567.821.619,1.331q.3,3,.592,6.02c.724.084.907-.511,1.223-.863q4.454-4.959,8.873-9.949c.192-.215.394-.422.58-.642.53-.629,1.152-1.088,1.916-.453.872.725.2,1.33-.3,1.883q-5.839,6.507-11.692,13a4.261,4.261,0,0,1-.485.493c-.991.792-1.739.517-1.862-.745-.217-2.223-.366-4.453-.566-6.971" fill="#040504"/>
        <path id="Path_181986" data-name="Path 181986" d="M121.8,28.6c-1.709,1.526-3.065,2.756-4.446,3.957-.353.307-.75.936-1.277.3-.5-.6.136-.934.49-1.251a71.982,71.982,0,0,0,5.427-5.081c.925-1.019,1.554-.441,1.736.655.243,1.467.368,2.954.545,4.444.66.195.946-.361,1.319-.645,2.615-1.991,5.206-4.013,7.809-6.021.847-.653,1.752-1.076,2.54.012.775,1.07-.043,1.688-.816,2.246q-5.326,3.85-10.666,7.684c-.517.372-1.043.751-1.741.443-.756-.333-.626-1.017-.658-1.637-.08-1.546-.159-3.093-.262-5.106" fill="#040504"/>
        <path id="Path_181987" data-name="Path 181987" d="M92.856,46.957C91.285,54.769,89.038,62.386,86.779,70c-.787,2.652-1.534,5.315-2.329,7.965a8.827,8.827,0,0,1-.7,1.578c-.184.347-.424.752-.931.53-.389-.17-.371-.568-.309-.9a22.5,22.5,0,0,1,.619-2.868c3.132-9.526,5.9-19.172,9.378-28.584.1-.261.231-.508.347-.762Z" fill="#040504"/>
        <path id="Path_181988" data-name="Path 181988" d="M86.677,51.529c.1,3.172-.967,6.042-2.078,8.9a.776.776,0,0,1-.976.5.7.7,0,0,1-.519-.843.674.674,0,0,1,.038-.115c.8-2.96,1.639-5.9,3.535-8.44" fill="#040504"/>
        <path id="Path_181989" data-name="Path 181989" d="M69.165,30.332c-.182.843-.863.91-1.556.616a8.744,8.744,0,0,1-3.634-3.081c-.572-.8-.008-1.452.851-1.638,1.094-.237,4.42,2.871,4.339,4.1" fill="#040504"/>
        <path id="Path_181990" data-name="Path 181990" d="M78.756,13.734a20.058,20.058,0,0,1,4.627,2.572.781.781,0,0,1,.24,1.073.794.794,0,0,1-.922.306,16.032,16.032,0,0,1-4.751-3.031.448.448,0,0,1-.091-.617c.168-.274.4-.4.9-.3" fill="#040504"/>
        <path id="Path_181991" data-name="Path 181991" d="M77.35,23.052a7.43,7.43,0,0,1-3.478-1.678.753.753,0,0,1-.183-1.049l.022-.03a.887.887,0,0,1,1.035-.431,7.041,7.041,0,0,1,3.335,1.68c.31.322.7.7.417,1.2-.229.4-.708.277-1.148.309" fill="#040504"/>
        <path id="Path_181992" data-name="Path 181992" d="M80.522,57.3c-.734-.154-.936-.577-.753-1.159a20.918,20.918,0,0,1,2.143-4.283.787.787,0,0,1,.553-.293c.29-.021.394.285.348.484a14.366,14.366,0,0,1-1.779,4.961c-.108.161-.374.216-.512.291" fill="#040504"/>
      </g>
    </g>
  </g>
</svg>
