<svg xmlns="http://www.w3.org/2000/svg" xmlns:xlink="http://www.w3.org/1999/xlink" width="320.421" height="188.791" viewBox="0 0 320.421 188.791">
  <defs>
    <clipPath id="clip-path">
      <rect id="Rectangle_26706" data-name="Rectangle 26706" width="320.421" height="188.791" fill="#f5f6fa"/>
    </clipPath>
    <clipPath id="clip-path-2">
      <rect id="Rectangle_26719" data-name="Rectangle 26719" width="97.92" height="114.031" fill="none"/>
    </clipPath>
  </defs>
  <g id="Group_101513" data-name="Group 101513" transform="translate(-27.863 -194.712)">
    <g id="Group_101503" data-name="Group 101503">
      <g id="Group_101470" data-name="Group 101470" transform="translate(27.863 194.712)">
        <g id="Group_101469" data-name="Group 101469" transform="translate(0 0)" clip-path="url(#clip-path)">
          <path id="Path_181901" data-name="Path 181901" d="M63.132,3.8S-14.81,26.066,2.513,123.181c0,0,12.37,84.128,106.394,61.86,45.85-18.785,96.671-25.51,144.666-13a47.064,47.064,0,0,0,5.641,1.224c13.846,1.831,33.724-4.538,45.458-11.955,5.468-3.454,10.437-7.982,13.1-13.993,4-9.033,3.862-17.975-3.1-25.053A126.883,126.883,0,0,1,287.446,80.6c-7.248-18.2-5.958-33.764-5.958-52.676,0,0-.617-40.2-42.68-24.123-15.207,5.814-28.573,15.909-44.4,21.152-22.549,7.466-47.018,10.581-66.881-5.419-3.408-2.742-6.49-5.9-10.078-8.4C103.389,1.3,79.436-.862,63.132,3.8" transform="translate(0.001 -0.001)" fill="#f5f6fa"/>
        </g>
      </g>
    </g>
    <g id="Group_101507" data-name="Group 101507" transform="translate(139.273 236.092)">
      <g id="Group_101506" data-name="Group 101506" clip-path="url(#clip-path-2)">
        <path id="Path_182003" data-name="Path 182003" d="M46.909,5.1c.376-.272.409-.706.584-1.058A7.338,7.338,0,0,1,55.55.174a3.429,3.429,0,0,1,2.9,4.243,2.93,2.93,0,0,0,1.31,3.305,12.125,12.125,0,0,1,2.388,2.01,3.082,3.082,0,0,1,.311,4.138A22.88,22.88,0,0,1,55.7,20.624a18.384,18.384,0,0,0-4.651,3.767c-.825,1.086-.8,1.189.558,1.448A18.215,18.215,0,0,0,55.329,26a31.029,31.029,0,0,1,6.72.132c4.189.85,6.525,3.264,6.528,7.526a16.046,16.046,0,0,0,3.18,9.494,18.691,18.691,0,0,1,2.376,4.44c.306.865.4,1.747-.644,2.118-1.022.363-1.541-.306-1.848-1.208a24.3,24.3,0,0,0-2.987-5.335A15.262,15.262,0,0,1,66,34.459c.032-3.905-1.8-5.678-5.715-5.9-.48-.027-.962-.031-1.443-.032-1.834,0-3.669,0-5.7,0a1.984,1.984,0,0,0,1.125.988,28.32,28.32,0,0,1,4.3,2.639,8.586,8.586,0,0,1,2.856,3.938,1.276,1.276,0,0,1-.764,1.776,1.144,1.144,0,0,1-1.59-.673c-.957-2.482-3-3.771-5.211-4.9-.813-.415-1.611-.861-2.727-1.459a8.55,8.55,0,0,0,.751,1.035C63.016,42.452,69.114,55.8,73.05,70.341c1.214,4.484,2.446,8.965,3.546,13.477.3,1.222.807,1.466,1.946,1.321a28.294,28.294,0,0,1,9.219.246,8.055,8.055,0,0,1,2.581.948,2.638,2.638,0,0,1,1.392,1.736,33.574,33.574,0,0,1,.64,5.246c.016,1.431-1.038,2.059-2.278,2.755,1.423.251,2.628.414,3.809.684,2.109.482,3.553,1.595,3.627,3.983.029.918.221,1.83.329,2.746.224,1.9-.171,2.7-1.878,3.605a24.345,24.345,0,0,1-7.618,2.5c-4.7.751-9.448,1.184-14.1.089a14.8,14.8,0,0,0-7.533.439,51.869,51.869,0,0,1-11.506,1.732c-6.535.29-13.032.985-19.538,1.615a175.509,175.509,0,0,1-22.244.412,32.384,32.384,0,0,1-4.549-.387c-6.4-1.1-10.188-8.2-8.485-14.046a15.19,15.19,0,0,1,.469-1.615c1.662-3.981,1.569-8.131,1.273-12.317-.519-7.309-.562-14.565,1.706-21.68A57.108,57.108,0,0,1,19.177,39.876a59.827,59.827,0,0,1,5.163-4.511,1.689,1.689,0,0,0,.652-2.193,4.825,4.825,0,0,1,.961-5.359c.5-.559.4-.927-.069-1.41a12.691,12.691,0,0,0-5.753-3.351,22.289,22.289,0,0,1-7.464-3.495,5.162,5.162,0,0,1-2.283-3.125,2.525,2.525,0,0,1,2-3.16,9.087,9.087,0,0,1,4.754-.018c.42.112.743.19,1.021-.266a5.128,5.128,0,0,1,4.835-2.376,4.508,4.508,0,0,0,4.023-1.945c.258-.354.616-.633.9-.968,4.412-5.174,9.979-5.72,16.1-4.021A10.736,10.736,0,0,1,46.909,5.1m7.03,103.84c-.063-.2-.063-.256-.087-.27a3.617,3.617,0,0,0-.622-.34,3.354,3.354,0,0,1-2.3-3.442c-.039-1.121.076-2.254-.046-3.363a3.129,3.129,0,0,1,1.348-3.014,11.63,11.63,0,0,1,2.832-1.559,33.653,33.653,0,0,1,7.646-2.031c1.187-.179,1.6-.586,1.385-1.74-.573-3.044,1.145-4.594,3.683-5.626A28.625,28.625,0,0,1,73.294,85.9c.782-.147,1.094-.344.847-1.24-1.371-4.979-2.628-9.99-4.019-14.964a88.024,88.024,0,0,0-11.5-25.911c-2.692-3.986-6.16-7.273-9.3-10.86a.641.641,0,0,0-.838-.2,26.836,26.836,0,0,1-7.121,1.627c-.824.109-.623.479-.417.972a19.978,19.978,0,0,1,1.4,5.327c.112.92-.094,1.676-1.069,1.835S39.853,42,39.743,41.066a17.777,17.777,0,0,0-1.512-5.416,1.214,1.214,0,0,0-1.346-.866c-1.8.1-3.607.1-5.411.09a1.421,1.421,0,0,0-1.231.563,75.553,75.553,0,0,1-6.171,6.41A65.481,65.481,0,0,0,12.547,56.115c-4.81,8.326-7.308,17.192-6.5,26.894.361,4.348.737,8.728-.711,13a42.847,42.847,0,0,0-1.7,5.628c-.59,3.07.261,4.786,3.054,6.144a18.442,18.442,0,0,0,9.966,1.553c.63-.057.7-.255.562-.815a13.416,13.416,0,0,1,.317-7.241,12.6,12.6,0,0,0,.037-6.994c-.186-.737-.418-1.464-.595-2.2-.2-.819-.1-1.578.843-1.835.909-.247,1.434.256,1.7,1.1,1.134,3.656,1.7,7.314.465,11.092a10.545,10.545,0,0,0-.153,5.82,1.376,1.376,0,0,0,1.461,1.208c10.877.934,21.715-.177,32.65-.524M13.39,15.915c.228.539.712.682,1.12.905a34.925,34.925,0,0,0,6.158,2.358c3.048.983,5.918,2.26,8.116,4.7A11.663,11.663,0,0,0,31.26,25.8c2.81,1.813,5.665,1.632,8.674.926a28.375,28.375,0,0,1,7.088-1.2.583.583,0,0,0,.626-.439c1-2.836,3.336-4.425,5.662-6.014a23.708,23.708,0,0,0,5.7-4.945c1.851-2.412,2.031-2.163-.476-4.007C56.449,8.587,55.2,6.794,55.864,4.087c.191-.782-.188-1.213-.966-1.345a4.662,4.662,0,0,0-5.193,6.315,11,11,0,0,1,.209,6.734c-.228.787-.72,1.3-1.579,1.11-.914-.2-1.178-.872-.992-1.75.108-.509.246-1.013.316-1.528a6.447,6.447,0,0,0-4.833-7.53c-4.887-1.281-9.406-.914-12.895,3.34A15.315,15.315,0,0,1,28.513,10.9c-.44.409-.5.683.02,1.124a8.9,8.9,0,0,1,2.331,3.735,1.252,1.252,0,0,1-.694,1.793,1.225,1.225,0,0,1-1.678-.718c-.4-.739-.746-1.508-1.179-2.225a2.713,2.713,0,0,0-2.225-1.462,24.921,24.921,0,0,0-3.229.248,1.662,1.662,0,0,0-1.3.782c-1.105,1.88-2.661,2.193-4.637,1.542a2.78,2.78,0,0,0-2.532.191m59.424,86.107a5.465,5.465,0,0,0,2.9,1.17A32.778,32.778,0,0,0,92.658,100.9c.6-.261,1.625-.44,1.562-1.077-.058-.6-1.092-.6-1.736-.71A37.061,37.061,0,0,0,79,99.761a17.9,17.9,0,0,0-6.188,2.261M67.277,90.806A5.286,5.286,0,0,0,69.95,91.92a33,33,0,0,0,16.97-2.155c.693-.291,1.894-.56,1.814-1.141-.105-.773-1.289-.71-2.047-.815a38.534,38.534,0,0,0-12.905.668,18.7,18.7,0,0,0-6.5,2.329m5.046,8.42c-.1-.3-.281-.272-.428-.281A13.7,13.7,0,0,1,65.46,97.3a1.517,1.517,0,0,0-1.169-.037c-1.717.373-3.444.713-5.141,1.164a14.75,14.75,0,0,0-5,2.041,6.2,6.2,0,0,0,3.5,1.54,40.523,40.523,0,0,0,11.238-.132c.3-.042.7.025.867-.308a6.022,6.022,0,0,1,2.567-2.337M33.482,32.21a50.45,50.45,0,0,0,10.746-.984,10.534,10.534,0,0,0,4.566-1.714c.593-.452.474-.727-.121-1a4.847,4.847,0,0,0-2.943-.3c-1.5.268-2.991.556-4.467.918-3.734.913-7.421,1.435-10.888-.882-.263-.176-.526-.234-.686.131A14.25,14.25,0,0,0,28.521,31c-.175.8.135,1.224.994,1.214,1.322-.015,2.644,0,3.966,0M66.829,93.9c-.26.79.066,1.313.9,1.563a17.655,17.655,0,0,0,1.84.543,36.819,36.819,0,0,0,9.474.189,28.194,28.194,0,0,0,9.858-2.46,1.229,1.229,0,0,0,.69-1.831c-.352-.732-.861.028-1.242.183A34.708,34.708,0,0,1,66.829,93.9m5.535,11.167c-.264.893.131,1.339.945,1.614a12.124,12.124,0,0,0,2.3.647,43.325,43.325,0,0,0,10.79-.1,26.811,26.811,0,0,0,8.055-2.283,1.22,1.22,0,0,0,.659-1.837c-.323-.678-.847.024-1.23.179-6.982,2.827-14.108,3.739-21.523,1.781M53.657,103.51c-.257,1.913-.114,2.183,1.528,2.812a7.894,7.894,0,0,0,1.145.352A38.664,38.664,0,0,0,69,106.935c1.408-.159.5-1.262.6-1.907.119-.746-.519-.467-.922-.435-5.062.4-10.138,1-15.023-1.083" transform="translate(0 0)"/>
      </g>
    </g>
  </g>
</svg>
