<svg xmlns="http://www.w3.org/2000/svg" xmlns:xlink="http://www.w3.org/1999/xlink" width="320.421" height="188.791" viewBox="0 0 320.421 188.791">
  <defs>
    <clipPath id="clip-path">
      <rect id="Rectangle_26706" data-name="Rectangle 26706" width="320.421" height="188.791" fill="#f5f6fa"/>
    </clipPath>
    <clipPath id="clip-path-2">
      <rect id="Rectangle_26716" data-name="Rectangle 26716" width="121.177" height="132.019" fill="none"/>
    </clipPath>
  </defs>
  <g id="Group_101503" data-name="Group 101503" transform="translate(-27.863 -194.712)">
    <g id="Group_101470" data-name="Group 101470" transform="translate(27.863 194.712)">
      <g id="Group_101469" data-name="Group 101469" transform="translate(0 0)" clip-path="url(#clip-path)">
        <path id="Path_181901" data-name="Path 181901" d="M63.132,3.8S-14.81,26.066,2.513,123.181c0,0,12.37,84.128,106.394,61.86,45.85-18.785,96.671-25.51,144.666-13a47.064,47.064,0,0,0,5.641,1.224c13.846,1.831,33.724-4.538,45.458-11.955,5.468-3.454,10.437-7.982,13.1-13.993,4-9.033,3.862-17.975-3.1-25.053A126.883,126.883,0,0,1,287.446,80.6c-7.248-18.2-5.958-33.764-5.958-52.676,0,0-.617-40.2-42.68-24.123-15.207,5.814-28.573,15.909-44.4,21.152-22.549,7.466-47.018,10.581-66.881-5.419-3.408-2.742-6.49-5.9-10.078-8.4C103.389,1.3,79.436-.862,63.132,3.8" transform="translate(0.001 -0.001)" fill="#f5f6fa"/>
      </g>
    </g>
    <g id="Group_101493" data-name="Group 101493" transform="translate(127.234 230.133)">
      <g id="Group_101492" data-name="Group 101492" clip-path="url(#clip-path-2)">
        <path id="Path_181973" data-name="Path 181973" d="M74.805,139.939c.92,7.593,3.058,14.076,11.031,16.561,5.657,1.763,11.158,1.8,16.748-1.421a7.486,7.486,0,0,1-3.312-.857c-.529-.364-1.164-.74-1.034-1.485s.882-.726,1.44-.792a19.257,19.257,0,0,0,7.376-2.872c1.327-.773,1.252-2.407,1.8-4.045a12.678,12.678,0,0,1-7.5,2.214,8.051,8.051,0,0,1-3.067-.668c-.486-.224-1.092-.472-1.039-1.135.045-.563.582-.776,1.053-.978a17.208,17.208,0,0,1,3.852-.981,27.918,27.918,0,0,1,6.526-.82c.635.037.684-.331.734-.733.121-.994.206-1.992.309-3.026-11.829,4.163-23.407,3.9-34.841-1.194-.325.411.092,1.051-.464,1.656-.418-2.3-.811-4.468-1.2-6.634a29.433,29.433,0,0,0-7.586-15.571,56.624,56.624,0,0,1-8.5-11.792c-7.636-13.839-4.053-28.332,5.279-38.51a40.807,40.807,0,0,1,50.968-7.011c8.39,5.214,13.415,13.125,16.2,22.469,2.151,7.208,2.409,14.427-.514,21.548a32.582,32.582,0,0,1-5.2,8.214c-1.134,1.383-2.241,2.793-3.451,4.107-4.627,5.022-6.663,11.034-7.084,17.751a55.1,55.1,0,0,1-1.841,12.9c-1.469,4.768-3.939,8.767-8.537,11.115-.562.287-.577.729-.715,1.206a9.19,9.19,0,0,1-7.3,6.717,8.632,8.632,0,0,1-9.129-3.393,5.634,5.634,0,0,1-1.364-3.526c0-.738-.353-1.02-.953-1.285-7.7-3.4-9.218-10.663-9.022-17.036,0-.119.108-.234.334-.692m10.271-37.351c.421.087.654-.184.93-.32a33.743,33.743,0,0,0,6.132-4.391c2.91-2.345,6.155-3.6,9.952-2.909,6.971,1.269,9.177,8.413,5.988,12.819a2.579,2.579,0,0,0-.444.99,33.935,33.935,0,0,1-2.862,8.43,35.02,35.02,0,0,0-3,19.561c.08.74.344.931,1.023.868,1.232-.114,2.472-.15,3.7-.274,1.081-.109,2.491.418,3.163-.32.708-.776.35-2.193.413-3.332.366-6.637,1.942-12.849,6.276-18.112,1.369-1.663,2.719-3.342,4.067-5.022a35.962,35.962,0,0,0,4.57-6.676,25.763,25.763,0,0,0,1.852-16.635c-1.817-9.281-6.072-17.259-13.723-22.933-12.981-9.626-34.541-9.159-47.639,4.345-9.213,9.5-12.894,23.028-5.385,36.6a86.9,86.9,0,0,0,8.686,12.348,23.077,23.077,0,0,1,3.621,6.281,34.868,34.868,0,0,1,2.218,11.131c.042,1.033.376,1.369,1.44,1.423a58.947,58.947,0,0,1,6.556.689c1.176.193,1.345-.132,1.326-1.208a180.143,180.143,0,0,0-2.247-26.412c-.122-.73-.337-.951-1.051-.74a13.567,13.567,0,0,1-4.765.457c-5.666-.368-8.945-5.011-7.34-10.383A9.1,9.1,0,0,1,77.279,92.2c3.447.121,6.484,2.94,7.355,6.912.243,1.111.295,2.264.443,3.472m19.392-2.2a4.134,4.134,0,0,0-2.663-1.577,7.773,7.773,0,0,0-6.91,1.815,52.155,52.155,0,0,1-6.769,4.921c-1.209.664-3.016.884-3.433,2.223-.393,1.26.032,2.8.211,4.209a101.262,101.262,0,0,1,.172,24.13c-.114,1.017.125,1.35,1.15,1.432a127.468,127.468,0,0,0,13.6.295c.883-.024,1.175-.176.919-1.178a31.127,31.127,0,0,1,1.513-20.3,27.355,27.355,0,0,0,1.65-5.059c-4.692.164-7.184-1.783-7.1-5.5s2.979-5.785,7.659-5.406m-22.751,2.034a7.873,7.873,0,0,0-1.171-4.58,4.069,4.069,0,0,0-4.165-2.071A5.781,5.781,0,0,0,72,102.611a3.5,3.5,0,0,0,2.476,2.524,9.684,9.684,0,0,0,5.016.042c2.232-.521,2.233-.52,2.227-2.751m5.32,56.7a7.736,7.736,0,0,0,12.081.315,23.062,23.062,0,0,1-12.081-.315m13.207-53.27a2.056,2.056,0,0,0,1.687,2.028c.98.053,2.819-1.348,2.858-2.177a1.946,1.946,0,0,0-2.116-2.144,2.42,2.42,0,0,0-2.429,2.293" transform="translate(-33.505 -34.098)"/>
        <path id="Path_181974" data-name="Path 181974" d="M274.5,90.247c-.475-.061-1.017.056-1.264-.424-.285-.555.148-.96.513-1.3a27.531,27.531,0,0,1,8.654-4.934,18.3,18.3,0,0,1,5.684-1.492c.457-.029,1.011-.079,1.254.359.307.551-.172.97-.537,1.28a30.779,30.779,0,0,1-14.3,6.507" transform="translate(-172.738 -51.909)"/>
        <path id="Path_181975" data-name="Path 181975" d="M234.759,22.111a10.066,10.066,0,0,1-.5,1.35,20.386,20.386,0,0,1-8.272,8.554c-.629.354-1.489.985-2.116.247-.53-.624.056-1.4.443-2.008a30.231,30.231,0,0,1,8.243-8.532,4.164,4.164,0,0,1,1.236-.576c.605-.171.978.082.968.965" transform="translate(-141.441 -13.341)"/>
        <path id="Path_181976" data-name="Path 181976" d="M299.09,173.6a14.207,14.207,0,0,1-6.38-1.4c-.508-.276-1.177-.575-1.116-1.256.065-.721.791-.837,1.365-.915a32.948,32.948,0,0,1,11.435.358c.524.113,1.154.29,1.185.959.03.646-.57.905-1.049,1.146a13.308,13.308,0,0,1-5.439,1.113" transform="translate(-184.403 -107.312)"/>
        <path id="Path_181977" data-name="Path 181977" d="M17,235.133c-1.615-.024-1.9-.483-1.374-1.461a4.143,4.143,0,0,1,.645-.883,23.612,23.612,0,0,1,8.259-5.747c.59-.238,1.283-.534,1.792.015.554.6.056,1.244-.282,1.739A14.877,14.877,0,0,1,17,235.133" transform="translate(-9.731 -143.395)"/>
        <path id="Path_181978" data-name="Path 181978" d="M155.813,5.6a20.892,20.892,0,0,1-.793,6.221c-.183.552-.351,1.22-1.089,1.235-.661.013-.914-.591-1.1-1.084a14.143,14.143,0,0,1,.322-10.921c.224-.515.54-1.156,1.28-1.04.647.1.764.726.911,1.247a15.519,15.519,0,0,1,.466,4.342" transform="translate(-96.057 0)"/>
        <path id="Path_181979" data-name="Path 181979" d="M8.324,154.726A18.027,18.027,0,0,1,1.245,153.3c-.564-.265-1.3-.541-1.241-1.3.066-.871.92-.958,1.559-1.078a17.788,17.788,0,0,1,9.966,1.031c.651.258,1.559.527,1.416,1.433-.134.851-1.058.907-1.753,1.067a10.512,10.512,0,0,1-2.867.276" transform="translate(0 -95.252)"/>
        <path id="Path_181980" data-name="Path 181980" d="M81.789,29.454c-.065,1.212-.526,1.6-1.447,1.179a5.734,5.734,0,0,1-1.373-.89,15.071,15.071,0,0,1-4.676-7.126c-.164-.562-.343-1.226.217-1.658s1.171-.094,1.641.252a14.526,14.526,0,0,1,5.638,8.242" transform="translate(-46.88 -13.124)"/>
        <path id="Path_181981" data-name="Path 181981" d="M289.146,245.3c-2.66-.107-7.315-3.473-8.264-5.972a1.267,1.267,0,0,1-.005-1.305,1.1,1.1,0,0,1,1.27-.222,15.862,15.862,0,0,1,8.073,5.826,1.073,1.073,0,0,1,.164,1.277c-.21.329-.519.425-1.237.4" transform="translate(-177.511 -150.322)"/>
        <path id="Path_181982" data-name="Path 181982" d="M16.759,83.114c2.391-.028,6.032,2.557,6.74,4.785.389,1.223-.071,1.879-1.321,1.59a10.58,10.58,0,0,1-6.561-4.648c-.673-1.016-.139-1.712,1.141-1.727" transform="translate(-9.692 -52.561)"/>
        <path id="Path_181983" data-name="Path 181983" d="M155.816,84.161a3.552,3.552,0,0,1,2.572-.872c14.7-1.048,27.626,11.07,28.622,24.193a7.323,7.323,0,0,1-.043,1.369c-.033.29.052.725-.386.77-.387.04-.507-.353-.641-.627-.339-.7-.663-1.407-.958-2.126-4.9-11.946-13.718-19.138-26.345-21.713-.8-.164-1.594-.405-2.383-.637-.152-.045-.268-.213-.439-.357" transform="translate(-98.538 -52.632)"/>
      </g>
    </g>
  </g>
</svg>
