<svg xmlns="http://www.w3.org/2000/svg" xmlns:xlink="http://www.w3.org/1999/xlink" width="284.134" height="191.604" viewBox="0 0 284.134 191.604">
  <defs>
    <clipPath id="clip-path">
      <rect id="Rectangle_26704" data-name="Rectangle 26704" width="284.134" height="191.604" fill="#f5f6fa"/>
    </clipPath>
    <clipPath id="clip-path-2">
      <rect id="Rectangle_26710" data-name="Rectangle 26710" width="110.935" height="118.944" fill="none"/>
    </clipPath>
  </defs>
  <g id="Group_101497" data-name="Group 101497" transform="translate(-45.915 -192.863)">
    <g id="Group_101466" data-name="Group 101466" transform="translate(45.915 192.863)">
      <g id="Group_101465" data-name="Group 101465" clip-path="url(#clip-path)">
        <path id="Path_181899" data-name="Path 181899" d="M14.33,29.246c5.117-9.462,12.346-16.992,22.835-18.369C48.206,9.427,58.212,16.691,67.99,22.02c35.519,19.348,79.878,14.892,117.424-.148C204.1,14.383,250.52-13.376,267.989,7.835c4.137,5.025,5.96,11.515,7.608,17.813,5.022,19.184,9.453,38.848,8.376,58.65-2.359,43.392-32.923,64.5-70.365,78.892-39.748,15.28-81.248,28.084-123.829,28.406-23.656.18-49.106-4.4-65.675-21.29C14.383,160.4,8.7,147.181,5.1,133.777A152.231,152.231,0,0,1,3.43,62.547c2.05-9.532,5.135-22.642,10.9-33.3" transform="translate(0 0)" fill="#f5f6fa"/>
      </g>
    </g>
    <g id="Group_101479" data-name="Group 101479" transform="translate(133.133 236.193)">
      <g id="Group_101478" data-name="Group 101478" clip-path="url(#clip-path-2)">
        <path id="Path_181924" data-name="Path 181924" d="M77.532,0C78.623.233,79.723.43,80.8.7c2.5.634,3.316,1.646,3.488,4.226.231,3.469.457,6.939.693,10.532a4.973,4.973,0,0,1,2.4-.7c3.4-.26,6.791-.536,10.188-.781a18.227,18.227,0,0,1,3.825.137c3.139.435,4.437,1.873,4.718,5.016.3,3.4.471,6.8.6,10.2.361,9.406,1.528,18.745,2.235,28.12.94,12.463,2.128,24.925,1.966,37.447-.064,4.947-.007,9.913-1.084,14.795-.982,4.452-3.354,6.555-7.858,6.456-5.681-.125-11.271.723-16.89,1.263-10.484,1.007-20.957,1.974-31.52,1.315-9.7-.606-19.416-.588-29.137-.551a61.968,61.968,0,0,1-19.479-2.631C1.7,114.492.92,113.629.631,110.219c-.18-2.121-.373-4.249-.375-6.374C.249,92.811-.249,81.778.164,70.743c.31-8.279,1-16.539,1.253-24.822.154-5.146.366-10.291.609-15.434a39.305,39.305,0,0,1,.891-7.016c.552-2.383,1.442-3.136,3.827-3.52a114.767,114.767,0,0,1,12.573-1.358c.739-.036.889-.33.867-1-.107-3.287-.317-6.58-.21-9.862.088-2.715,1.384-4.949,4.274-5.32A15.923,15.923,0,0,1,34.476,4.065a4.545,4.545,0,0,1,2.409,3.492c.375,2.8.756,5.6,1.091,8.4.068.564.221.778.822.817a111.707,111.707,0,0,0,24.1-.605c1.644-.25,3.3-.459,4.949-.638.79-.086,1.211-.316,1.253-1.241.1-2.086.424-4.163.487-6.249a20.236,20.236,0,0,1,1.107-5.07C71.248,1.054,72.861.508,74.511,0Zm26.155,45.528c-1.6.967-3.332.953-5,1.162-8.79,1.106-17.615.891-26.438.58-8.048-.284-16.092-.536-24.143-.031-11.32.71-22.646,1.291-33.992,1.306a79.07,79.07,0,0,0-8.694.428c-.524.058-.828.161-.86.8C4.165,57.621,3.5,65.454,3.4,73.316c-.1,7.824.288,15.636.557,23.45.136,3.944.08,7.9.518,11.829.36,3.233.333,3.271,3.489,4.091a71.557,71.557,0,0,0,20.831,2c2.9-.11,5.805-.265,8.705-.222,7.277.109,14.553.289,21.827.5,7.458.213,14.828-.793,22.227-1.443a2.5,2.5,0,0,0,2.317-1.627,31.437,31.437,0,0,0,3-13.935c.014-3.071-.61-6.08-.781-9.13-.1-1.83.652-2.539,2.435-2.238,1.942.329,3.874.728,5.8,1.146,3.628.787,7.231,1.267,10.868-.038a1.476,1.476,0,0,0,1.206-1.689c-.183-10.531-.9-21.033-1.728-31.527-.233-2.953-.642-5.892-.983-8.951M85.274,18.435a2.7,2.7,0,0,0-.137,1.408,35.545,35.545,0,0,1-.393,6.365c-.59,3.28-2.135,4.546-5.427,4.437a49.124,49.124,0,0,1-7.712-.965c-2.083-.4-2.873-1.407-2.9-3.559-.022-1.936.013-3.872.058-5.808.057-2.458.079-2.411-2.433-2.069-3.908.533-7.79,1.286-11.739,1.489-5.106.262-10.216.353-15.327.192-.725-.023-.938.16-.879.9a36.49,36.49,0,0,1-.118,6.724c-.355,3.379-1.756,4.73-5.115,4.618-2.937-.1-5.876-.276-8.8-.558a3.694,3.694,0,0,1-3.382-3.04,26.479,26.479,0,0,1-.563-5.764c-.03-.835-.288-1.027-1.082-.969A73.286,73.286,0,0,0,8.648,23.3c-2.1.469-2.124.463-2.461,2.649a178.63,178.63,0,0,0-1.414,19.1c-.038.817.28.85.943.788,4.282-.4,8.581-.4,12.876-.53,6.113-.185,12.222-.528,18.33-.851,7.576-.4,15.13-1.266,22.724-1.237,6.892.027,13.782.265,20.674.342a111.766,111.766,0,0,0,18.99-1.051,9.106,9.106,0,0,1,3.2-.407c.905.182.826-.233.785-.826-.478-6.8-.938-13.593-1.42-20.389-.174-2.458-.219-2.541-2.752-2.479-3.6.089-7.194.282-10.791.437a5.841,5.841,0,0,1-3.061-.411m-62.629.753c.152,2.549.244,5.1.476,7.646.154,1.683.586,2.186,1.853,2.173,2.94-.03,5.882.154,8.821-.094a.97.97,0,0,0,1-.884,17.066,17.066,0,0,0,.434-3.795A130.991,130.991,0,0,0,34.1,8.732,2.6,2.6,0,0,0,32.186,6.4a15.375,15.375,0,0,0-6.379-.919c-2.646.178-2.594.2-2.918,2.811a79.794,79.794,0,0,0-.244,10.9m59.5-.442c-.241-4.407-.508-8.812-.7-13.221a1.785,1.785,0,0,0-1.62-1.968,39.98,39.98,0,0,0-4.475-.638C73.568,2.757,73.2,3,72.7,4.736c-1.213,4.224-.837,8.641-1.57,12.938C70.7,20.2,71.1,22.851,71,25.442c-.049,1.273.5,1.661,1.64,1.8a53.368,53.368,0,0,0,7.061.434,1.739,1.739,0,0,0,1.933-1.541,33.548,33.548,0,0,0,.514-7.392m5.433,92.272c7.478-5.557,14-11.887,18.035-20.482-5.835,1.576-11.277-.591-16.947-1.482a50.076,50.076,0,0,1,.944,11.062,44.251,44.251,0,0,1-2.032,10.9m2.193,1.5a115.579,115.579,0,0,1,12.485-.928c1.943-.065,2.35-.426,2.915-2.325.981-3.3.971-6.715,1.144-10.1.085-1.67.015-3.348.015-5.389a63.385,63.385,0,0,1-16.559,18.745" transform="translate(0 -0.001)"/>
        <path id="Path_181925" data-name="Path 181925" d="M104.656,218.267q4.907,0,9.812,0a12.252,12.252,0,0,1,4.029.265,1.963,1.963,0,0,1,1.537,2.036,32.378,32.378,0,0,1-.84,6.894,3.008,3.008,0,0,1-2.9,2.392,38.9,38.9,0,0,1-10.522-.327c-2.917-.359-5.833-.73-8.752-1.069-2.093-.243-2.736-.8-3.084-2.925a39.285,39.285,0,0,1-.345-8.1,3.556,3.556,0,0,1,1.528-2.856c1.561-1.141,3.176-2.211,4.7-3.4,2.986-2.325,5.519-4.982,6.149-8.945a11.3,11.3,0,0,0,.115-2.543c-.153-2.262-1.746-3.23-3.8-2.269a10.885,10.885,0,0,0-4.751,3.964c-1.554,2.447-1.86,2.809-4.014.176-.759-.928-1.543-1.839-2.263-2.8a2.147,2.147,0,0,1,.075-2.958,4.236,4.236,0,0,0,.653-.954c2.525-5.456,7.232-7.821,12.793-8.57,4.136-.557,6.951,1.886,8.917,5.277a17.6,17.6,0,0,1-1.7,19.79,39.047,39.047,0,0,1-6.721,6.378c-.23.17-.558.261-.624.54m5.711,1.771v-.091c-2.322,0-4.644.018-6.966-.012-.638-.008-1.418.031-1.642-.785s.447-1.168.993-1.521a36.522,36.522,0,0,0,6.483-5.609c5.085-5.316,6.534-11.466,4.03-18.391-1.694-4.686-5.558-7.458-10.609-5.961-4.909,1.454-8.76,4.085-10.384,9.247a1.1,1.1,0,0,0,.288,1.144c.657.811,1.363,1.584,2.046,2.375.982,1.136.975,1.132,1.855-.024a11.971,11.971,0,0,1,6.015-4.534c2.613-.791,4.627.581,5.037,3.255a12.061,12.061,0,0,1-1.062,6.554,16.628,16.628,0,0,1-5.584,6.552c-1.647,1.281-3.378,2.454-5.074,3.672a1.868,1.868,0,0,0-.763,1.6,47,47,0,0,0,.3,7.3c.228,1.886.438,2.066,2.279,2.219,3.163.262,6.305.7,9.453,1.093a32.113,32.113,0,0,0,9.027.124,1.528,1.528,0,0,0,1.471-1.34,54.311,54.311,0,0,0,.726-5.519c.108-1.033-.3-1.378-1.3-1.358-2.206.044-4.413.014-6.62.014" transform="translate(-64.311 -132.016)"/>
        <path id="Path_181926" data-name="Path 181926" d="M212.817,192.123c2.748,0,5.5-.019,8.244.007a3.107,3.107,0,0,1,3.155,2.436,23.864,23.864,0,0,1,.655,4.94c.047,1.979-.653,2.633-2.639,2.58a76,76,0,0,0-9.168-.045c-.641.06-1.593-.068-1.747.516a3.093,3.093,0,0,0,.815,2.337c.276.4.72.171,1.078.1a9.053,9.053,0,0,1,4.577.255c4.038,1.249,6.009,4.118,6.505,8.169a32.492,32.492,0,0,1-.408,10.5c-1.175,5.783-6,8.41-10.824,8.511a13.707,13.707,0,0,1-4.675-.761,8.642,8.642,0,0,1-6.247-7.59,31.181,31.181,0,0,1-.382-4.738,2.393,2.393,0,0,1,1.6-2.207,1.978,1.978,0,0,1,2.223.363,8.134,8.134,0,0,0,6.2,1.282c1.625-.261,2.358-1.661,1.9-3.347a5.458,5.458,0,0,0-4.875-3.838,19.989,19.989,0,0,0-5.172.605c-1.843.4-2.619-.164-2.546-2.03.193-4.912.274-9.83.687-14.732q.015-.174.039-.346c.451-3.219.964-3.682,4.151-3.434,2.281.178,4.564.188,6.847.465m-9.95,11.548-.133,0c0,2.051.016,4.1-.009,6.153-.008.649.12.879.856.74,1.327-.25,2.677-.4,4.024-.52a7.143,7.143,0,0,1,7.288,4.306c1.36,3.1-.248,5.845-3.623,6.02a9.864,9.864,0,0,1-6.163-1.664c-.382-.258-.671-.6-1.223-.279a1.277,1.277,0,0,0-.749,1.3,25.4,25.4,0,0,0,.634,5.288,6.679,6.679,0,0,0,3.955,4.7,12.684,12.684,0,0,0,5.179,1.12c3.673-.048,8.34-1.9,9.555-7.09a29.662,29.662,0,0,0,.535-10.492c-.392-3.158-1.945-5.5-5.189-6.436a8.988,8.988,0,0,0-4.465-.209c-1.759.374-2.134.164-2.959-1.417a9.025,9.025,0,0,1-.5-1.17c-.762-2.153-.249-3.051,2-3.367a58.46,58.46,0,0,1,10.2-.127c1.021.036,1.308-.335,1.225-1.261a25.725,25.725,0,0,0-.913-5.011c-.167-.566-.511-.561-.953-.583-5.606-.282-11.231-.043-16.827-.58a.765.765,0,0,0-.928.641,8.144,8.144,0,0,0-.3,1.475c-.191,2.819-.352,5.64-.523,8.461" transform="translate(-142.569 -135.842)"/>
        <path id="Path_181927" data-name="Path 181927" d="M34.259,269.362c-.7-.182-.544-.679-.338-1.162.6-1.416,1.207-2.833,1.844-4.234.574-1.261,1.192-2.5,1.794-3.75.172-.356.384-.761.851-.581.532.2.437.7.246,1.086-1.3,2.664-2.553,5.349-3.687,8.088a.726.726,0,0,1-.709.553" transform="translate(-23.926 -184.046)"/>
        <path id="Path_181928" data-name="Path 181928" d="M187.933,356.422a46.7,46.7,0,0,1,1.185-5.785c.134-.505.422-.9.966-.78.616.132.684.627.554,1.192-.427,1.843-.836,3.691-1.25,5.537-.111.495-.338.922-.915.83-.526-.084-.6-.531-.54-.993" transform="translate(-133.229 -248.028)"/>
        <path id="Path_181929" data-name="Path 181929" d="M36.926,209.1c-.115.194-.262.462-.428.718-1.658,2.559-3.369,5.084-4.877,7.738-.2.345-.381.932-.909.58-.394-.262-.072-.7.117-1.032,1.568-2.8,3.385-5.439,5.131-8.125.166-.256.329-.558.718-.44.215.066.252.266.249.561" transform="translate(-21.642 -147.83)"/>
        <path id="Path_181930" data-name="Path 181930" d="M33.266,293.4c-.61-.219-.431-.646-.272-1.044a48.477,48.477,0,0,1,2.355-4.893c.471-.884.943-1.768,1.429-2.644.181-.325.358-.807.842-.56s.228.654.047,1c-.648,1.227-1.318,2.442-1.943,3.681s-1.209,2.5-1.8,3.75c-.148.313-.244.655-.658.713" transform="translate(-23.283 -201.488)"/>
        <path id="Path_181931" data-name="Path 181931" d="M34.45,243.183c-.612-.257-.472-.632-.271-1.037a29.7,29.7,0,0,1,2.712-4.43c.526-.714,1.037-1.438,1.565-2.15.2-.264.456-.471.773-.189.256.228.124.487-.045.718a45.519,45.519,0,0,0-4.324,6.689c-.077.156-.262.258-.41.4" transform="translate(-24.111 -166.783)"/>
        <path id="Path_181932" data-name="Path 181932" d="M61.044,352.781c-.486-.146-.466-.474-.288-.888.594-1.383,1.168-2.776,1.762-4.159.351-.816.721-1.624,1.092-2.431.119-.259.3-.477.629-.359s.33.417.218.678q-1.467,3.4-2.956,6.8a.542.542,0,0,1-.458.359" transform="translate(-42.993 -244.537)"/>
        <path id="Path_181933" data-name="Path 181933" d="M77.5,352.353c-.165.467-.384,1.083-.6,1.7-.37,1.055-.733,2.113-1.114,3.165-.107.3-.274.6-.658.525a.516.516,0,0,1-.373-.727q.823-2.53,1.7-5.04a.517.517,0,0,1,.632-.384c.292.081.453.279.409.761" transform="translate(-52.976 -249.258)"/>
        <path id="Path_181934" data-name="Path 181934" d="M96.368,358.373c.244-1.261.5-2.629.782-3.988.074-.351.3-.67.735-.576a.645.645,0,0,1,.494.807c-.274,1.4-.582,2.8-.9,4.19a.56.56,0,0,1-.672.495c-.43-.094-.471-.452-.438-.927" transform="translate(-68.317 -250.833)"/>
        <path id="Path_181935" data-name="Path 181935" d="M203.914,359.984c.307-1.566.614-3.158.933-4.747.063-.314.185-.642.6-.519a.524.524,0,0,1,.36.647c-.322,1.628-.643,3.256-.985,4.88-.057.271-.234.512-.576.431-.361-.086-.28-.4-.331-.692" transform="translate(-144.572 -251.471)"/>
        <path id="Path_181936" data-name="Path 181936" d="M116.424,352.993c-.248,1.381-.51,2.866-.786,4.348-.055.3-.254.507-.573.432s-.365-.372-.319-.655c.235-1.45.472-2.9.727-4.347.056-.318.22-.615.618-.537.347.068.321.381.333.758" transform="translate(-81.342 -249.72)"/>
        <path id="Path_181937" data-name="Path 181937" d="M132.319,360.786c-.167.482.389,1.4-.318,1.463-.853.077-.523-.9-.61-1.445a10.85,10.85,0,0,1-.078-1.609c0-.265.01-.575.385-.589.355-.014.44.277.474.543.068.533.1,1.07.147,1.637" transform="translate(-93.099 -254.246)"/>
        <path id="Path_181938" data-name="Path 181938" d="M221.875,362.308c.064.566.006.844-.292.944s-.524-.108-.614-.379c-.231-.7-.44-1.4-.641-2.1a.505.505,0,1,1,.966-.294c.239.691.444,1.393.581,1.833" transform="translate(-156.19 -255.297)"/>
        <path id="Path_181939" data-name="Path 181939" d="M36.7,315.14c-.3.734-.622,1.551-.969,2.357a.413.413,0,0,1-.561.253.421.421,0,0,1-.247-.568c.31-.821.635-1.638.989-2.441a.4.4,0,0,1,.588-.176c.2.1.23.286.2.575" transform="translate(-24.739 -222.979)"/>
        <path id="Path_181940" data-name="Path 181940" d="M87.361,67.187a.475.475,0,0,1-.346-.7q1.193-3.506,2.4-7.009c.1-.278.268-.506.6-.393s.343.379.245.669q-1.19,3.506-2.382,7.012a.522.522,0,0,1-.508.42" transform="translate(-61.659 -41.87)"/>
        <path id="Path_181941" data-name="Path 181941" d="M85.214,32.083a1.274,1.274,0,0,1-.071.2Q83.7,34.993,82.258,37.7a.41.41,0,0,1-.572.227c-.308-.148-.315-.4-.179-.683.32-.659.618-1.329.96-1.975.577-1.091,1.177-2.171,1.779-3.249.147-.263.3-.579.7-.417a.435.435,0,0,1,.264.481" transform="translate(-57.727 -22.374)"/>
        <path id="Path_181942" data-name="Path 181942" d="M88.04,46.094c-.071.148-.16.36-.272.56-.829,1.48-1.658,2.96-2.5,4.433-.178.311-.318.833-.821.539-.38-.222-.182-.606,0-.921q1.332-2.369,2.661-4.74c.155-.275.333-.554.716-.419.2.072.243.274.219.548" transform="translate(-59.719 -32.267)"/>
        <path id="Path_181943" data-name="Path 181943" d="M258.33,44.609a1.061,1.061,0,0,1-.049.3c-.925,1.51-1.848,3.021-2.795,4.517a.4.4,0,0,1-.6.128.436.436,0,0,1-.1-.617c.9-1.48,1.8-2.962,2.713-4.432a.407.407,0,0,1,.587-.185,1.162,1.162,0,0,1,.244.287" transform="translate(-180.579 -31.376)"/>
        <path id="Path_181944" data-name="Path 181944" d="M259.734,31.414c-.1.168-.17.3-.257.425q-.966,1.365-1.94,2.724c-.185.257-.41.531-.748.3a.5.5,0,0,1-.054-.732q1.069-1.5,2.178-2.974a.427.427,0,0,1,.613-.115c.1.075.14.245.209.376" transform="translate(-181.928 -21.946)"/>
      </g>
    </g>
  </g>
</svg>
