<svg xmlns="http://www.w3.org/2000/svg" xmlns:xlink="http://www.w3.org/1999/xlink" width="320.421" height="188.791" viewBox="0 0 320.421 188.791">
  <defs>
    <clipPath id="clip-path">
      <rect id="Rectangle_26706" data-name="Rectangle 26706" width="320.421" height="188.791" fill="#f5f6fa"/>
    </clipPath>
    <clipPath id="clip-path-2">
      <rect id="Rectangle_26718" data-name="Rectangle 26718" width="153.075" height="85.53" fill="none"/>
    </clipPath>
  </defs>
  <g id="Group_101496" data-name="Group 101496" transform="translate(-27.863 -194.712)">
    <g id="Group_101470" data-name="Group 101470" transform="translate(27.863 194.712)">
      <g id="Group_101469" data-name="Group 101469" transform="translate(0 0)" clip-path="url(#clip-path)">
        <path id="Path_181901" data-name="Path 181901" d="M63.132,3.8S-14.81,26.066,2.513,123.181c0,0,12.37,84.128,106.394,61.86,45.85-18.785,96.671-25.51,144.666-13a47.064,47.064,0,0,0,5.641,1.224c13.846,1.831,33.724-4.538,45.458-11.955,5.468-3.454,10.437-7.982,13.1-13.993,4-9.033,3.862-17.975-3.1-25.053A126.883,126.883,0,0,1,287.446,80.6c-7.248-18.2-5.958-33.764-5.958-52.676,0,0-.617-40.2-42.68-24.123-15.207,5.814-28.573,15.909-44.4,21.152-22.549,7.466-47.018,10.581-66.881-5.419-3.408-2.742-6.49-5.9-10.078-8.4C103.389,1.3,79.436-.862,63.132,3.8" transform="translate(0.001 -0.001)" fill="#f5f6fa"/>
        <g id="Group_101505" data-name="Group 101505" transform="translate(85.137 54.288)">
          <g id="Group_101505-2" data-name="Group 101505" clip-path="url(#clip-path-2)">
            <path id="Path_181993" data-name="Path 181993" d="M153.07,57.31a7.44,7.44,0,0,0-2.97-6.23,10.7,10.7,0,0,1-4.32-8.35,10.756,10.756,0,0,1,4.4-8.37,7.184,7.184,0,0,0,2.88-5.97q-.03-6.54-.02-13.06.015-4.08,0-8.16c0-4.49-2.69-7.17-7.2-7.17Q76.51,0,7.15.01A10.091,10.091,0,0,0,5.16.18C2.66.73,1.01,2.35,0,5.3V30.11A10.032,10.032,0,0,0,3.5,34.9a10.152,10.152,0,0,1,1.4,1.38,10.039,10.039,0,0,1,2.31,7.38,10.075,10.075,0,0,1-3.59,6.85A10.921,10.921,0,0,0,0,55.26V80.34c1.35,3.54,3.66,5.19,7.26,5.19q69.27,0,138.54-.02c4.6,0,7.24-2.66,7.24-7.29.01-2.31,0-4.61,0-6.92-.01-4.58-.01-9.32.03-13.99m-3.54,15.23.01,5.29c-.01,3.2.005,5.677-3.145,5.677L7.93,82.01c-.16,0-.32.01-.48.01-.29,0-.6-.01-.9-.04a1.617,1.617,0,0,1-.3-.01A2.982,2.982,0,0,1,4.21,80.9a3.049,3.049,0,0,1-.68-2.21c-.02-4.1-.01-8.24-.01-12.39,0-3.17,0-6.35-.01-9.52,0-1.61,1.07-2.47,2.01-3.23A13.758,13.758,0,0,0,8.09,34.63a13.451,13.451,0,0,0-2.96-2.97,3.885,3.885,0,0,1-1.63-3.4c.02-4.48.02-9,.01-13.51L2.846,7.668c.01-2.6,1.524-5.935,4.194-5.935L145.25,3.52c3.37,0,4.29.92,4.29,4.31l-.01,5.35c0,4.98-.01,9.97.02,14.95a4.267,4.267,0,0,1-1.73,3.63,13.691,13.691,0,0,0,0,22,4.22,4.22,0,0,1,1.73,3.63c-.03,5.04-.02,10.09-.02,15.15" fill="#040504"/>
            <path id="Path_181994" data-name="Path 181994" d="M56.6,31.33c-1.79-.01-3.59-.01-5.38,0h-2.7v-.5l-.31-.4c.84-.64,1.71-1.22,2.55-1.79a30.067,30.067,0,0,0,3.46-2.56,6.206,6.206,0,0,0,.73-.72,6.567,6.567,0,1,0-9.91-8.62,27.6,27.6,0,0,0-2.82,3.96,9,9,0,0,1-1.6,2.42l-.48.52-.33-.63a37.429,37.429,0,0,0-4.15-6.27,5.188,5.188,0,0,0-.57-.58,6.572,6.572,0,0,0-8.76,9.8,31.163,31.163,0,0,0,5.23,3.57c.08.04.15.07.21.1a1.466,1.466,0,0,1,.99,1.11l.11.59H29.49c-.91,0-1.81-.01-2.71-.01s-1.8.01-2.7.01c-3.14.02-4.8,1.69-4.8,4.83q-.015,13.845,0,27.68c.01,3.12,1.62,4.77,4.67,4.78,10.88.02,21.91.02,32.79,0,3.02-.01,4.62-1.61,4.63-4.64q.03-13.98,0-27.97c-.01-3.05-1.66-4.66-4.77-4.68M47.15,19.65a3.454,3.454,0,0,1,2.88-1.66,3.068,3.068,0,0,1,1.94,5.39,29.26,29.26,0,0,1-5.76,3.73c-.64.35-1.3.69-1.97,1.04l-.92.48-.24-.44v-.01l-.46-.17a34.711,34.711,0,0,1,4.53-8.36M28.82,23.44a3.25,3.25,0,0,1-.44-.4c-1.1-1.21-1.329-4.513-.109-5.613a2.714,2.714,0,0,1,.39-.34,4.767,4.767,0,0,1,2.833-.754,2.988,2.988,0,0,1,1.93,1.24c2.04,2.59,3.456,7.157,4.7,10.237l-.46.19-.19.46a33.995,33.995,0,0,1-8.65-5.02M57.9,62.79a2.525,2.525,0,0,1-.5,1.87,2.29,2.29,0,0,1-1.65.5H55.6c-3.69-.07-7.45-.06-11.08-.05-1.42.01-2.83.01-4.25.01v-.5h-.01v.5H36.08c-3.7-.01-7.54-.02-11.3.02a2.161,2.161,0,0,1-1.57-.45,2.105,2.105,0,0,1-.45-1.57c.07-4.95.07-9.75,0-14.27a2.052,2.052,0,0,1,.44-1.53,2.163,2.163,0,0,1,1.6-.45c4.72.04,9.43.03,14.15.02h5.1a9.82,9.82,0,0,0,1.44-.04,1.542,1.542,0,0,0,1.37-1.45c.13-.79-1.808-1.156-2.508-1.436-.53-.19-1.272.269-1.69-.21l-7.493-.078c-4.57-.01-5.489-.316-10.129-.256a2.378,2.378,0,0,1-1.87-.54,2.4,2.4,0,0,1-.41-1.85,38.5,38.5,0,0,0,.02-4.43,1.793,1.793,0,0,1,.36-1.36,1.779,1.779,0,0,1,1.29-.41c10.53.02,21.21.02,31.73,0h.02a1.8,1.8,0,0,1,1.32.41,1.772,1.772,0,0,1,.38,1.29c-.05,1.66-.05,3.42,0,5.24a1.715,1.715,0,0,1-.39,1.29,1.649,1.649,0,0,1-1.25.34,4.8,4.8,0,0,0-1.93.12,1.721,1.721,0,0,0,.35,3.36,3.707,3.707,0,0,0,.87-.03c.71-.08,1.59-.18,2.05.56a3.935,3.935,0,0,1,.31,2.33c-.01.24-.03.49-.03.73,0,1.35,0,2.7-.01,4.06,0,2.71-.01,5.51.05,8.26" fill="#040504"/>
            <path id="Path_181995" data-name="Path 181995" d="M129.626,20.866a9.678,9.678,0,0,1-1.457,2.076L101.76,59.68c-1.39,1.79-2.77,3.58-4.17,5.36a2.727,2.727,0,0,1-1.71,1.14,1.517,1.517,0,0,1-1.18-.39c-1.12-.93-.4-2.21.13-2.9,10.457-13.458,21.4-27.528,33.03-42.5.59-.75,1.09-1.09,1.66-1.09a1.79,1.79,0,0,1,.62.12c.21.256-.205.958-.514,1.446" fill="#040504"/>
            <path id="Path_181996" data-name="Path 181996" d="M124.81,48.22h-.01a8.99,8.99,0,0,0-8.98,8.97,9,9,0,0,0,8.96,9h.02a8.985,8.985,0,0,0,.01-17.97m3.77,12.91a5.382,5.382,0,0,1-3.79,1.54h-.22A5.333,5.333,0,0,1,120.8,61a5.39,5.39,0,0,1-1.49-3.85,5.478,5.478,0,0,1,5.47-5.41h.05a5.53,5.53,0,0,1,5.42,5.55,5.434,5.434,0,0,1-1.67,3.84" fill="#040504"/>
            <path id="Path_181997" data-name="Path 181997" d="M106.94,21.9a8.886,8.886,0,0,0-6.33-2.61h-.03a8.984,8.984,0,0,0-8.95,9,8.962,8.962,0,0,0,8.98,8.95h.02a8.973,8.973,0,0,0,6.31-15.34m-6.22,11.83h-.14a5.377,5.377,0,0,1-5.38-5.38,5.463,5.463,0,0,1,5.36-5.55,5.466,5.466,0,1,1,.16,10.93" fill="#040504"/>
            <path id="Path_181998" data-name="Path 181998" d="M78.23,74.22a1.59,1.59,0,0,1-1.59,1.6h-.2a1.487,1.487,0,0,1-1.1-.38,1.529,1.529,0,0,1-.51-1.05v-.15a49.139,49.139,0,0,1,.01-5.15,1.746,1.746,0,0,1,.63-1.14,1.7,1.7,0,0,1,2.73,1.07,23.058,23.058,0,0,1,.02,2.63v.53h.03c0,.1.01.2.01.3a14.474,14.474,0,0,1-.03,1.74" fill="#040504"/>
            <path id="Path_181999" data-name="Path 181999" d="M78.23,13.93a21.056,21.056,0,0,1-.02,2.51,1.551,1.551,0,0,1-1.56,1.51l-.18-.01a1.508,1.508,0,0,1-1.63-1.37c0-.05-.01-.1-.01-.18a50.3,50.3,0,0,1,0-5.21,1.519,1.519,0,0,1,1.52-1.51.918.918,0,0,1,.22.01,1.569,1.569,0,0,1,1.65,1.46v.11a15.853,15.853,0,0,1,.03,1.83c-.01.28-.02.55-.02.83h.41Z" fill="#040504"/>
            <path id="Path_182000" data-name="Path 182000" d="M78.25,29.13a12.836,12.836,0,0,1-.03,1.75,1.513,1.513,0,0,1-.45,1.08,1.536,1.536,0,0,1-1.09.45H76.5a1.494,1.494,0,0,1-1.65-1.31c0-.06-.01-.11-.01-.19a47.652,47.652,0,0,1-.01-5.21,1.57,1.57,0,0,1,1.57-1.57h.11a1.693,1.693,0,0,1,1.73,1.7,13.682,13.682,0,0,1,.02,1.7c0,.27-.01.54-.01.8h-.01c0,.27,0,.53.01.8" fill="#040504"/>
            <path id="Path_182001" data-name="Path 182001" d="M78.21,42.86a20.983,20.983,0,0,1-.02,2.63,1.484,1.484,0,0,1-1.63,1.38h-.1a1.42,1.42,0,0,1-1.05-.3,1.464,1.464,0,0,1-.54-.97v-.12a41.753,41.753,0,0,1,0-5.48,1.461,1.461,0,0,1,1.46-1.39h.07l.17.01a1.512,1.512,0,0,1,1.62,1.41,23.442,23.442,0,0,1,.02,2.78l.49.03Z" fill="#040504"/>
            <path id="Path_182002" data-name="Path 182002" d="M78.22,57.23a23.445,23.445,0,0,1-.01,2.65,1.563,1.563,0,0,1-.48,1.06,1.529,1.529,0,0,1-1.04.41c-.06,0-.08-.01-.27-.01a1.458,1.458,0,0,1-1.56-1.31l-.01-.13a49.323,49.323,0,0,1-.01-5.3,1.7,1.7,0,0,1,1.87-1.5,1.679,1.679,0,0,1,1.49,1.44,25.809,25.809,0,0,1,.02,2.64l.5.02Z" fill="#040504"/>
          </g>
        </g>
      </g>
    </g>
  </g>
</svg>
