<svg xmlns="http://www.w3.org/2000/svg" width="17" height="16.909" viewBox="0 0 17 16.909">
  <path id="Subtraction_1" data-name="Subtraction 1" d="M-3622.473-1275.09h0v-5.772h1.643l.149-2.055h-1.836c0-.011,0-.926,0-1.179a.616.616,0,0,1,.688-.614h1.141v-2.063h-1.916a2.113,2.113,0,0,0-2.4,2.122c0,.392,0,.783,0,1.128,0,.2,0,.4,0,.611h-1.315v2.088h1.356v5.669a8.513,8.513,0,0,1-5.018-2.869,8.479,8.479,0,0,1-2.019-5.491,8.5,8.5,0,0,1,8.5-8.485,8.5,8.5,0,0,1,8.5,8.485,8.49,8.49,0,0,1-7.472,8.424Z" transform="translate(3632 1292)" fill="#007fff"/>
</svg>
