<svg xmlns="http://www.w3.org/2000/svg" width="18" height="19.143" viewBox="0 0 18 19.143">
  <g id="Group_92629" data-name="Group 92629" transform="translate(-327 -151.857)">
    <g id="Group_92628" data-name="Group 92628" transform="translate(329.143 152.857)">
      <line id="Line_5" data-name="Line 5" y2="17.143" transform="translate(0 0)" fill="none" stroke="#282828" stroke-linecap="round" stroke-width="2"/>
      <line id="Line_6" data-name="Line 6" y2="17.143" transform="translate(6.857 0)" fill="none" stroke="#282828" stroke-linecap="round" stroke-width="2"/>
      <line id="Line_7" data-name="Line 7" y2="17.143" transform="translate(13.714 0)" fill="none" stroke="#282828" stroke-linecap="round" stroke-width="2"/>
    </g>
    <g id="Ellipse_28" data-name="Ellipse 28" transform="translate(327 159.286)" fill="#fff" stroke="#21222d" stroke-width="1">
      <circle cx="2.143" cy="2.143" r="2.143" stroke="none"/>
      <circle cx="2.143" cy="2.143" r="1.643" fill="none"/>
    </g>
    <g id="Ellipse_31" data-name="Ellipse 31" transform="translate(333.857 153.857)" fill="#fff" stroke="#21222d" stroke-width="1">
      <circle cx="2.143" cy="2.143" r="2.143" stroke="none"/>
      <circle cx="2.143" cy="2.143" r="1.643" fill="none"/>
    </g>
    <g id="Path_59220" data-name="Path 59220" transform="translate(340.714 161.571)" fill="#fff">
      <path d="M 2.142857074737549 3.785717010498047 C 1.236977100372314 3.785717010498047 0.499997079372406 3.048737049102783 0.499997079372406 2.142857074737549 C 0.499997079372406 1.236977100372314 1.236977100372314 0.499997079372406 2.142857074737549 0.499997079372406 C 3.048737049102783 0.499997079372406 3.785717010498047 1.236977100372314 3.785717010498047 2.142857074737549 C 3.785717010498047 3.048737049102783 3.048737049102783 3.785717010498047 2.142857074737549 3.785717010498047 Z" stroke="none"/>
      <path d="M 2.142857074737549 0.9999971389770508 C 1.512677192687988 0.9999971389770508 0.9999971389770508 1.512677192687988 0.9999971389770508 2.142857074737549 C 0.9999971389770508 2.773036956787109 1.512677192687988 3.285717010498047 2.142857074737549 3.285717010498047 C 2.773036956787109 3.285717010498047 3.285717010498047 2.773036956787109 3.285717010498047 2.142857074737549 C 3.285717010498047 1.512677192687988 2.773036956787109 0.9999971389770508 2.142857074737549 0.9999971389770508 M 2.142857074737549 -2.86102294921875e-06 C 3.326327085494995 -2.86102294921875e-06 4.285717010498047 0.9593870639801025 4.285717010498047 2.142857074737549 C 4.285717010498047 3.326327085494995 3.326327085494995 4.285717010498047 2.142857074737549 4.285717010498047 C 0.9593870639801025 4.285717010498047 -2.86102294921875e-06 3.326327085494995 -2.86102294921875e-06 2.142857074737549 C -2.86102294921875e-06 0.9593870639801025 0.9593870639801025 -2.86102294921875e-06 2.142857074737549 -2.86102294921875e-06 Z" stroke="none" fill="#21222d"/>
    </g>
  </g>
</svg>
