<svg width="136" height="40" viewBox="0 0 136 40" fill="none" xmlns="http://www.w3.org/2000/svg">
<path fill-rule="evenodd" clip-rule="evenodd" d="M130.534 40H5.02244C2.25436 40 0 37.7456 0 35V5C0 2.24439 2.25436 0 5.02244 0H130.534C133.299 0 135.556 2.24439 135.556 5V35C135.556 37.7456 133.299 40 130.534 40Z" fill="black"/>
<path fill-rule="evenodd" clip-rule="evenodd" d="M130.534 0.800499C132.855 0.800499 134.756 2.68828 134.756 5V35C134.756 37.3117 132.868 39.1995 130.534 39.1995H5.02244C2.70075 39.1995 0.800499 37.3117 0.800499 35V5C0.800499 2.68828 2.68828 0.800499 5.02244 0.800499C5.02244 0.800499 130.534 0.800499 130.534 0.800499ZM130.534 0H5.02244C2.25436 0 0 2.25436 0 5V35C0 37.7556 2.25436 40 5.02244 40H130.534C133.299 40 135.556 37.7556 135.556 35V5C135.556 2.25436 133.299 0 130.534 0Z" fill="#A6A6A6"/>
<path d="M71.4115 13.2319C70.5063 13.2319 69.7432 12.9152 69.1397 12.2917C68.5412 11.6858 68.207 10.8504 68.222 9.99748C68.222 9.08726 68.5312 8.31669 69.1397 7.70571C69.7407 7.08227 70.5038 6.76556 71.409 6.76556C72.3043 6.76556 73.0674 7.08227 73.6808 7.70571C74.2893 8.33664 74.5985 9.10721 74.5985 9.99748C74.5886 10.9102 74.2793 11.6808 73.6808 12.2893C73.0798 12.9177 72.3167 13.2319 71.4115 13.2319ZM44.4763 13.2319C43.5911 13.2319 42.823 12.9202 42.1945 12.3042C41.5711 11.6908 41.2544 10.9152 41.2544 9.99998C41.2544 9.08477 41.5711 8.30921 42.1945 7.69574C42.8105 7.07978 43.5786 6.76806 44.4763 6.76806C44.9152 6.76806 45.3417 6.85534 45.7507 7.0324C46.1521 7.20447 46.4788 7.43888 46.7207 7.72566L46.7806 7.79798L46.1048 8.46132L46.0349 8.37903C45.6534 7.92517 45.1422 7.70322 44.4664 7.70322C43.8629 7.70322 43.3367 7.91768 42.9028 8.34162C42.4664 8.76806 42.2444 9.32666 42.2444 10.0025C42.2444 10.6783 42.4664 11.2369 42.9028 11.6633C43.3367 12.0873 43.8629 12.3017 44.4664 12.3017C45.1098 12.3017 45.6509 12.0873 46.0723 11.6633C46.3217 11.4139 46.4763 11.0648 46.5312 10.6234H44.3641V9.69075H47.4614L47.4738 9.77554C47.4963 9.93265 47.5187 10.0947 47.5187 10.2444C47.5187 11.1047 47.2594 11.8005 46.7457 12.3142C46.1621 12.9227 45.399 13.2319 44.4763 13.2319ZM80.2893 13.0997H79.3342L76.409 8.41893L76.4339 9.26182V13.0972H75.4788V6.90023H76.5686L76.5985 6.94761L79.3492 11.3566L79.3242 10.5162V6.90023H80.2893V13.0997V13.0997ZM64.2344 13.0997H63.2669V7.8329H61.5886V6.90023H65.9103V7.8329H64.2319V13.0997H64.2344ZM60.8005 13.0997H59.8354V6.90023H60.8005V13.0997ZM55.3766 13.0997H54.4115V7.8329H52.7332V6.90023H57.0549V7.8329H55.3766V13.0997ZM52.1222 13.0898H48.4215V6.90023H52.1222V7.8329H49.3891V9.53364H51.8554V10.4563H49.3891V12.1571H52.1222V13.0898ZM69.8479 11.6509C70.2793 12.0823 70.803 12.2992 71.4115 12.2992C72.0374 12.2992 72.5487 12.0873 72.9751 11.6509C73.399 11.2269 73.6135 10.6708 73.6135 9.99998C73.6135 9.32916 73.399 8.77055 72.9776 8.34911C72.5462 7.91768 72.02 7.70073 71.414 7.70073C70.7881 7.70073 70.2768 7.9127 69.8529 8.34911C69.429 8.77305 69.2145 9.32916 69.2145 9.99998C69.2145 10.6708 69.4265 11.2294 69.8479 11.6509Z" fill="white"/>
<path fill-rule="evenodd" clip-rule="evenodd" d="M68.1323 21.7556C65.7757 21.7556 63.8654 23.5436 63.8654 26.01C63.8654 28.4539 65.7881 30.2643 68.1323 30.2643C70.4889 30.2643 72.3991 28.4638 72.3991 26.01C72.3991 23.5436 70.4889 21.7556 68.1323 21.7556ZM68.1323 28.5785C66.843 28.5785 65.7333 27.5112 65.7333 26C65.7333 24.4663 66.8455 23.4214 68.1323 23.4214C69.4216 23.4214 70.5313 24.4663 70.5313 26C70.5338 27.5212 69.4216 28.5785 68.1323 28.5785ZM58.823 21.7556C56.4664 21.7556 54.5562 23.5436 54.5562 26.01C54.5562 28.4539 56.4789 30.2643 58.823 30.2643C61.1797 30.2643 63.0899 28.4638 63.0899 26.01C63.0899 23.5436 61.1772 21.7556 58.823 21.7556ZM58.823 28.5785C57.5338 28.5785 56.424 27.5112 56.424 26C56.424 24.4663 57.5363 23.4214 58.823 23.4214C60.1123 23.4214 61.222 24.4663 61.222 26C61.222 27.5212 60.1123 28.5785 58.823 28.5785ZM47.7457 23.0549V24.8554H52.0674C51.9353 25.8653 51.6011 26.611 51.0899 27.1222C50.4565 27.7556 49.4789 28.4439 47.7557 28.4439C45.0999 28.4439 43.0225 26.2992 43.0225 23.6434C43.0225 20.9875 45.0999 18.8429 47.7557 18.8429C49.1896 18.8429 50.2345 19.409 51.0101 20.1322L52.2869 18.8554C51.2096 17.8229 49.7757 17.0324 47.7657 17.0324C44.1223 17.0324 41.0649 20 41.0649 23.6334C41.0649 27.2768 44.1198 30.2344 47.7657 30.2344C49.7333 30.2344 51.2096 29.591 52.3767 28.379C53.5662 27.1895 53.9427 25.5112 53.9427 24.1571C53.9427 23.7357 53.9103 23.3566 53.843 23.0349H47.7432C47.7457 23.0324 47.7457 23.0549 47.7457 23.0549ZM93.055 24.4564C92.6984 23.5012 91.621 21.7456 89.4116 21.7456C87.222 21.7456 85.4016 23.4688 85.4016 26C85.4016 28.389 87.2021 30.2544 89.6235 30.2544C91.5687 30.2544 92.7008 29.0648 93.1672 28.3666L91.7233 27.399C91.2445 28.1097 90.5787 28.5761 89.6335 28.5761C88.6784 28.5761 88.0101 28.1421 87.5662 27.2868L93.2545 24.9302C93.2545 24.9327 93.055 24.4564 93.055 24.4564ZM87.2545 25.8778C87.2096 24.2344 88.5313 23.399 89.4764 23.399C90.222 23.399 90.843 23.7656 91.055 24.2992L87.2545 25.8778ZM82.6335 30H84.5013V17.5012H82.6335V30ZM79.5662 22.7007H79.4989C79.0774 22.1995 78.2769 21.7456 77.2545 21.7456C75.1323 21.7456 73.1772 23.6135 73.1772 26.0125C73.1772 28.4015 75.1223 30.2469 77.2545 30.2469C78.2644 30.2469 79.0774 29.7905 79.4989 29.2793H79.5662V29.8903C79.5662 31.5137 78.6984 32.389 77.2994 32.389C76.1547 32.389 75.444 31.5661 75.1547 30.8778L73.5313 31.5561C73.9976 32.6783 75.242 34.0673 77.2969 34.0673C79.4864 34.0673 81.3417 32.778 81.3417 29.6334V22H79.5762V22.7007C79.5787 22.7007 79.5662 22.7007 79.5662 22.7007ZM77.4216 28.5785C76.1323 28.5785 75.055 27.5012 75.055 26.0125C75.055 24.5112 76.1323 23.4239 77.4216 23.4239C78.6984 23.4239 79.6884 24.5237 79.6884 26.0125C79.7008 27.5012 78.7009 28.5785 77.4216 28.5785ZM101.801 17.5012H97.3343V30H99.2021V25.2668H101.803C103.87 25.2668 105.903 23.7681 105.903 21.389C105.903 19.01 103.878 17.5012 101.801 17.5012ZM101.855 23.5212H99.1996V19.2319H101.855C103.254 19.2319 104.045 20.3865 104.045 21.3765C104.045 22.3566 103.244 23.5212 101.855 23.5212ZM113.389 21.7332C112.033 21.7332 110.634 22.3342 110.055 23.6434L111.711 24.3317C112.067 23.6434 112.721 23.409 113.412 23.409C114.379 23.409 115.357 23.9875 115.379 25.0199V25.1521C115.045 24.9626 114.312 24.6733 113.434 24.6733C111.646 24.6733 109.833 25.6509 109.833 27.4838C109.833 29.1621 111.299 30.2394 112.933 30.2394C114.187 30.2394 114.878 29.6733 115.309 29.0174H115.377V29.985H117.177V25.197C117.177 22.9676 115.521 21.7332 113.389 21.7332ZM113.155 28.5785C112.544 28.5785 111.688 28.2793 111.688 27.5112C111.688 26.5436 112.756 26.177 113.666 26.177C114.489 26.177 114.878 26.3541 115.367 26.5985C115.232 27.7207 114.284 28.5686 113.155 28.5785ZM123.746 22L121.601 27.4214H121.534L119.312 22H117.302L120.636 29.5785L118.736 33.7905H120.681L125.811 22H123.746ZM106.933 30H108.801V17.5012H106.933V30Z" fill="white"/>
<path fill-rule="evenodd" clip-rule="evenodd" d="M10.4339 7.5337C10.1446 7.84542 9.97754 8.32173 9.97754 8.94517V31.0574C9.97754 31.6808 10.1446 32.1571 10.4439 32.4564L10.5212 32.5237L22.9102 20.1347V19.8579L10.5112 7.46637L10.4339 7.5337Z" fill="url(#paint0_linear_605_54)"/>
<path fill-rule="evenodd" clip-rule="evenodd" d="M27.0326 24.2768L22.9004 20.1447V19.8554L27.0326 15.7232L27.1223 15.7781L32.0101 18.5561C33.4091 19.3442 33.4091 20.6459 32.0101 21.4439L27.1223 24.222L27.0326 24.2768Z" fill="url(#paint1_linear_605_54)"/>
<path fill-rule="evenodd" clip-rule="evenodd" d="M27.1224 24.2219L22.9004 20L10.4341 32.4663C10.8904 32.9551 11.656 33.01 12.5114 32.5337L27.1224 24.2219Z" fill="url(#paint2_linear_605_54)"/>
<path fill-rule="evenodd" clip-rule="evenodd" d="M27.1224 15.7781L12.5114 7.47882C11.656 6.99004 10.8879 7.05737 10.4341 7.54615L22.9004 20L27.1224 15.7781Z" fill="url(#paint3_linear_605_54)"/>
<path opacity="0.2" fill-rule="evenodd" clip-rule="evenodd" d="M27.0324 24.1321L12.5212 32.3765C11.7107 32.8429 10.9875 32.8104 10.5212 32.3865L10.4438 32.4638L10.5212 32.5311C10.9875 32.9526 11.7107 32.9875 12.5212 32.5212L27.1321 24.2219L27.0324 24.1321Z" fill="black"/>
<path opacity="0.12" fill-rule="evenodd" clip-rule="evenodd" d="M32.01 21.2993L27.02 24.1322L27.1098 24.2219L31.9976 21.4439C32.6983 21.0449 33.0425 20.5212 33.0425 20C33.0001 20.4788 32.6435 20.9327 32.01 21.2993Z" fill="black"/>
<path opacity="0.25" fill-rule="evenodd" clip-rule="evenodd" d="M12.5112 7.62342L32.01 18.7007C32.6434 19.0573 33 19.5237 33.0548 20C33.0548 19.4788 32.7107 18.9551 32.01 18.5561L12.5112 7.47878C11.1122 6.67828 9.97754 7.34661 9.97754 8.94511V9.08975C9.97754 7.48875 11.1122 6.83289 12.5112 7.62342Z" fill="white"/>
<defs>
<linearGradient id="paint0_linear_605_54" x1="21.7989" y1="8.7066" x2="1.95385" y2="13.9944" gradientUnits="userSpaceOnUse">
<stop stop-color="#00A0FF"/>
<stop offset="0.00657" stop-color="#00A1FF"/>
<stop offset="0.2601" stop-color="#00BEFF"/>
<stop offset="0.5122" stop-color="#00D2FF"/>
<stop offset="0.7604" stop-color="#00DFFF"/>
<stop offset="1" stop-color="#00E3FF"/>
</linearGradient>
<linearGradient id="paint1_linear_605_54" x1="33.8345" y1="20.0001" x2="9.63767" y2="20.0001" gradientUnits="userSpaceOnUse">
<stop stop-color="#FFE000"/>
<stop offset="0.4087" stop-color="#FFBD00"/>
<stop offset="0.7754" stop-color="#FFA500"/>
<stop offset="1" stop-color="#FF9C00"/>
</linearGradient>
<linearGradient id="paint2_linear_605_54" x1="24.8266" y1="22.2973" x2="8.8951" y2="49.1114" gradientUnits="userSpaceOnUse">
<stop stop-color="#FF3A44"/>
<stop offset="1" stop-color="#C31162"/>
</linearGradient>
<linearGradient id="paint3_linear_605_54" x1="7.29492" y1="0.178805" x2="14.4026" y2="12.1544" gradientUnits="userSpaceOnUse">
<stop stop-color="#32A071"/>
<stop offset="0.0685" stop-color="#2DA771"/>
<stop offset="0.4762" stop-color="#15CF74"/>
<stop offset="0.8009" stop-color="#06E775"/>
<stop offset="1" stop-color="#00F076"/>
</linearGradient>
</defs>
</svg>
