<svg xmlns="http://www.w3.org/2000/svg" xmlns:xlink="http://www.w3.org/1999/xlink" width="35.382" height="35.382" viewBox="0 0 35.382 35.382"><defs><style>.a{fill:url(#a);}.b{fill:#fff;}</style><linearGradient id="a" x1="0.032" y1="0.104" x2="1.031" y2="0.949" gradientUnits="objectBoundingBox"><stop offset="0.001" stop-color="#fbe18a"/><stop offset="0.209" stop-color="#fcbb45"/><stop offset="0.376" stop-color="#f75274"/><stop offset="0.524" stop-color="#d53692"/><stop offset="0.739" stop-color="#8f39ce"/><stop offset="1" stop-color="#5b4fe9"/></linearGradient></defs><g transform="translate(-361.318 -150.755)"><circle class="a" cx="17.691" cy="17.691" r="17.691" transform="translate(361.318 150.755)"/><path class="b" d="M384.5,161.753a1.216,1.216,0,1,0,1.216,1.216A1.215,1.215,0,0,0,384.5,161.753Z"/><path class="b" d="M379.094,163.312a5.109,5.109,0,1,0,5.109,5.109A5.115,5.115,0,0,0,379.094,163.312Zm0,8.381a3.272,3.272,0,1,1,3.272-3.272A3.276,3.276,0,0,1,379.094,171.693Z"/><path class="b" d="M383.15,178.792h-8.282a6.238,6.238,0,0,1-6.23-6.231V164.28a6.238,6.238,0,0,1,6.23-6.231h8.282a6.238,6.238,0,0,1,6.23,6.231v8.281A6.238,6.238,0,0,1,383.15,178.792ZM374.868,160a4.284,4.284,0,0,0-4.279,4.279v8.281a4.285,4.285,0,0,0,4.279,4.28h8.282a4.285,4.285,0,0,0,4.279-4.28V164.28A4.284,4.284,0,0,0,383.15,160Z"/></g></svg>