<svg xmlns="http://www.w3.org/2000/svg" width="24" height="24" viewBox="0 0 24 24">
  <g id="vuesax_bold_logout" data-name="vuesax/bold/logout" transform="translate(-748 -444)">
    <g id="logout">
      <path id="Subtraction_6" data-name="Subtraction 6" d="M2162.86-7780.151a.5.5,0,0,1-.37-.167l-2.338-2.579a.6.6,0,0,1-.152-.408.6.6,0,0,1,.152-.408l2.338-2.577a.5.5,0,0,1,.37-.167.5.5,0,0,1,.372.167.584.584,0,0,1,.153.407.6.6,0,0,1-.153.409l-1.446,1.594h7.462a.553.553,0,0,1,.523.577.559.559,0,0,1-.523.577h-7.462l1.446,1.594a.6.6,0,0,1,.152.408.6.6,0,0,1-.152.408A.5.5,0,0,1,2162.86-7780.151Z" transform="translate(-1407.694 8239.305)" fill="#33a1e1"/>
      <path id="Vector" d="M0,0H24V24H0Z" transform="translate(772 468) rotate(180)" fill="none" opacity="0"/>
      <path id="Vector-2" data-name="Vector" d="M6,0H4A3.718,3.718,0,0,0,0,4V7.118H4.81a.577.577,0,1,1,0,1.154H0v3.117a3.718,3.718,0,0,0,4,4H5.995a3.718,3.718,0,0,0,4-4V4A3.709,3.709,0,0,0,6,0Z" transform="translate(756.691 448.305)" fill="#9dadbd" opacity="0.4"/>
    </g>
  </g>
</svg>
