<svg xmlns="http://www.w3.org/2000/svg" width="24" height="24" viewBox="0 0 24 24">
  <g id="vuesax_bold_discount-shape" data-name="vuesax/bold/discount-shape" transform="translate(-364 -316)">
    <g id="discount-shape">
      <path id="Vector" d="M0,0H24V24H0Z" transform="translate(364 316)" fill="none" opacity="0"/>
      <path id="Vector-2" data-name="Vector" d="M16.152,7.334,14.895,6.076a1.526,1.526,0,0,1-.389-.935V3.355a1.328,1.328,0,0,0-1.324-1.324H11.4a1.526,1.526,0,0,1-.935-.389L9.211.385a1.328,1.328,0,0,0-1.87,0L6.068,1.642a1.488,1.488,0,0,1-.935.389H3.355A1.328,1.328,0,0,0,2.031,3.355V5.133a1.526,1.526,0,0,1-.389.935L.385,7.325a1.328,1.328,0,0,0,0,1.87l1.257,1.257a1.526,1.526,0,0,1,.389.935v1.779a1.328,1.328,0,0,0,1.324,1.324H5.133a1.526,1.526,0,0,1,.935.389l1.257,1.257a1.328,1.328,0,0,0,1.87,0l1.257-1.257a1.526,1.526,0,0,1,.935-.389h1.779a1.328,1.328,0,0,0,1.324-1.324V11.387a1.526,1.526,0,0,1,.389-.935l1.257-1.257A1.289,1.289,0,0,0,16.152,7.334ZM4.959,5.787a.827.827,0,1,1,.827.827A.83.83,0,0,1,4.959,5.787Zm1.266,5.4a.619.619,0,0,1-.877,0,.624.624,0,0,1,0-.877l4.964-4.964a.62.62,0,0,1,.877.877Zm4.525.389a.827.827,0,1,1,.819-.827A.823.823,0,0,1,10.75,11.577Z" transform="translate(367.732 319.73)" fill="#9dadbd" opacity="0.4"/>
      <path id="Vector-3" data-name="Vector" d="M4.959,5.787a.827.827,0,1,1,.827.827A.83.83,0,0,1,4.959,5.787Zm1.266,5.4a.619.619,0,0,1-.877,0,.624.624,0,0,1,0-.877l4.964-4.964a.62.62,0,0,1,.877.877Zm4.525.389a.827.827,0,1,1,.819-.827A.823.823,0,0,1,10.75,11.577Z" transform="translate(367.736 319.73)" fill="#33a1e1"/>
    </g>
  </g>
</svg>
