<svg xmlns="http://www.w3.org/2000/svg" width="24" height="24" viewBox="0 0 24 24">
  <g id="Group_101096" data-name="Group 101096" transform="translate(-26 -264)">
    <g id="vuesax_bold_bag-2" data-name="vuesax/bold/bag-2" transform="translate(-530 76)">
      <g id="bag-2">
        <path id="Vector" d="M16.8,6.962a4.625,4.625,0,0,0-3.08-1.32v-.76A4.891,4.891,0,0,0,8.363.022a5.147,5.147,0,0,0-4.4,5.04v.58a4.625,4.625,0,0,0-3.08,1.32,4.4,4.4,0,0,0-.83,3.52l.7,5.57c.21,1.95,1,3.95,5.3,3.95h5.58c4.3,0,5.09-2,5.3-3.94l.7-5.59A4.422,4.422,0,0,0,16.8,6.962ZM8.5,1.412a3.485,3.485,0,0,1,3.83,3.47v.7H5.353v-.52A3.761,3.761,0,0,1,8.5,1.412Z" transform="translate(559.156 189.998)" fill="#d8dee5"/>
        <path id="Vector-2" data-name="Vector" d="M0,0H24V24H0Z" transform="translate(580 212) rotate(180)" fill="none" opacity="0"/>
      </g>
    </g>
    <path id="Path_181826" data-name="Path 181826" d="M1679.905,620.371c-.027.112-.031.227-.053.34a2.911,2.911,0,0,1-.54,1.181,3.825,3.825,0,0,1-.94.875.251.251,0,0,1-.234.02c-.094-.032-.106-.137-.027-.217a3.088,3.088,0,0,0,.243-.265,1.482,1.482,0,0,0,.351-.9,1.361,1.361,0,0,0-.516-1.088,2.272,2.272,0,0,0-1.373-.526c-.063,0-.145-.037-.186,0s-.011.119-.011.181q0,.62,0,1.24c0,.066-.006.126-.072.16a.155.155,0,0,1-.172-.035l-3.766-2.708c-.113-.081-.113-.171,0-.253l3.77-2.728a.152.152,0,0,1,.166-.034.153.153,0,0,1,.075.159c0,.459,0,.918,0,1.376,0,.056.014.072.071.074a3.534,3.534,0,0,1,1.9.595,2.892,2.892,0,0,1,1.3,2.059.389.389,0,0,0,.018.141Z" transform="translate(-1638.215 -340.208)" fill="#33a1e1"/>
  </g>
</svg>
