<svg width="9" height="14" viewBox="0 0 9 14" fill="none" xmlns="http://www.w3.org/2000/svg">
<g clip-path="url(#clip0_1136_2)">
<path d="M2.35263 0.514668L8.34863 6.43767C8.40825 6.49646 8.45559 6.56652 8.48791 6.64377C8.52022 6.72103 8.53686 6.80393 8.53686 6.88767C8.53686 6.97141 8.52022 7.05431 8.48791 7.13156C8.45559 7.20881 8.40825 7.27887 8.34863 7.33767L2.34863 13.2627C2.1721 13.4361 1.93456 13.5332 1.68713 13.5332C1.43969 13.5332 1.20215 13.4361 1.02563 13.2627C0.939063 13.1773 0.87033 13.0755 0.823416 12.9633C0.776503 12.8512 0.752345 12.7308 0.752345 12.6092C0.752345 12.4876 0.776503 12.3672 0.823416 12.255C0.87033 12.1428 0.939063 12.0411 1.02563 11.9557L6.15863 6.89067L1.02963 1.82267C0.943033 1.73718 0.874279 1.63535 0.827352 1.52308C0.780425 1.41082 0.756261 1.29035 0.756261 1.16867C0.756261 1.04699 0.780425 0.926519 0.827352 0.814251C0.874278 0.701984 0.943033 0.600153 1.02963 0.514668C1.20615 0.34128 1.44369 0.244131 1.69113 0.244131C1.93856 0.244131 2.1761 0.34128 2.35263 0.514668" fill="#9DADBD"/>
</g>
<defs>
<clipPath id="clip0_1136_2">
<rect width="13.294" height="7.781" fill="white" transform="translate(0.756592 13.5376) rotate(-90)"/>
</clipPath>
</defs>
</svg>
