<svg xmlns="http://www.w3.org/2000/svg" width="35.382" height="35.382" viewBox="0 0 35.382 35.382"><defs><style>.a{fill:#3cf;}.b{fill:#fff;}</style></defs><g transform="translate(-361.318 -205.336)"><circle class="a" cx="17.691" cy="17.691" r="17.691" transform="translate(361.318 205.336)"/><path class="b" d="M388.783,216.966a7.959,7.959,0,0,1-1.951.556c.314-.053.775-.621.96-.851a3.568,3.568,0,0,0,.647-1.181c.017-.033.03-.076,0-.1a.109.109,0,0,0-.1.009,9.982,9.982,0,0,1-2.314.885.154.154,0,0,1-.16-.043,1.8,1.8,0,0,0-.2-.206,4.065,4.065,0,0,0-1.12-.687,3.9,3.9,0,0,0-1.719-.277,4.109,4.109,0,0,0-1.631.461,4.2,4.2,0,0,0-1.315,1.074,4.033,4.033,0,0,0-.786,1.574,4.28,4.28,0,0,0-.042,1.661c.013.093.005.105-.079.093a12.358,12.358,0,0,1-7.95-4.046c-.093-.106-.143-.106-.219.008a4.03,4.03,0,0,0,.687,4.763c.156.147.316.295.489.429a4.032,4.032,0,0,1-1.534-.429c-.093-.059-.14-.026-.148.08a2.371,2.371,0,0,0,.025.455,4.077,4.077,0,0,0,2.513,3.25,2.436,2.436,0,0,0,.509.156,4.555,4.555,0,0,1-1.5.046c-.11-.021-.152.034-.11.139a4.231,4.231,0,0,0,3.161,2.647c.143.025.287.025.431.059-.009.013-.018.013-.026.025a5.01,5.01,0,0,1-2.159,1.145,7.726,7.726,0,0,1-3.278.419c-.177-.026-.214-.024-.261,0s-.007.072.05.118c.224.148.451.278.683.4a10.829,10.829,0,0,0,2.191.877,11.676,11.676,0,0,0,11.333-2.65,11.9,11.9,0,0,0,3.137-8.676c0-.125.147-.194.234-.259a7.672,7.672,0,0,0,1.543-1.6.491.491,0,0,0,.1-.308v-.016C388.863,216.915,388.862,216.93,388.783,216.966Z"/></g></svg>