<svg xmlns="http://www.w3.org/2000/svg" width="35.382" height="35.382" viewBox="0 0 35.382 35.382">
  <g id="whatsapp" transform="translate(-20830.582 -1733.908)">
    <g id="Group_35883" data-name="Group 35883" transform="translate(20469.264 1364.827)">
      <circle id="Ellipse_550" data-name="Ellipse 550" cx="17.691" cy="17.691" r="17.691" transform="translate(361.318 369.081)" fill="#00d95f"/>
      <path id="Path_64624" data-name="Path 64624" d="M369.451,396.784l1.475-5.5a10.186,10.186,0,1,1,4.057,4.021Zm5.807-3.544.348.207a8.266,8.266,0,1,0-2.829-2.8l.214.351-.823,3.073Z" fill="#fff"/>
      <path id="Path_64625" data-name="Path 64625" d="M383.593,387.785a1.707,1.707,0,0,0-1.455-.328c-.378.155-.62.746-.864,1.048a.363.363,0,0,1-.469.1,6.587,6.587,0,0,1-3.289-2.818.4.4,0,0,1,.05-.551,2.216,2.216,0,0,0,.6-.97,2.122,2.122,0,0,0-.267-1.148,2.723,2.723,0,0,0-.848-1.278,1.162,1.162,0,0,0-1.261.188,2.559,2.559,0,0,0-.888,2.029,2.845,2.845,0,0,0,.08.644,5.348,5.348,0,0,0,.617,1.423,11.2,11.2,0,0,0,.645.98,9.952,9.952,0,0,0,2.8,2.6,8.4,8.4,0,0,0,1.744.829,3.874,3.874,0,0,0,2.03.321,2.458,2.458,0,0,0,1.84-1.369,1.188,1.188,0,0,0,.086-.7C384.634,388.3,383.982,388.018,383.593,387.785Z" fill="#fff" fill-rule="evenodd"/>
    </g>
  </g>
</svg>
