<svg xmlns="http://www.w3.org/2000/svg" width="24" height="24" viewBox="0 0 24 24">
  <g id="Group_101447" data-name="Group 101447" transform="translate(-16 -130)">
    <g id="Group_100711" data-name="Group 100711">
      <g id="vuesax_bold_bag-2" data-name="vuesax/bold/bag-2" transform="translate(16 130)">
        <g id="bag-2">
          <path id="Vector" d="M0,0H24V24H0Z" transform="translate(24 24) rotate(180)" fill="none" opacity="0"/>
          <path id="Path_181830" data-name="Path 181830" d="M2362.947,713.95h-11.692a.3.3,0,0,0-.058-.024,2.092,2.092,0,0,1-1.821-2.172c0-4.047.017-8.095-.006-12.142a2.156,2.156,0,0,1,2.146-2.2q5.628.008,11.254,0a.443.443,0,0,1,.51.5q0,6.1,0,12.19c0,.316-.13.457-.448.5a2.225,2.225,0,0,1-.273.016q-5.474,0-10.948,0a1.444,1.444,0,0,0-.645.113,1.23,1.23,0,0,0,.536,2.347q5.385.005,10.77,0c.117,0,.142-.039.14-.147-.006-.333,0-.667,0-1a.45.45,0,0,1,.253-.45.427.427,0,0,1,.615.407c.008.506-.005,1.012.006,1.518A.5.5,0,0,1,2362.947,713.95Z" transform="translate(-2344.326 -693.681)" fill="#9dadbd" opacity="0.4"/>
        </g>
      </g>
      <g id="vuesax_bold_bag-2-2" data-name="vuesax/bold/bag-2" transform="translate(16 130)">
        <g id="bag-2-2" data-name="bag-2">
          <path id="Vector-2" data-name="Vector" d="M0,0H24V24H0Z" transform="translate(24 24) rotate(180)" fill="none" opacity="0"/>
        </g>
      </g>
    </g>
    <path id="Path_181843" data-name="Path 181843" d="M1679.905,620.371c-.027.112-.031.227-.053.34a2.911,2.911,0,0,1-.54,1.181,3.825,3.825,0,0,1-.94.875.251.251,0,0,1-.234.02c-.094-.032-.106-.137-.027-.217a3.088,3.088,0,0,0,.243-.265,1.482,1.482,0,0,0,.351-.9,1.361,1.361,0,0,0-.516-1.088,2.272,2.272,0,0,0-1.373-.526c-.063,0-.145-.037-.186,0s-.011.119-.011.181q0,.62,0,1.24c0,.066-.006.126-.072.16a.155.155,0,0,1-.172-.035l-3.766-2.708c-.113-.081-.113-.171,0-.253l3.77-2.728a.152.152,0,0,1,.166-.034.153.153,0,0,1,.075.159c0,.459,0,.918,0,1.376,0,.056.014.072.071.074a3.534,3.534,0,0,1,1.9.595,2.892,2.892,0,0,1,1.3,2.059.389.389,0,0,0,.018.141Z" transform="translate(-1648.215 -478.807)" fill="#33a1e1"/>
  </g>
</svg>
