<svg xmlns="http://www.w3.org/2000/svg" width="24" height="24" viewBox="0 0 24 24">
  <g id="Group_101446" data-name="Group 101446" transform="translate(-16 -130)">
    <g id="Group_100711" data-name="Group 100711">
      <g id="vuesax_bold_bag-2" data-name="vuesax/bold/bag-2" transform="translate(16 130)">
        <g id="bag-2">
          <path id="Vector" d="M0,0H24V24H0Z" transform="translate(24 24) rotate(180)" fill="none" opacity="0"/>
          <path id="Path_181830" data-name="Path 181830" d="M2362.947,713.95h-11.692a.3.3,0,0,0-.058-.024,2.092,2.092,0,0,1-1.821-2.172c0-4.047.017-8.095-.006-12.142a2.156,2.156,0,0,1,2.146-2.2q5.628.008,11.254,0a.443.443,0,0,1,.51.5q0,6.1,0,12.19c0,.316-.13.457-.448.5a2.225,2.225,0,0,1-.273.016q-5.474,0-10.948,0a1.444,1.444,0,0,0-.645.113,1.23,1.23,0,0,0,.536,2.347q5.385.005,10.77,0c.117,0,.142-.039.14-.147-.006-.333,0-.667,0-1a.45.45,0,0,1,.253-.45.427.427,0,0,1,.615.407c.008.506-.005,1.012.006,1.518A.5.5,0,0,1,2362.947,713.95Z" transform="translate(-2344.326 -693.681)" fill="#9dadbd" opacity="0.4"/>
        </g>
      </g>
      <g id="vuesax_bold_bag-2-2" data-name="vuesax/bold/bag-2" transform="translate(16 130)">
        <g id="bag-2-2" data-name="bag-2">
          <path id="Vector-2" data-name="Vector" d="M0,0H24V24H0Z" transform="translate(24 24) rotate(180)" fill="none" opacity="0"/>
        </g>
      </g>
    </g>
    <g id="Group_100802" data-name="Group 100802" transform="translate(25.433 137.545)">
      <line id="Line_343" data-name="Line 343" y2="5.718" transform="translate(2.859 0)" fill="none" stroke="#33a1e1" stroke-linecap="round" stroke-width="0.8"/>
      <line id="Line_344" data-name="Line 344" x2="5.718" transform="translate(0 2.858)" fill="none" stroke="#33a1e1" stroke-linecap="round" stroke-width="0.8"/>
    </g>
  </g>
</svg>
