<svg xmlns="http://www.w3.org/2000/svg" xmlns:xlink="http://www.w3.org/1999/xlink" width="280.605" height="146.808" viewBox="0 0 280.605 146.808">
  <defs>
    <linearGradient id="linear-gradient" x1="0.5" y1="1" x2="0.5" gradientUnits="objectBoundingBox">
      <stop offset="0" stop-color="#33a1e1"/>
      <stop offset="1" stop-color="#fefefe"/>
    </linearGradient>
    <linearGradient id="linear-gradient-2" x1="0.5" y1="0" x2="0.5" y2="1" xlink:href="#linear-gradient"/>
  </defs>
  <g id="Layer_x0020_1" transform="translate(-23.22 -21.777)">
    <g id="_592887584" transform="translate(23.22 21.777)">
      <path id="_592889936" d="M56.783,25.616h0a1.8,1.8,0,0,1,1.8,1.8V135.884a1.8,1.8,0,0,1-1.8,1.8h0a1.8,1.8,0,0,1-1.8-1.8V27.412A1.8,1.8,0,0,1,56.783,25.616Z" transform="translate(96.947 -7.255)" fill="#146da1" fill-rule="evenodd"/>
      <path id="_592889216" d="M96.624,21.777a73.4,73.4,0,1,1-73.4,73.4A73.4,73.4,0,0,1,96.624,21.777Z" transform="translate(-23.22 -21.777)" fill-rule="evenodd" fill="url(#linear-gradient)"/>
      <path id="_592889624" d="M94.149,162.981A70.275,70.275,0,1,0,23.874,92.706,70.275,70.275,0,0,0,94.149,162.981Z" transform="translate(-20.745 -19.302)" fill-rule="evenodd" fill="url(#linear-gradient-2)"/>
      <path id="_592888640" d="M92.664,159.619a68.4,68.4,0,1,0-68.4-68.4A68.4,68.4,0,0,0,92.664,159.619Z" transform="translate(-19.26 -17.817)" fill="#fefefe" fill-rule="evenodd"/>
      <g id="Group_101325" data-name="Group 101325" transform="translate(162.278 29.347)">
        <path id="_592887632" d="M106.229,42.734A8.416,8.416,0,0,0,109,41.06a6.91,6.91,0,0,0,1.66-2.329,6.776,6.776,0,0,0,.554-2.72,7.244,7.244,0,0,0-.817-3.422,6.79,6.79,0,0,0-2.221-2.45,9.2,9.2,0,0,0-2.342-1.181,13.685,13.685,0,0,0-2.821-.621,26.6,26.6,0,0,0-3.422-.182c-1.019,0-2.018.027-3,.088s-1.89.135-2.727.229-1.566.209-2.167.331V59.417c.729.108,1.647.2,2.76.277s2.4.121,3.881.128a32.563,32.563,0,0,0,4.886-.331,15.819,15.819,0,0,0,3.658-.985,8.9,8.9,0,0,0,2.592-1.6,8.328,8.328,0,0,0,1.545-1.836,8.74,8.74,0,0,0,1.289-4.562,7.894,7.894,0,0,0-.8-3.543,7.378,7.378,0,0,0-2.146-2.585,8.75,8.75,0,0,0-3.125-1.485v-.162Zm-8.584-1.66V32.813a6.973,6.973,0,0,1,1.026-.149c.425-.033.965-.054,1.606-.054a8.2,8.2,0,0,1,1.9.2,4.713,4.713,0,0,1,1.593.688,3.355,3.355,0,0,1,1.087,1.262,4.379,4.379,0,0,1,.4,1.937,4.076,4.076,0,0,1-.648,2.267,4.341,4.341,0,0,1-1.856,1.539,7.069,7.069,0,0,1-2.922.567H97.645Zm0,4.373h2.227a9.294,9.294,0,0,1,2.261.256,6.219,6.219,0,0,1,1.971.844,4.174,4.174,0,0,1,1.4,1.512,4.772,4.772,0,0,1,.527,2.288,5.111,5.111,0,0,1-.479,2.267,4.259,4.259,0,0,1-1.3,1.545,5.7,5.7,0,0,1-1.91.884,9,9,0,0,1-2.3.284c-.519,0-.979-.014-1.363-.034a7.977,7.977,0,0,1-1.026-.128Zm31.1-17.534a12.96,12.96,0,0,0-4.508.783,11.924,11.924,0,0,0-3.685,2.221,13.616,13.616,0,0,0-2.76,3.442,17.329,17.329,0,0,0-1.728,4.455,22.147,22.147,0,0,0-.6,5.257,22.669,22.669,0,0,0,.553,5.123,17.087,17.087,0,0,0,1.613,4.38,12.827,12.827,0,0,0,2.626,3.408,11.15,11.15,0,0,0,3.59,2.213,12.558,12.558,0,0,0,4.495.79,13.319,13.319,0,0,0,5.332-1.039,11.381,11.381,0,0,0,4.191-3.091,14.425,14.425,0,0,0,2.74-5.129,24.132,24.132,0,0,0,.979-7.141,22.547,22.547,0,0,0-.506-4.819,17.531,17.531,0,0,0-1.526-4.286,13.031,13.031,0,0,0-2.558-3.442,11.141,11.141,0,0,0-3.6-2.295A12.629,12.629,0,0,0,128.744,27.913Zm-.162,4.9a5.141,5.141,0,0,1,2.456.594,5.955,5.955,0,0,1,1.89,1.64,9.546,9.546,0,0,1,1.33,2.436,15.52,15.52,0,0,1,.79,3,21.6,21.6,0,0,1,.257,3.341,21.081,21.081,0,0,1-.432,4.407,12.747,12.747,0,0,1-1.276,3.577,6.811,6.811,0,0,1-2.119,2.4,5.326,5.326,0,0,1-5.858,0,6.961,6.961,0,0,1-2.133-2.4,12.419,12.419,0,0,1-1.3-3.543,19.992,19.992,0,0,1-.445-4.319A21.083,21.083,0,0,1,122,40.595a15.471,15.471,0,0,1,.79-3.03,9.755,9.755,0,0,1,1.35-2.477,6.091,6.091,0,0,1,1.923-1.667,5.316,5.316,0,0,1,2.518-.607ZM74.968,86.669a11.79,11.79,0,0,0-1.721-.695,15.885,15.885,0,0,0-2.24-.52,18.617,18.617,0,0,0-2.72-.2,13.977,13.977,0,0,0-4.515.695,9.808,9.808,0,0,0-3.368,1.9,8.292,8.292,0,0,0-2.119,2.868,8.9,8.9,0,0,0-.729,3.563,7.519,7.519,0,0,0,.931,3.678,9.864,9.864,0,0,0,2.619,2.983,18.62,18.62,0,0,0,4.063,2.329,16.96,16.96,0,0,1,2.815,1.485,5.361,5.361,0,0,1,1.613,1.606,3.72,3.72,0,0,1,.513,1.971,3.581,3.581,0,0,1-.574,2.031,3.769,3.769,0,0,1-1.7,1.364,7.156,7.156,0,0,1-2.787.493,13.42,13.42,0,0,1-2.5-.236,14.768,14.768,0,0,1-2.322-.621,10.831,10.831,0,0,1-1.9-.884L57.15,115.5a9.471,9.471,0,0,0,1.95.85,18.963,18.963,0,0,0,2.673.634,18.6,18.6,0,0,0,3.03.257,15.763,15.763,0,0,0,4.832-.7,10.226,10.226,0,0,0,3.557-1.964,8.311,8.311,0,0,0,2.2-2.97,9.281,9.281,0,0,0,.749-3.759,8.608,8.608,0,0,0-.762-3.705,8.791,8.791,0,0,0-2.362-3.024,16.806,16.806,0,0,0-4.083-2.463c-.951-.432-1.761-.83-2.443-1.2a9.443,9.443,0,0,1-1.653-1.107,3.635,3.635,0,0,1-.952-1.2,3.514,3.514,0,0,1-.3-1.472,3.093,3.093,0,0,1,.486-1.667,3.477,3.477,0,0,1,1.5-1.269,5.984,5.984,0,0,1,2.592-.506,12.892,12.892,0,0,1,2.328.216,12.248,12.248,0,0,1,1.863.52,11.23,11.23,0,0,1,1.356.6l1.255-4.9Zm22.191,0a11.793,11.793,0,0,0-1.721-.695,15.884,15.884,0,0,0-2.24-.52,18.617,18.617,0,0,0-2.72-.2,13.976,13.976,0,0,0-4.515.695,9.807,9.807,0,0,0-3.367,1.9,8.292,8.292,0,0,0-2.119,2.868,8.9,8.9,0,0,0-.729,3.563,7.519,7.519,0,0,0,.931,3.678,9.863,9.863,0,0,0,2.618,2.983,18.622,18.622,0,0,0,4.063,2.329,16.956,16.956,0,0,1,2.815,1.485,5.361,5.361,0,0,1,1.613,1.606,3.72,3.72,0,0,1,.513,1.971,3.58,3.58,0,0,1-.574,2.031,3.769,3.769,0,0,1-1.7,1.364,7.156,7.156,0,0,1-2.787.493,13.421,13.421,0,0,1-2.5-.236,14.771,14.771,0,0,1-2.322-.621,10.83,10.83,0,0,1-1.9-.884L79.341,115.5a9.474,9.474,0,0,0,1.95.85,18.965,18.965,0,0,0,2.673.634,18.6,18.6,0,0,0,3.03.257,15.763,15.763,0,0,0,4.832-.7,10.227,10.227,0,0,0,3.557-1.964,8.313,8.313,0,0,0,2.2-2.97,9.281,9.281,0,0,0,.749-3.759,8.608,8.608,0,0,0-.762-3.705,8.791,8.791,0,0,0-2.362-3.024,16.807,16.807,0,0,0-4.083-2.463c-.951-.432-1.761-.83-2.443-1.2a9.442,9.442,0,0,1-1.653-1.107,3.635,3.635,0,0,1-.952-1.2,3.515,3.515,0,0,1-.3-1.472,3.093,3.093,0,0,1,.486-1.667,3.477,3.477,0,0,1,1.5-1.269,5.984,5.984,0,0,1,2.592-.506,12.892,12.892,0,0,1,2.328.216,12.25,12.25,0,0,1,1.863.52,11.232,11.232,0,0,1,1.356.6l1.255-4.9Zm28.265,12.8h-10.2V104.2h4.495v7.613a4.639,4.639,0,0,1-1.188.318,12.55,12.55,0,0,1-1.89.128,9.273,9.273,0,0,1-3.577-.682,7.829,7.829,0,0,1-2.848-2.038,9.487,9.487,0,0,1-1.883-3.395,15.39,15.39,0,0,1-.682-4.738,14.853,14.853,0,0,1,.742-4.886,9.17,9.17,0,0,1,2.058-3.408,8.306,8.306,0,0,1,3.091-1.991,11.21,11.21,0,0,1,3.867-.648,18.848,18.848,0,0,1,2.45.148,12.754,12.754,0,0,1,1.944.405,11.3,11.3,0,0,1,1.559.58l1.255-4.94a10.419,10.419,0,0,0-1.856-.661,18.442,18.442,0,0,0-2.47-.459,23.874,23.874,0,0,0-2.963-.176,18.913,18.913,0,0,0-5.1.668,15.317,15.317,0,0,0-4.387,1.984,13.734,13.734,0,0,0-3.435,3.267,14.87,14.87,0,0,0-2.234,4.515,19.6,19.6,0,0,0-.8,5.723,21.172,21.172,0,0,0,.5,4.677,16.563,16.563,0,0,0,1.43,4.009,12.517,12.517,0,0,0,2.281,3.138,12.307,12.307,0,0,0,4.7,2.875,19.436,19.436,0,0,0,6.277.931,25.153,25.153,0,0,0,3.462-.25,28.5,28.5,0,0,0,3.078-.587,19.582,19.582,0,0,0,2.328-.7V99.465ZM149.8,111.249a9.531,9.531,0,0,1-1.438.466,14.561,14.561,0,0,1-1.755.31,15.733,15.733,0,0,1-1.87.115,9.421,9.421,0,0,1-4.893-1.235,8.147,8.147,0,0,1-3.2-3.644,14.064,14.064,0,0,1-1.141-5.932,15.237,15.237,0,0,1,.729-4.907,9.49,9.49,0,0,1,1.978-3.449,8.153,8.153,0,0,1,2.949-2.032,9.688,9.688,0,0,1,3.618-.668,12.29,12.29,0,0,1,2.841.311,11.719,11.719,0,0,1,2.139.7l1.174-4.859a6.677,6.677,0,0,0-1.316-.519,14.633,14.633,0,0,0-2.16-.459,21.074,21.074,0,0,0-2.963-.2,16.975,16.975,0,0,0-4.758.661,14.346,14.346,0,0,0-4.184,1.97,13.622,13.622,0,0,0-3.327,3.287,15.305,15.305,0,0,0-2.2,4.59,20.626,20.626,0,0,0-.8,5.892,19.945,19.945,0,0,0,.958,6.33,13.881,13.881,0,0,0,2.8,4.927,12.33,12.33,0,0,0,4.562,3.192,16.2,16.2,0,0,0,6.216,1.141,23,23,0,0,0,2.943-.182,17.694,17.694,0,0,0,2.348-.439,8.659,8.659,0,0,0,1.593-.553l-.85-4.819Zm5.224,5.588h5.953V105.175a8.162,8.162,0,0,0,1,.128c.371.02.762.034,1.188.034a17.19,17.19,0,0,0,2.49-.182,14.312,14.312,0,0,0,2.632-.628,11.5,11.5,0,0,0,2.518-1.208,8.695,8.695,0,0,0,3.6-4.69,12.02,12.02,0,0,0,.547-3.739,9.984,9.984,0,0,0-.364-2.733,8.932,8.932,0,0,0-1.026-2.362,7.941,7.941,0,0,0-1.606-1.87,9.425,9.425,0,0,0-3.705-1.876,19.669,19.669,0,0,0-5.163-.594q-2.582.01-4.589.189c-1.343.121-2.5.27-3.469.459v30.735Zm5.953-26.483a7.785,7.785,0,0,1,1.039-.169,14.281,14.281,0,0,1,1.552-.074,6.655,6.655,0,0,1,2.882.573,4.176,4.176,0,0,1,1.876,1.7,5.515,5.515,0,0,1,.668,2.787,5.768,5.768,0,0,1-.7,2.909,4.713,4.713,0,0,1-2.018,1.89,7.194,7.194,0,0,1-3.192.668c-.439,0-.83-.013-1.175-.033a6.957,6.957,0,0,1-.931-.128V90.354Z" transform="translate(-57.15 -27.913)" fill="none" stroke="#fefefe" stroke-linejoin="round" stroke-width="1.058"/>
        <path id="_5928876321" d="M106.229,42.734A8.416,8.416,0,0,0,109,41.06a6.91,6.91,0,0,0,1.66-2.329,6.776,6.776,0,0,0,.554-2.72,7.244,7.244,0,0,0-.817-3.422,6.79,6.79,0,0,0-2.221-2.45,9.2,9.2,0,0,0-2.342-1.181,13.685,13.685,0,0,0-2.821-.621,26.6,26.6,0,0,0-3.422-.182c-1.019,0-2.018.027-3,.088s-1.89.135-2.727.229-1.566.209-2.167.331V59.417c.729.108,1.647.2,2.76.277s2.4.121,3.881.128a32.563,32.563,0,0,0,4.886-.331,15.819,15.819,0,0,0,3.658-.985,8.9,8.9,0,0,0,2.592-1.6,8.328,8.328,0,0,0,1.545-1.836,8.74,8.74,0,0,0,1.289-4.562,7.894,7.894,0,0,0-.8-3.543,7.378,7.378,0,0,0-2.146-2.585,8.75,8.75,0,0,0-3.125-1.485v-.162Zm-8.584-1.66V32.813a6.973,6.973,0,0,1,1.026-.149c.425-.033.965-.054,1.606-.054a8.2,8.2,0,0,1,1.9.2,4.713,4.713,0,0,1,1.593.688,3.355,3.355,0,0,1,1.087,1.262,4.379,4.379,0,0,1,.4,1.937,4.076,4.076,0,0,1-.648,2.267,4.341,4.341,0,0,1-1.856,1.539,7.069,7.069,0,0,1-2.922.567H97.645Zm0,4.373h2.227a9.294,9.294,0,0,1,2.261.256,6.219,6.219,0,0,1,1.971.844,4.174,4.174,0,0,1,1.4,1.512,4.772,4.772,0,0,1,.527,2.288,5.111,5.111,0,0,1-.479,2.267,4.259,4.259,0,0,1-1.3,1.545,5.7,5.7,0,0,1-1.91.884,9,9,0,0,1-2.3.284c-.519,0-.979-.014-1.363-.034a7.977,7.977,0,0,1-1.026-.128Zm31.1-17.534a12.96,12.96,0,0,0-4.508.783,11.924,11.924,0,0,0-3.685,2.221,13.616,13.616,0,0,0-2.76,3.442,17.329,17.329,0,0,0-1.728,4.455,22.147,22.147,0,0,0-.6,5.257,22.669,22.669,0,0,0,.553,5.123,17.087,17.087,0,0,0,1.613,4.38,12.827,12.827,0,0,0,2.626,3.408,11.15,11.15,0,0,0,3.59,2.213,12.558,12.558,0,0,0,4.495.79,13.319,13.319,0,0,0,5.332-1.039,11.381,11.381,0,0,0,4.191-3.091,14.425,14.425,0,0,0,2.74-5.129,24.132,24.132,0,0,0,.979-7.141,22.547,22.547,0,0,0-.506-4.819,17.531,17.531,0,0,0-1.526-4.286,13.031,13.031,0,0,0-2.558-3.442,11.141,11.141,0,0,0-3.6-2.295A12.629,12.629,0,0,0,128.744,27.913Zm-.162,4.9a5.141,5.141,0,0,1,2.456.594,5.955,5.955,0,0,1,1.89,1.64,9.546,9.546,0,0,1,1.33,2.436,15.52,15.52,0,0,1,.79,3,21.6,21.6,0,0,1,.257,3.341,21.081,21.081,0,0,1-.432,4.407,12.747,12.747,0,0,1-1.276,3.577,6.811,6.811,0,0,1-2.119,2.4,5.326,5.326,0,0,1-5.858,0,6.961,6.961,0,0,1-2.133-2.4,12.419,12.419,0,0,1-1.3-3.543,19.992,19.992,0,0,1-.445-4.319A21.083,21.083,0,0,1,122,40.595a15.471,15.471,0,0,1,.79-3.03,9.755,9.755,0,0,1,1.35-2.477,6.091,6.091,0,0,1,1.923-1.667,5.316,5.316,0,0,1,2.518-.607ZM74.968,86.669a11.79,11.79,0,0,0-1.721-.695,15.885,15.885,0,0,0-2.24-.52,18.617,18.617,0,0,0-2.72-.2,13.977,13.977,0,0,0-4.515.695,9.808,9.808,0,0,0-3.368,1.9,8.292,8.292,0,0,0-2.119,2.868,8.9,8.9,0,0,0-.729,3.563,7.519,7.519,0,0,0,.931,3.678,9.864,9.864,0,0,0,2.619,2.983,18.62,18.62,0,0,0,4.063,2.329,16.96,16.96,0,0,1,2.815,1.485,5.361,5.361,0,0,1,1.613,1.606,3.72,3.72,0,0,1,.513,1.971,3.581,3.581,0,0,1-.574,2.031,3.769,3.769,0,0,1-1.7,1.364,7.156,7.156,0,0,1-2.787.493,13.42,13.42,0,0,1-2.5-.236,14.768,14.768,0,0,1-2.322-.621,10.831,10.831,0,0,1-1.9-.884L57.15,115.5a9.471,9.471,0,0,0,1.95.85,18.963,18.963,0,0,0,2.673.634,18.6,18.6,0,0,0,3.03.257,15.763,15.763,0,0,0,4.832-.7,10.226,10.226,0,0,0,3.557-1.964,8.311,8.311,0,0,0,2.2-2.97,9.281,9.281,0,0,0,.749-3.759,8.608,8.608,0,0,0-.762-3.705,8.791,8.791,0,0,0-2.362-3.024,16.806,16.806,0,0,0-4.083-2.463c-.951-.432-1.761-.83-2.443-1.2a9.443,9.443,0,0,1-1.653-1.107,3.635,3.635,0,0,1-.952-1.2,3.514,3.514,0,0,1-.3-1.472,3.093,3.093,0,0,1,.486-1.667,3.477,3.477,0,0,1,1.5-1.269,5.984,5.984,0,0,1,2.592-.506,12.892,12.892,0,0,1,2.328.216,12.248,12.248,0,0,1,1.863.52,11.23,11.23,0,0,1,1.356.6l1.255-4.9Zm22.191,0a11.793,11.793,0,0,0-1.721-.695,15.884,15.884,0,0,0-2.24-.52,18.617,18.617,0,0,0-2.72-.2,13.976,13.976,0,0,0-4.515.695,9.807,9.807,0,0,0-3.367,1.9,8.292,8.292,0,0,0-2.119,2.868,8.9,8.9,0,0,0-.729,3.563,7.519,7.519,0,0,0,.931,3.678,9.863,9.863,0,0,0,2.618,2.983,18.622,18.622,0,0,0,4.063,2.329,16.956,16.956,0,0,1,2.815,1.485,5.361,5.361,0,0,1,1.613,1.606,3.72,3.72,0,0,1,.513,1.971,3.58,3.58,0,0,1-.574,2.031,3.769,3.769,0,0,1-1.7,1.364,7.156,7.156,0,0,1-2.787.493,13.421,13.421,0,0,1-2.5-.236,14.771,14.771,0,0,1-2.322-.621,10.83,10.83,0,0,1-1.9-.884L79.341,115.5a9.474,9.474,0,0,0,1.95.85,18.965,18.965,0,0,0,2.673.634,18.6,18.6,0,0,0,3.03.257,15.763,15.763,0,0,0,4.832-.7,10.227,10.227,0,0,0,3.557-1.964,8.313,8.313,0,0,0,2.2-2.97,9.281,9.281,0,0,0,.749-3.759,8.608,8.608,0,0,0-.762-3.705,8.791,8.791,0,0,0-2.362-3.024,16.807,16.807,0,0,0-4.083-2.463c-.951-.432-1.761-.83-2.443-1.2a9.442,9.442,0,0,1-1.653-1.107,3.635,3.635,0,0,1-.952-1.2,3.515,3.515,0,0,1-.3-1.472,3.093,3.093,0,0,1,.486-1.667,3.477,3.477,0,0,1,1.5-1.269,5.984,5.984,0,0,1,2.592-.506,12.892,12.892,0,0,1,2.328.216,12.25,12.25,0,0,1,1.863.52,11.232,11.232,0,0,1,1.356.6l1.255-4.9Zm28.265,12.8h-10.2V104.2h4.495v7.613a4.639,4.639,0,0,1-1.188.318,12.55,12.55,0,0,1-1.89.128,9.273,9.273,0,0,1-3.577-.682,7.829,7.829,0,0,1-2.848-2.038,9.487,9.487,0,0,1-1.883-3.395,15.39,15.39,0,0,1-.682-4.738,14.853,14.853,0,0,1,.742-4.886,9.17,9.17,0,0,1,2.058-3.408,8.306,8.306,0,0,1,3.091-1.991,11.21,11.21,0,0,1,3.867-.648,18.848,18.848,0,0,1,2.45.148,12.754,12.754,0,0,1,1.944.405,11.3,11.3,0,0,1,1.559.58l1.255-4.94a10.419,10.419,0,0,0-1.856-.661,18.442,18.442,0,0,0-2.47-.459,23.874,23.874,0,0,0-2.963-.176,18.913,18.913,0,0,0-5.1.668,15.317,15.317,0,0,0-4.387,1.984,13.734,13.734,0,0,0-3.435,3.267,14.87,14.87,0,0,0-2.234,4.515,19.6,19.6,0,0,0-.8,5.723,21.172,21.172,0,0,0,.5,4.677,16.563,16.563,0,0,0,1.43,4.009,12.517,12.517,0,0,0,2.281,3.138,12.307,12.307,0,0,0,4.7,2.875,19.436,19.436,0,0,0,6.277.931,25.153,25.153,0,0,0,3.462-.25,28.5,28.5,0,0,0,3.078-.587,19.582,19.582,0,0,0,2.328-.7V99.465ZM149.8,111.249a9.531,9.531,0,0,1-1.438.466,14.561,14.561,0,0,1-1.755.31,15.733,15.733,0,0,1-1.87.115,9.421,9.421,0,0,1-4.893-1.235,8.147,8.147,0,0,1-3.2-3.644,14.064,14.064,0,0,1-1.141-5.932,15.237,15.237,0,0,1,.729-4.907,9.49,9.49,0,0,1,1.978-3.449,8.153,8.153,0,0,1,2.949-2.032,9.688,9.688,0,0,1,3.618-.668,12.29,12.29,0,0,1,2.841.311,11.719,11.719,0,0,1,2.139.7l1.174-4.859a6.677,6.677,0,0,0-1.316-.519,14.633,14.633,0,0,0-2.16-.459,21.074,21.074,0,0,0-2.963-.2,16.975,16.975,0,0,0-4.758.661,14.346,14.346,0,0,0-4.184,1.97,13.622,13.622,0,0,0-3.327,3.287,15.305,15.305,0,0,0-2.2,4.59,20.626,20.626,0,0,0-.8,5.892,19.945,19.945,0,0,0,.958,6.33,13.881,13.881,0,0,0,2.8,4.927,12.33,12.33,0,0,0,4.562,3.192,16.2,16.2,0,0,0,6.216,1.141,23,23,0,0,0,2.943-.182,17.694,17.694,0,0,0,2.348-.439,8.659,8.659,0,0,0,1.593-.553l-.85-4.819Zm5.224,5.588h5.953V105.175a8.162,8.162,0,0,0,1,.128c.371.02.762.034,1.188.034a17.19,17.19,0,0,0,2.49-.182,14.312,14.312,0,0,0,2.632-.628,11.5,11.5,0,0,0,2.518-1.208,8.695,8.695,0,0,0,3.6-4.69,12.02,12.02,0,0,0,.547-3.739,9.984,9.984,0,0,0-.364-2.733,8.932,8.932,0,0,0-1.026-2.362,7.941,7.941,0,0,0-1.606-1.87,9.425,9.425,0,0,0-3.705-1.876,19.669,19.669,0,0,0-5.163-.594q-2.582.01-4.589.189c-1.343.121-2.5.27-3.469.459v30.735Zm5.953-26.483a7.785,7.785,0,0,1,1.039-.169,14.281,14.281,0,0,1,1.552-.074,6.655,6.655,0,0,1,2.882.573,4.176,4.176,0,0,1,1.876,1.7,5.515,5.515,0,0,1,.668,2.787,5.768,5.768,0,0,1-.7,2.909,4.713,4.713,0,0,1-2.018,1.89,7.194,7.194,0,0,1-3.192.668c-.439,0-.83-.013-1.175-.033a6.957,6.957,0,0,1-.931-.128V90.354Z" transform="translate(-57.15 -27.913)" fill="#146da1"/>
      </g>
      <path id="Path_181895" data-name="Path 181895" d="M106,42.48a8.416,8.416,0,0,0,2.767-1.673,6.911,6.911,0,0,0,1.66-2.329,6.778,6.778,0,0,0,.554-2.72,7.245,7.245,0,0,0-.817-3.422,6.79,6.79,0,0,0-2.221-2.45,9.194,9.194,0,0,0-2.342-1.181,13.684,13.684,0,0,0-2.821-.621,26.61,26.61,0,0,0-3.422-.182c-1.019,0-2.018.027-3,.088s-1.89.135-2.727.229-1.566.209-2.167.331V59.163c.729.108,1.647.2,2.76.277s2.4.121,3.881.128a32.562,32.562,0,0,0,4.886-.331,15.821,15.821,0,0,0,3.658-.985,8.9,8.9,0,0,0,2.592-1.6,8.328,8.328,0,0,0,1.545-1.836,8.739,8.739,0,0,0,1.289-4.562,7.894,7.894,0,0,0-.8-3.543,7.378,7.378,0,0,0-2.146-2.585A8.75,8.75,0,0,0,106,42.642V42.48ZM97.42,40.82V32.559a6.972,6.972,0,0,1,1.026-.149c.425-.033.965-.054,1.606-.054a8.2,8.2,0,0,1,1.9.2,4.713,4.713,0,0,1,1.593.688,3.355,3.355,0,0,1,1.087,1.262,4.379,4.379,0,0,1,.4,1.937,4.076,4.076,0,0,1-.648,2.267,4.342,4.342,0,0,1-1.856,1.539,7.07,7.07,0,0,1-2.922.567H97.42Zm0,4.373h2.227a9.294,9.294,0,0,1,2.261.256,6.22,6.22,0,0,1,1.97.844,4.174,4.174,0,0,1,1.4,1.512,4.772,4.772,0,0,1,.527,2.288,5.111,5.111,0,0,1-.479,2.267,4.258,4.258,0,0,1-1.3,1.545,5.7,5.7,0,0,1-1.91.884,9,9,0,0,1-2.3.284c-.519,0-.979-.014-1.363-.034a7.98,7.98,0,0,1-1.026-.128Zm31.1-17.534a12.96,12.96,0,0,0-4.508.783,11.923,11.923,0,0,0-3.685,2.221,13.616,13.616,0,0,0-2.76,3.442,17.33,17.33,0,0,0-1.728,4.455,22.147,22.147,0,0,0-.6,5.257,22.667,22.667,0,0,0,.553,5.123,17.086,17.086,0,0,0,1.613,4.38,12.828,12.828,0,0,0,2.626,3.408,11.151,11.151,0,0,0,3.59,2.213,12.558,12.558,0,0,0,4.495.79,13.319,13.319,0,0,0,5.332-1.039,11.381,11.381,0,0,0,4.191-3.091,14.426,14.426,0,0,0,2.74-5.129,24.129,24.129,0,0,0,.979-7.141,22.548,22.548,0,0,0-.506-4.819,17.534,17.534,0,0,0-1.526-4.286,13.033,13.033,0,0,0-2.558-3.442,11.141,11.141,0,0,0-3.6-2.295,12.63,12.63,0,0,0-4.65-.83Zm-.162,4.9a5.141,5.141,0,0,1,2.456.594,5.956,5.956,0,0,1,1.89,1.64,9.548,9.548,0,0,1,1.33,2.436,15.524,15.524,0,0,1,.79,3,21.6,21.6,0,0,1,.257,3.341,21.077,21.077,0,0,1-.432,4.407,12.746,12.746,0,0,1-1.276,3.577,6.81,6.81,0,0,1-2.119,2.4,5.326,5.326,0,0,1-5.858,0,6.961,6.961,0,0,1-2.133-2.4,12.418,12.418,0,0,1-1.3-3.544,19.991,19.991,0,0,1-.445-4.319,21.079,21.079,0,0,1,.263-3.354,15.472,15.472,0,0,1,.79-3.03,9.754,9.754,0,0,1,1.35-2.477,6.09,6.09,0,0,1,1.923-1.667,5.316,5.316,0,0,1,2.518-.607ZM74.743,86.415a11.787,11.787,0,0,0-1.721-.695,15.882,15.882,0,0,0-2.24-.52,18.616,18.616,0,0,0-2.72-.2,13.976,13.976,0,0,0-4.515.695,9.808,9.808,0,0,0-3.368,1.9,8.291,8.291,0,0,0-2.119,2.868,8.894,8.894,0,0,0-.729,3.563,7.519,7.519,0,0,0,.931,3.678,9.863,9.863,0,0,0,2.619,2.983,18.619,18.619,0,0,0,4.063,2.329,16.957,16.957,0,0,1,2.815,1.485,5.361,5.361,0,0,1,1.613,1.606,3.72,3.72,0,0,1,.513,1.971,3.581,3.581,0,0,1-.574,2.031,3.769,3.769,0,0,1-1.7,1.364,7.156,7.156,0,0,1-2.787.493,13.419,13.419,0,0,1-2.5-.236A14.77,14.77,0,0,1,60,111.11a10.832,10.832,0,0,1-1.9-.884l-1.175,5.021a9.472,9.472,0,0,0,1.95.85,18.963,18.963,0,0,0,2.673.634,18.59,18.59,0,0,0,3.03.257,15.762,15.762,0,0,0,4.832-.7,10.227,10.227,0,0,0,3.557-1.964,8.312,8.312,0,0,0,2.2-2.97,9.281,9.281,0,0,0,.749-3.759,8.607,8.607,0,0,0-.762-3.705,8.791,8.791,0,0,0-2.362-3.024A16.806,16.806,0,0,0,68.709,98.4c-.951-.432-1.761-.83-2.443-1.2a9.44,9.44,0,0,1-1.653-1.107,3.636,3.636,0,0,1-.952-1.2,3.516,3.516,0,0,1-.3-1.472,3.093,3.093,0,0,1,.486-1.667,3.477,3.477,0,0,1,1.5-1.269,5.984,5.984,0,0,1,2.592-.506,12.9,12.9,0,0,1,2.328.216,12.247,12.247,0,0,1,1.863.52,11.227,11.227,0,0,1,1.356.6l1.255-4.9Zm22.191,0a11.787,11.787,0,0,0-1.721-.695,15.882,15.882,0,0,0-2.24-.52,18.616,18.616,0,0,0-2.72-.2,13.976,13.976,0,0,0-4.515.695,9.808,9.808,0,0,0-3.368,1.9,8.292,8.292,0,0,0-2.119,2.868,8.894,8.894,0,0,0-.729,3.563,7.519,7.519,0,0,0,.931,3.678,9.863,9.863,0,0,0,2.619,2.983,18.621,18.621,0,0,0,4.063,2.329,16.957,16.957,0,0,1,2.815,1.485,5.361,5.361,0,0,1,1.613,1.606,3.719,3.719,0,0,1,.513,1.971,3.58,3.58,0,0,1-.574,2.031,3.769,3.769,0,0,1-1.7,1.364,7.157,7.157,0,0,1-2.787.493,13.42,13.42,0,0,1-2.5-.236,14.77,14.77,0,0,1-2.322-.621,10.831,10.831,0,0,1-1.9-.884l-1.175,5.021a9.474,9.474,0,0,0,1.95.85,18.962,18.962,0,0,0,2.673.634,18.59,18.59,0,0,0,3.03.257,15.762,15.762,0,0,0,4.832-.7,10.227,10.227,0,0,0,3.557-1.964,8.311,8.311,0,0,0,2.2-2.97,9.281,9.281,0,0,0,.749-3.759,8.608,8.608,0,0,0-.762-3.705,8.792,8.792,0,0,0-2.362-3.024A16.806,16.806,0,0,0,90.9,98.4c-.951-.432-1.761-.83-2.443-1.2A9.441,9.441,0,0,1,86.8,96.093a3.636,3.636,0,0,1-.952-1.2,3.515,3.515,0,0,1-.3-1.472,3.093,3.093,0,0,1,.486-1.667,3.477,3.477,0,0,1,1.5-1.269,5.985,5.985,0,0,1,2.592-.506,12.894,12.894,0,0,1,2.328.216,12.248,12.248,0,0,1,1.863.52,11.228,11.228,0,0,1,1.356.6l1.255-4.9Zm28.265,12.8h-10.2v4.738h4.495v7.613a4.638,4.638,0,0,1-1.188.318,12.549,12.549,0,0,1-1.89.128,9.274,9.274,0,0,1-3.577-.682,7.83,7.83,0,0,1-2.848-2.038,9.489,9.489,0,0,1-1.883-3.395,15.389,15.389,0,0,1-.682-4.738,14.854,14.854,0,0,1,.742-4.887,9.169,9.169,0,0,1,2.058-3.408,8.305,8.305,0,0,1,3.091-1.991,11.209,11.209,0,0,1,3.867-.648,18.845,18.845,0,0,1,2.45.148,12.756,12.756,0,0,1,1.944.405,11.3,11.3,0,0,1,1.559.58l1.255-4.94a10.417,10.417,0,0,0-1.856-.661,18.437,18.437,0,0,0-2.47-.459,23.878,23.878,0,0,0-2.963-.176,18.911,18.911,0,0,0-5.1.668,15.316,15.316,0,0,0-4.387,1.984,13.733,13.733,0,0,0-3.435,3.267,14.871,14.871,0,0,0-2.234,4.515,19.6,19.6,0,0,0-.8,5.723,21.176,21.176,0,0,0,.5,4.677,16.56,16.56,0,0,0,1.431,4.009,12.519,12.519,0,0,0,2.281,3.138,12.307,12.307,0,0,0,4.7,2.875,19.437,19.437,0,0,0,6.277.931,25.155,25.155,0,0,0,3.462-.25,28.5,28.5,0,0,0,3.078-.587,19.579,19.579,0,0,0,2.328-.7V99.211ZM149.576,111a9.529,9.529,0,0,1-1.438.466,14.559,14.559,0,0,1-1.755.31,15.732,15.732,0,0,1-1.87.115,9.422,9.422,0,0,1-4.893-1.235,8.147,8.147,0,0,1-3.2-3.644,14.064,14.064,0,0,1-1.141-5.932,15.237,15.237,0,0,1,.729-4.907,9.49,9.49,0,0,1,1.978-3.449,8.154,8.154,0,0,1,2.949-2.032,9.688,9.688,0,0,1,3.618-.668,12.291,12.291,0,0,1,2.841.311,11.717,11.717,0,0,1,2.139.7l1.174-4.859a6.679,6.679,0,0,0-1.316-.519,14.636,14.636,0,0,0-2.16-.459,21.072,21.072,0,0,0-2.963-.2,16.976,16.976,0,0,0-4.758.661,14.347,14.347,0,0,0-4.184,1.97A13.625,13.625,0,0,0,132,90.917a15.306,15.306,0,0,0-2.2,4.589,20.627,20.627,0,0,0-.8,5.892,19.944,19.944,0,0,0,.958,6.33,13.881,13.881,0,0,0,2.8,4.927,12.33,12.33,0,0,0,4.562,3.192,16.206,16.206,0,0,0,6.216,1.141,23,23,0,0,0,2.943-.182,17.694,17.694,0,0,0,2.348-.439,8.659,8.659,0,0,0,1.593-.553l-.85-4.819Zm5.224,5.588h5.953V104.921a8.159,8.159,0,0,0,1,.128c.371.02.762.034,1.188.034a17.188,17.188,0,0,0,2.49-.182,14.313,14.313,0,0,0,2.632-.628,11.494,11.494,0,0,0,2.518-1.208,8.694,8.694,0,0,0,3.6-4.69,12.022,12.022,0,0,0,.547-3.739,9.981,9.981,0,0,0-.364-2.733,8.929,8.929,0,0,0-1.026-2.362,7.94,7.94,0,0,0-1.606-1.87,9.425,9.425,0,0,0-3.705-1.876,19.67,19.67,0,0,0-5.163-.594q-2.582.01-4.59.189c-1.343.121-2.5.27-3.469.459v30.735ZM160.752,90.1a7.787,7.787,0,0,1,1.039-.169,14.3,14.3,0,0,1,1.552-.074,6.655,6.655,0,0,1,2.882.573,4.176,4.176,0,0,1,1.876,1.7,5.514,5.514,0,0,1,.668,2.787,5.768,5.768,0,0,1-.7,2.909,4.713,4.713,0,0,1-2.018,1.89,7.194,7.194,0,0,1-3.192.668c-.439,0-.83-.013-1.175-.033a6.958,6.958,0,0,1-.931-.128V90.1Z" transform="translate(104.277 0.473)" fill="#33a1e1"/>
      <path id="Path_181896" data-name="Path 181896" d="M126.547,45.242v2.764c-6.866.1-18.524-3.411-29.043-5.313,2.693.108,5.385.314,8.033.539,4.649.4,9.289.924,13.938,1.391,2.3.233,4.694.476,7.072.619ZM57.331,42.693h0C46.813,44.6,35.154,48.105,28.3,48.007V45.242c2.369-.143,4.766-.386,7.063-.619,4.649-.467,9.289-.987,13.947-1.391,2.639-.225,5.331-.431,8.023-.539Z" transform="translate(-4.014 57.343)" fill="#146da1" fill-rule="evenodd"/>
      <path id="Path_181897" data-name="Path 181897" d="M127.086,31.98c2.343.242,4.6.44,6.749.539V83.8c-8.8.126-27.427-3.267-40.657-2.656,10.582-2.549,24.43-2.908,31.969-3.016l1.938-.027V31.98ZM68.1,81.145h0c-13.229-.61-31.852,2.782-40.657,2.656V32.519c2.145-.1,4.407-.3,6.749-.539V78.1l1.938.027c7.548.108,21.388.467,31.969,3.016Z" transform="translate(-7.237 16.817)" fill="#1987c6" fill-rule="evenodd"/>
      <path id="Path_181898" data-name="Path 181898" d="M64.946,34.259c-9.962-3.8-22.627-4.2-35.676-3.572V81.97c12.422.179,35.694.978,44.472,8.293,8.777-7.315,32.05-8.113,44.48-8.293V30.687c-12.772-.611-25.157-.242-35.02,3.329A149.486,149.486,0,0,0,89.8,59.7C82.42,65.653,76.5,74.682,74.638,84.034l-.87-.009L74,68.489a2.951,2.951,0,1,0-.79-.009l-.233,15.527L72.116,84c-1.58-9.406-7.234-18.605-14.432-24.771a150.008,150.008,0,0,0,7.261-24.969Z" transform="translate(-0.337 11.012)" fill="#33a1e1" fill-rule="evenodd"/>
      <path id="Path_181899" data-name="Path 181899" d="M56.529,25.616h0a1.8,1.8,0,0,1,1.8,1.8V135.884a1.8,1.8,0,0,1-1.8,1.8h0a1.8,1.8,0,0,1-1.8-1.8V27.412A1.8,1.8,0,0,1,56.529,25.616Z" transform="translate(95.986 -7.255)" fill="#33a1e1" fill-rule="evenodd"/>
    </g>
  </g>
</svg>
