<svg xmlns="http://www.w3.org/2000/svg" xmlns:xlink="http://www.w3.org/1999/xlink" width="543.151" height="135.213" viewBox="0 0 543.151 135.213">
  <defs>
    <clipPath id="clip-path">
      <rect id="Rectangle_26368" data-name="Rectangle 26368" width="543.15" height="67.245" fill="#2b2b2b"/>
    </clipPath>
  </defs>
  <g id="Group_100332" data-name="Group 100332" transform="translate(-765.468 -402.931)">
    <path id="Path_75468" data-name="Path 75468" d="M-220.9,0V-25.2h7.648q.4,0,1.374.017a15.8,15.8,0,0,1,1.864.14,8.8,8.8,0,0,1,4.795,2.135,10.661,10.661,0,0,1,2.887,4.41,17.324,17.324,0,0,1,.962,5.9,17.324,17.324,0,0,1-.962,5.9,10.661,10.661,0,0,1-2.887,4.41,8.8,8.8,0,0,1-4.795,2.135q-.875.105-1.873.131T-213.255,0Zm2.66-2.467h4.988q.717,0,1.549-.044a9.718,9.718,0,0,0,1.426-.166,6.314,6.314,0,0,0,3.561-1.785,8.4,8.4,0,0,0,1.986-3.509,16.119,16.119,0,0,0,.63-4.629,16.275,16.275,0,0,0-.63-4.655,8.211,8.211,0,0,0-1.995-3.5,6.4,6.4,0,0,0-3.553-1.767,9.791,9.791,0,0,0-1.444-.166q-.849-.044-1.531-.044h-4.988ZM-197.05,0V-25.2h2.572V0Zm17.92.525A11.917,11.917,0,0,1-183.925-.4a10.085,10.085,0,0,1-3.631-2.643,11.713,11.713,0,0,1-2.284-4.139,17.472,17.472,0,0,1-.787-5.416,16.2,16.2,0,0,1,1.374-6.9,10.529,10.529,0,0,1,3.946-4.576,11.316,11.316,0,0,1,6.178-1.628,10.7,10.7,0,0,1,6.554,1.881,9.767,9.767,0,0,1,3.526,5.049l-2.59.63a7.643,7.643,0,0,0-2.7-3.692,7.691,7.691,0,0,0-4.681-1.382,8.432,8.432,0,0,0-4.917,1.321,8.154,8.154,0,0,0-2.949,3.745A14.751,14.751,0,0,0-187.9-12.6a14.188,14.188,0,0,0,.971,5.539,8.232,8.232,0,0,0,2.966,3.745,8.619,8.619,0,0,0,4.935,1.374,8.661,8.661,0,0,0,4.48-1.05A6.721,6.721,0,0,0-171.859-6a12.173,12.173,0,0,0,1.041-4.637h-5.81v-2.2h8.505a7.746,7.746,0,0,1,.061.849q.009.446.009.639a14.543,14.543,0,0,1-1.225,6.1,9.6,9.6,0,0,1-3.684,4.235A11.374,11.374,0,0,1-179.13.525ZM-164.2,0V-25.2h2.572V0Zm14.525,0V-22.733h-8.8V-25.2H-138.3v2.468h-8.8V0Zm11.725,0,8.68-25.2h3.412L-117.18,0h-2.678L-128.1-23.765h1.015L-135.275,0Zm3.868-6.108V-8.523h13.02v2.415ZM-113.68,0V-25.2h2.572V-2.467h11.97V0Zm23.117,0V-25.2h2.572V-2.467h11.97V0ZM-72.7,0V-25.2h2.572V0Zm7.822,0V-25.2h9.73a7.482,7.482,0,0,1,3.693.875A6.385,6.385,0,0,1-49-21.971a6.29,6.29,0,0,1,.875,3.264,6.242,6.242,0,0,1-1.085,3.614,5.6,5.6,0,0,1-2.905,2.2l-.035-.857a7.356,7.356,0,0,1,3.85,2.45A6.567,6.567,0,0,1-46.9-7.07,7.333,7.333,0,0,1-47.828-3.3,6.238,6.238,0,0,1-50.435-.858a8.472,8.472,0,0,1-3.9.858Zm2.59-2.467h7.315A6.667,6.667,0,0,0-52.2-3.019a4.6,4.6,0,0,0,1.934-1.566,4.171,4.171,0,0,0,.709-2.45,4.943,4.943,0,0,0-.648-2.52,4.983,4.983,0,0,0-1.759-1.794,4.78,4.78,0,0,0-2.529-.674h-7.787Zm0-11.988h7.123a4.482,4.482,0,0,0,2.2-.551,4.2,4.2,0,0,0,1.584-1.514,4.187,4.187,0,0,0,.586-2.223,3.742,3.742,0,0,0-1.234-2.9,4.494,4.494,0,0,0-3.141-1.12h-7.123ZM-43.418,0V-25.2h9.73q.367,0,.831.026a7.451,7.451,0,0,1,.936.114,7.017,7.017,0,0,1,3.351,1.374,6.854,6.854,0,0,1,2.083,2.7,8.935,8.935,0,0,1,.709,3.6,8.278,8.278,0,0,1-1.5,4.952,6.609,6.609,0,0,1-4.305,2.643l-.892.21h-8.365V0Zm15.26,0-4.97-10.255,2.467-.945L-25.2,0ZM-40.845-12.023h7.088q.315,0,.735-.035a6.35,6.35,0,0,0,.822-.123,4.354,4.354,0,0,0,2.126-1.068,4.972,4.972,0,0,0,1.243-1.873,6.317,6.317,0,0,0,.411-2.257,6.387,6.387,0,0,0-.411-2.266,4.959,4.959,0,0,0-1.243-1.881A4.354,4.354,0,0,0-32.2-22.593a5.474,5.474,0,0,0-.822-.114q-.42-.026-.735-.026h-7.088ZM-23.1,0l8.68-25.2h3.413L-2.328,0H-5.005l-8.242-23.765h1.015L-20.423,0Zm3.868-6.108V-8.523h13.02v2.415ZM.822,0V-25.2h9.73q.367,0,.831.026a7.451,7.451,0,0,1,.936.114,7.017,7.017,0,0,1,3.351,1.374,6.854,6.854,0,0,1,2.083,2.7,8.935,8.935,0,0,1,.709,3.6,8.278,8.278,0,0,1-1.5,4.952,6.609,6.609,0,0,1-4.305,2.643l-.892.21H3.395V0Zm15.26,0-4.97-10.255L13.58-11.2,19.04,0ZM3.395-12.023h7.088q.315,0,.735-.035a6.35,6.35,0,0,0,.823-.123,4.354,4.354,0,0,0,2.126-1.068,4.972,4.972,0,0,0,1.243-1.873,6.317,6.317,0,0,0,.411-2.257,6.387,6.387,0,0,0-.411-2.266,4.959,4.959,0,0,0-1.243-1.881,4.354,4.354,0,0,0-2.126-1.068,5.474,5.474,0,0,0-.823-.114q-.42-.026-.735-.026H3.395ZM28.49,0V-10.553L20.037-25.2h2.975l6.773,11.708L36.522-25.2H39.5L31.08-10.553V0ZM55.65.525a12.135,12.135,0,0,1-3.894-.6,7.136,7.136,0,0,1-3-1.9,6.625,6.625,0,0,1-1.4-2.266A8.659,8.659,0,0,1,46.847-6.9a8.579,8.579,0,0,1,.385-2.642,6.532,6.532,0,0,1,1.26-2.328,4.991,4.991,0,0,1,1.146-1.05,8.81,8.81,0,0,1,1.321-.717,14.324,14.324,0,0,1-2-2.529,5.514,5.514,0,0,1-.691-2.861,6.657,6.657,0,0,1,.989-3.552,6.053,6.053,0,0,1,2.739-2.4,7.716,7.716,0,0,1,1.829-.569,10.642,10.642,0,0,1,1.864-.166,9.99,9.99,0,0,1,2.783.394,6.022,6.022,0,0,1,2.327,1.234,5.7,5.7,0,0,1,1.137,1.2,6.277,6.277,0,0,1,.77,1.444l-2.485.735A3.613,3.613,0,0,0,58.992-22.3a3.933,3.933,0,0,0-1.531-.735,7.366,7.366,0,0,0-1.741-.21,6.167,6.167,0,0,0-2.695.577A3.6,3.6,0,0,0,51.45-21.21a4.331,4.331,0,0,0-.525,2.17,3.884,3.884,0,0,0,.35,1.759,8.283,8.283,0,0,0,1.015,1.5q.385.42.857.849t.963.884l7.98,7.4a9.2,9.2,0,0,0,.088-.954q.017-.464.018-.919l-.018-3.693H64.61v3.867a19.65,19.65,0,0,1-.1,2.258,8.688,8.688,0,0,1-.28,1.452L67.48-1.645l-1.7,1.8L63-2.467A6.144,6.144,0,0,1,61.539-1.12a8.685,8.685,0,0,1-1.759.927,7.465,7.465,0,0,1-2,.569A15.2,15.2,0,0,1,55.65.525Zm.035-2.485a12.051,12.051,0,0,0,1.8-.122,4.881,4.881,0,0,0,1.54-.508,6.463,6.463,0,0,0,1.382-.919,9.413,9.413,0,0,0,.735-.761l-8.19-7.49a5.97,5.97,0,0,0-1.374.621,4.486,4.486,0,0,0-1.094.936,4.2,4.2,0,0,0-.752,1.453,6.037,6.037,0,0,0-.245,1.732,5.929,5.929,0,0,0,.324,1.776A4.186,4.186,0,0,0,50.68-3.8a4.676,4.676,0,0,0,2.2,1.4A9.23,9.23,0,0,0,55.685-1.96ZM77.35,0V-25.2h2.363l9.9,21.193L99.47-25.2h2.4V-.018h-2.45V-19.46L90.44,0H88.777l-8.96-19.46V0ZM116.6.525a10.608,10.608,0,0,1-5.1-1.19,8.711,8.711,0,0,1-3.474-3.36,9.926,9.926,0,0,1-1.26-5.075V-25.183l2.59-.017V-9.433a7.952,7.952,0,0,0,.665,3.386A6.815,6.815,0,0,0,111.764-3.7a7.194,7.194,0,0,0,2.354,1.356,7.648,7.648,0,0,0,2.485.438,7.7,7.7,0,0,0,2.5-.437A7.1,7.1,0,0,0,121.45-3.7a6.87,6.87,0,0,0,1.733-2.345,7.952,7.952,0,0,0,.665-3.386V-25.2h2.59V-9.1a9.878,9.878,0,0,1-1.26,5.066A8.789,8.789,0,0,1,121.7-.674,10.545,10.545,0,0,1,116.6.525Zm22.435,0a12.187,12.187,0,0,1-4.751-.884A9.047,9.047,0,0,1,130.8-2.87a8.231,8.231,0,0,1-1.794-3.868l2.625-.438a6.443,6.443,0,0,0,2.66,3.841,8.364,8.364,0,0,0,4.848,1.391,8.914,8.914,0,0,0,3.325-.586,5.345,5.345,0,0,0,2.31-1.671,4.079,4.079,0,0,0,.84-2.573,3.665,3.665,0,0,0-.35-1.671,3.38,3.38,0,0,0-.928-1.146,5.989,5.989,0,0,0-1.26-.761,10.713,10.713,0,0,0-1.33-.5l-6.388-1.908a11.237,11.237,0,0,1-2.135-.849,7.018,7.018,0,0,1-1.706-1.242,5.155,5.155,0,0,1-1.129-1.706,5.855,5.855,0,0,1-.4-2.24,6.156,6.156,0,0,1,1.12-3.693,7.185,7.185,0,0,1,3.063-2.4,10.861,10.861,0,0,1,4.427-.823,10.883,10.883,0,0,1,4.506.892,8.54,8.54,0,0,1,3.281,2.546,8.863,8.863,0,0,1,1.715,3.911l-2.695.49A6.1,6.1,0,0,0,144.2-20.72a6.253,6.253,0,0,0-2.406-1.864,7.946,7.946,0,0,0-3.211-.674,7.571,7.571,0,0,0-3.019.569,5.217,5.217,0,0,0-2.091,1.549,3.527,3.527,0,0,0-.77,2.24,2.9,2.9,0,0,0,.709,2.048,4.943,4.943,0,0,0,1.75,1.208,17.983,17.983,0,0,0,2.021.717l4.935,1.453q.77.21,1.811.6a8.526,8.526,0,0,1,2.03,1.12,5.779,5.779,0,0,1,1.636,1.9,6.105,6.105,0,0,1,.647,2.975,6.909,6.909,0,0,1-.691,3.132,6.558,6.558,0,0,1-1.942,2.328A9.131,9.131,0,0,1,142.686.026,12.714,12.714,0,0,1,139.037.525ZM151.865,0V-25.2h15.75v2.468H154.437v8.715h11.077v2.468H154.437v9.083h13.177V0ZM181.65.525a10.608,10.608,0,0,1-5.1-1.19,8.711,8.711,0,0,1-3.474-3.36,9.926,9.926,0,0,1-1.26-5.075V-25.183l2.59-.017V-9.433a7.952,7.952,0,0,0,.665,3.386A6.815,6.815,0,0,0,176.811-3.7a7.194,7.194,0,0,0,2.354,1.356,7.648,7.648,0,0,0,2.485.438,7.7,7.7,0,0,0,2.5-.437A7.1,7.1,0,0,0,186.5-3.7a6.87,6.87,0,0,0,1.733-2.345,7.952,7.952,0,0,0,.665-3.386V-25.2h2.59V-9.1a9.878,9.878,0,0,1-1.26,5.066,8.789,8.789,0,0,1-3.474,3.36A10.545,10.545,0,0,1,181.65.525ZM196.385,0V-25.2h2.363l9.9,21.193L218.5-25.2h2.4V-.018h-2.45V-19.46L209.475,0h-1.662l-8.96-19.46V0Z" transform="translate(1037.468 537.618)" fill="#2b2b2b"/>
    <g id="Group_100118" data-name="Group 100118" transform="translate(765.468 402.931)" clip-path="url(#clip-path)">
      <path id="Path_73424" data-name="Path 73424" d="M304.667,12.626h-3.777c-8.257,0-14.628.354-20.529.354-5.221,0-9.4-.31-13.9-.348h-1c-3.645.028-8.069.232-11.586.232-3.423,0-8.025-.238-12.272-.238-.946,0-1.532.238-1.532.824,0,.708,1.062.824,1.77.824,7.671,0,9.081,3.777,9.081,9.557V52.036L208.088,15.452a11.454,11.454,0,0,0-9.673-2.832h-12.98c-.946,0-1.659.238-1.659.824,0,.708,1.062.824,2.008.824,6.255,0,9.2,3.186,9.2,7.433v33.05c0,6.255-2.24,9.435-9.2,9.435a4.507,4.507,0,0,0-1.073.122,7.106,7.106,0,0,0-1.5-.122c-4.839,0-8.495-4.6-11.564-9.673L147.818,16.282c-1.77-2.832-3.54-3.656-8.733-3.656H128.118c-2.24,0-1.77,1.659,0,1.659a10.126,10.126,0,0,1,8.611,3.539L113.844,53.219c-4.341,6.714-8.025,10.934-14.3,10.934a9.957,9.957,0,0,0-1.15.055,9.828,9.828,0,0,0-2.146-.171c-8.379,0-17.7-9.44-26.308-18.405L55.564,30.766,73.383,14.158c6.487-6.017,15.1-12.5,21.707-12.5,1.416,0,2.832-.116,2.832-.708,0-.824-.708-.946-2.362-.946-4.717,0-8.965.354-13.566.354-4.839,0-7.19-.354-11.68-.354-1.659,0-2.478.116-2.478.824s1.294.83,2.953.83c3.423,0,4.839.824,4.839,2.124,0,1.886-2.715,4.717-6.133,7.9l-17.117,15.8-15.1-15.319c-3.893-3.91-6.371-6.858-6.371-8.627,0-1.178,1.3-1.886,4.131-1.886,1.659,0,3.318-.116,3.318-.824S36.927,0,35.749,0c-4.225,0-7.079.354-14.28.354C15.336.354,12.034,0,6.017,0,4.485,0,3.871.238,3.871.824s1.2.835,2.616.835c7.339,0,16.044,9.667,22.537,16.276L44.36,33.974,25.13,52.025C17.814,58.518,10.265,64.153,2.715,64.153c-1.532,0-2.715.116-2.715.824,0,.824.824.824,2.478.824,4.6,0,9.087-.238,13.826-.238,4.6,0,9.087.238,13.688.238,1.416,0,2.362-.116,2.362-.824s-1.327-.824-2.975-.824c-3.656,0-5.193-.946-5.193-2.478,0-1.77,2.008-4.485,5.193-7.549L47.562,37.165l16.591,16.4c3.656,3.656,6.371,6.609,6.371,8.495,0,1.3-1.3,2.008-4.247,2.008-1.416,0-3.186.116-3.186.824,0,.946,1.416.946,2.594.946,4.364,0,7.9-.238,15.22-.238,5.9,0,10.143.238,15.69.238a12.493,12.493,0,0,0,1.571-.072,6.185,6.185,0,0,0,1.018.072c3.871,0,7.19-.238,11.089-.238,4.01,0,7.9.238,11.918.238,1.3,0,2.008-.238,2.008-.824,0-.708-1.062-.824-2.362-.824-3.871,0-5.425-1.416-5.425-3.539a10.685,10.685,0,0,1,2.008-5.193l3.656-5.9,2.362-3.65,14.982-23.947L154.189,45.9l2.24,3.656,4.485,7.19a8.788,8.788,0,0,1,1.659,4.364c0,2.362-2.832,3.069-5.9,3.069-1.416,0-2.124.238-2.124.946,0,.592.592.708,2.124.708,4.839,0,9.794-.238,14.628-.238s7.317.238,12.034.238a8.708,8.708,0,0,0,1.278-.077,4.115,4.115,0,0,0,.824.077c3.777,0,8.733-.238,12.5-.238,3.423,0,8.611.238,12.5.238.824,0,1.416-.238,1.416-.708,0-.708-.824-.946-1.886-.946-7.671,0-9.087-3.777-9.087-9.435V22.183L251.5,64.535c3.186,2.594,3.871,2.715,4.485,2.715.708,0,.824-.824.824-4.6V23.831c0-6.255,2.124-9.557,9.081-9.557h.077c6.487,0,9.2,4.6,9.2,11.089v27.73c0,6.963-2.948,11.089-9.2,11.089-.824,0-2.008.116-2.008.824s.708.824,1.659.824c4.839,0,9.2-.238,14.866-.238s14.512.238,24.068.238c22.415,0,38.813-8.141,38.813-27.016,0-18.284-16.636-26.192-38.713-26.192m.116,49.9c-18.051,0-19.229-.354-19.229-11.8V25.009c0-8.495.47-9.087,7.787-9.087h10.851c16.752,0,26.9,8.025,26.9,22.885,0,14.744-9.673,23.715-26.308,23.715" transform="translate(0 0)" fill="#2b2b2b"/>
      <path id="Path_73425" data-name="Path 73425" d="M1425.545,96.335c-4.839,0-8.495-4.6-11.563-9.673l-23.831-38.226c-1.769-2.832-3.539-3.656-8.727-3.656h-10.972c-2.24,0-1.769,1.659,0,1.659a10.127,10.127,0,0,1,8.611,3.54l-22.885,35.395c-4.369,6.725-8.025,10.972-14.274,10.972h-1.455a9.881,9.881,0,0,1-8.14-3.871,16.209,16.209,0,0,1-1.063-7.19V57.523a15.239,15.239,0,0,1,1.063-7.079,10.326,10.326,0,0,1,8.14-4.01c1.295,0,2.362-.116,2.362-.824,0-.592-.708-.824-2.124-.824-5.072,0-10.027.238-14.75.238-5.071,0-9.319-.238-14.512-.238-1.294,0-2.124.238-2.124.824,0,.708,1.177.824,2.478.824a10.107,10.107,0,0,1,8.024,4.009,13.492,13.492,0,0,1,1.179,7.079V85.247a14.3,14.3,0,0,1-1.178,7.19,9.665,9.665,0,0,1-8.025,3.871,6.914,6.914,0,0,0-1.416.127,2.006,2.006,0,0,0-.278,0c-1.659.116-2.24.116-3.871.116-5.309-.116-10.619-4.839-17.936-14.628-2.124-2.715-4.977-6.487-6.842-6.957,8.732-1.178,16.989-5.9,16.989-15.1,0-12.5-14.628-15.1-27.84-15.1h-7.47c-2.948,0-8.5.238-14.513.238-5.071,0-10.026-.238-14.512-.238-.946,0-1.531.238-1.531.824s.708.824,2.007.824c6.488.116,9.319,4.131,9.319,10.508V85.236a15.8,15.8,0,0,1-1.178,7.19,9.666,9.666,0,0,1-8.257,3.871c-1.3.116-2.24.238-2.24.824,0,.708.824.824,2.124.824,5.425,0,10.381-.238,14.628-.238,4.131,0,9.319.238,14.512.238,1.416,0,2.008-.116,2.008-.824s-.946-.708-2.361-.824a9.731,9.731,0,0,1-8.141-3.871,16.666,16.666,0,0,1-.947-7.19V56.345c0-7.671.47-8.257,9.557-8.257h6.487c10.265,0,16.874,3.318,16.874,12.034s-6.6,11.68-16.874,11.68c-3.03.077-4.651,1.189-4.6,3.539,5.187,0,6.133.238,11.912,8.495,9.557,13.682,11.559,14.628,25.009,14.628a67.232,67.232,0,0,0,7.621-.553,7.326,7.326,0,0,0,1.383.1c5.071,0,9.794-.238,14.379-.238,4.977,0,9.672.238,14.866.238h.862c3.871,0,7.189-.238,11.089-.238,4.009,0,7.9.238,11.918.238,1.3,0,2.008-.238,2.008-.824,0-.708-1.062-.824-2.361-.824-3.872,0-5.425-1.416-5.425-3.54a10.691,10.691,0,0,1,2.008-5.193l3.655-5.9,2.356-3.656,14.982-23.947,14.75,23.947,2.24,3.656,4.485,7.19a8.8,8.8,0,0,1,1.659,4.364c0,2.361-2.831,3.069-5.9,3.069-1.416,0-2.124.238-2.124.946,0,.592.592.708,2.124.708,4.839,0,9.794-.238,14.628-.238s7.317.238,12.034.238c1.66,0,2.241-.238,2.241-.708,0-.708-.709-.946-2.362-.946" transform="translate(-884.762 -32.155)" fill="#2b2b2b"/>
    </g>
  </g>
</svg>
