<svg xmlns="http://www.w3.org/2000/svg" xmlns:xlink="http://www.w3.org/1999/xlink" width="94.076" height="49.312" viewBox="0 0 94.076 49.312">
  <defs>
    <linearGradient id="linear-gradient" x1="0.5" y1="1" x2="0.5" gradientUnits="objectBoundingBox">
      <stop offset="0" stop-color="#33a1e1"/>
      <stop offset="1" stop-color="#fefefe"/>
    </linearGradient>
    <linearGradient id="linear-gradient-2" x1="0.5" y1="0" x2="0.5" y2="1" xlink:href="#linear-gradient"/>
  </defs>
  <g id="Layer_x0020_1" transform="translate(-23.22 -21.777)">
    <g id="_592887584" transform="translate(23.22 21.777)">
      <path id="_592889936" d="M55.591,25.616h0a.6.6,0,0,1,.6.6V62.654a.6.6,0,0,1-.6.6h0a.6.6,0,0,1-.6-.6V26.22A.6.6,0,0,1,55.591,25.616Z" transform="translate(-3.954 -19.449)" fill="rgba(204,214,220,0.2)" fill-rule="evenodd"/>
      <path id="_592889216" d="M47.876,21.777A24.656,24.656,0,1,1,23.22,46.433,24.656,24.656,0,0,1,47.876,21.777Z" transform="translate(-23.22 -21.777)" fill-rule="evenodd" fill="url(#linear-gradient)"/>
      <path id="_592889624" d="M47.479,69.641a23.6,23.6,0,1,0-23.6-23.6A23.6,23.6,0,0,0,47.479,69.641Z" transform="translate(-22.823 -21.38)" fill-rule="evenodd" fill="url(#linear-gradient-2)"/>
      <path id="_592888640" d="M47.241,68.773A22.974,22.974,0,1,0,24.267,45.8,22.974,22.974,0,0,0,47.241,68.773Z" transform="translate(-22.585 -21.142)" fill="#fefefe" fill-rule="evenodd"/>
      <g id="Group_101325" data-name="Group 101325" transform="translate(54.508 9.858)">
        <path id="_592887632" d="M73.635,32.891a2.827,2.827,0,0,0,.93-.562,2.321,2.321,0,0,0,.558-.782,2.276,2.276,0,0,0,.186-.914,2.433,2.433,0,0,0-.274-1.149,2.281,2.281,0,0,0-.746-.823,3.089,3.089,0,0,0-.787-.4,4.6,4.6,0,0,0-.948-.209,8.935,8.935,0,0,0-1.149-.061c-.342,0-.678.009-1.009.03s-.635.045-.916.077-.526.07-.728.111V38.5c.245.036.553.066.927.093s.807.041,1.3.043a10.938,10.938,0,0,0,1.641-.111,5.314,5.314,0,0,0,1.229-.331,2.989,2.989,0,0,0,.871-.537,2.8,2.8,0,0,0,.519-.617,2.935,2.935,0,0,0,.433-1.532,2.651,2.651,0,0,0-.27-1.19,2.478,2.478,0,0,0-.721-.868,2.939,2.939,0,0,0-1.05-.5v-.054Zm-2.883-.558V29.559a2.342,2.342,0,0,1,.345-.05c.143-.011.324-.018.539-.018a2.754,2.754,0,0,1,.639.068,1.583,1.583,0,0,1,.535.231,1.127,1.127,0,0,1,.365.424,1.471,1.471,0,0,1,.134.651,1.369,1.369,0,0,1-.218.762,1.458,1.458,0,0,1-.623.517,2.374,2.374,0,0,1-.982.19h-.734Zm0,1.469H71.5a3.122,3.122,0,0,1,.759.086,2.089,2.089,0,0,1,.662.283,1.4,1.4,0,0,1,.469.508,1.6,1.6,0,0,1,.177.769,1.717,1.717,0,0,1-.161.762,1.431,1.431,0,0,1-.437.519,1.916,1.916,0,0,1-.642.3,3.022,3.022,0,0,1-.773.1c-.174,0-.329,0-.458-.011a2.679,2.679,0,0,1-.345-.043ZM81.2,27.913a4.353,4.353,0,0,0-1.514.263,4.005,4.005,0,0,0-1.238.746,4.574,4.574,0,0,0-.927,1.156,5.821,5.821,0,0,0-.58,1.5,7.439,7.439,0,0,0-.2,1.766,7.614,7.614,0,0,0,.186,1.721,5.739,5.739,0,0,0,.542,1.471,4.309,4.309,0,0,0,.882,1.145,3.745,3.745,0,0,0,1.206.743,4.218,4.218,0,0,0,1.51.265,4.474,4.474,0,0,0,1.791-.349A3.823,3.823,0,0,0,84.261,37.3a4.845,4.845,0,0,0,.92-1.723,8.106,8.106,0,0,0,.329-2.4,7.573,7.573,0,0,0-.17-1.619,5.889,5.889,0,0,0-.512-1.44,4.377,4.377,0,0,0-.859-1.156,3.742,3.742,0,0,0-1.208-.771A4.242,4.242,0,0,0,81.2,27.913Zm-.054,1.646a1.727,1.727,0,0,1,.825.2,2,2,0,0,1,.635.551,3.206,3.206,0,0,1,.447.818,5.213,5.213,0,0,1,.265,1.009,7.254,7.254,0,0,1,.086,1.122,7.081,7.081,0,0,1-.145,1.48,4.282,4.282,0,0,1-.428,1.2,2.288,2.288,0,0,1-.712.8,1.789,1.789,0,0,1-1.968,0,2.338,2.338,0,0,1-.716-.8,4.171,4.171,0,0,1-.438-1.19,6.715,6.715,0,0,1-.15-1.451,7.081,7.081,0,0,1,.088-1.127,5.2,5.2,0,0,1,.265-1.018,3.277,3.277,0,0,1,.453-.832,2.046,2.046,0,0,1,.646-.56,1.786,1.786,0,0,1,.846-.2ZM63.135,47.649a3.961,3.961,0,0,0-.578-.233,5.335,5.335,0,0,0-.752-.175,6.254,6.254,0,0,0-.914-.068,4.7,4.7,0,0,0-1.517.233,3.294,3.294,0,0,0-1.131.639,2.785,2.785,0,0,0-.712.963,2.988,2.988,0,0,0-.245,1.2,2.526,2.526,0,0,0,.313,1.236,3.313,3.313,0,0,0,.88,1,6.254,6.254,0,0,0,1.365.782,5.7,5.7,0,0,1,.945.5,1.8,1.8,0,0,1,.542.539,1.249,1.249,0,0,1,.172.662,1.2,1.2,0,0,1-.193.682,1.266,1.266,0,0,1-.571.458,2.4,2.4,0,0,1-.936.165,4.508,4.508,0,0,1-.839-.079,4.961,4.961,0,0,1-.78-.209,3.638,3.638,0,0,1-.639-.3l-.395,1.687a3.181,3.181,0,0,0,.655.286,6.37,6.37,0,0,0,.9.213,6.246,6.246,0,0,0,1.018.086,5.3,5.3,0,0,0,1.623-.236,3.435,3.435,0,0,0,1.195-.66,2.792,2.792,0,0,0,.739-1,3.117,3.117,0,0,0,.252-1.263,2.891,2.891,0,0,0-.256-1.245A2.953,2.953,0,0,0,62.48,52.5a5.645,5.645,0,0,0-1.372-.827c-.32-.145-.592-.279-.821-.4a3.171,3.171,0,0,1-.555-.372,1.221,1.221,0,0,1-.32-.4,1.181,1.181,0,0,1-.1-.494,1.039,1.039,0,0,1,.163-.56,1.168,1.168,0,0,1,.5-.426,2.01,2.01,0,0,1,.871-.17,4.331,4.331,0,0,1,.782.072,4.114,4.114,0,0,1,.626.175,3.772,3.772,0,0,1,.456.2l.422-1.646Zm7.454,0a3.962,3.962,0,0,0-.578-.233,5.335,5.335,0,0,0-.752-.175,6.254,6.254,0,0,0-.914-.068,4.7,4.7,0,0,0-1.517.233,3.294,3.294,0,0,0-1.131.639,2.785,2.785,0,0,0-.712.963,2.988,2.988,0,0,0-.245,1.2,2.526,2.526,0,0,0,.313,1.236,3.313,3.313,0,0,0,.88,1,6.255,6.255,0,0,0,1.365.782,5.7,5.7,0,0,1,.945.5,1.8,1.8,0,0,1,.542.539,1.249,1.249,0,0,1,.172.662,1.2,1.2,0,0,1-.193.682,1.266,1.266,0,0,1-.571.458,2.4,2.4,0,0,1-.936.165,4.508,4.508,0,0,1-.839-.079,4.961,4.961,0,0,1-.78-.209,3.638,3.638,0,0,1-.639-.3L64.6,57.333a3.182,3.182,0,0,0,.655.286,6.37,6.37,0,0,0,.9.213,6.246,6.246,0,0,0,1.018.086,5.3,5.3,0,0,0,1.623-.236,3.435,3.435,0,0,0,1.195-.66,2.792,2.792,0,0,0,.739-1,3.118,3.118,0,0,0,.252-1.263,2.891,2.891,0,0,0-.256-1.245,2.953,2.953,0,0,0-.793-1.016,5.645,5.645,0,0,0-1.372-.827c-.32-.145-.592-.279-.821-.4a3.171,3.171,0,0,1-.555-.372,1.221,1.221,0,0,1-.32-.4,1.181,1.181,0,0,1-.1-.494,1.039,1.039,0,0,1,.163-.56,1.168,1.168,0,0,1,.5-.426,2.01,2.01,0,0,1,.871-.17,4.331,4.331,0,0,1,.782.072,4.115,4.115,0,0,1,.626.175,3.773,3.773,0,0,1,.456.2l.422-1.646Zm9.494,4.3H76.655v1.591h1.51V56.1a1.558,1.558,0,0,1-.4.107,4.216,4.216,0,0,1-.635.043,3.115,3.115,0,0,1-1.2-.229,2.63,2.63,0,0,1-.957-.685,3.187,3.187,0,0,1-.632-1.14,5.169,5.169,0,0,1-.229-1.591,4.989,4.989,0,0,1,.249-1.641,3.08,3.08,0,0,1,.691-1.145,2.79,2.79,0,0,1,1.038-.669,3.765,3.765,0,0,1,1.3-.218,6.331,6.331,0,0,1,.823.05,4.284,4.284,0,0,1,.653.136,3.794,3.794,0,0,1,.524.195l.422-1.659a3.5,3.5,0,0,0-.623-.222,6.2,6.2,0,0,0-.83-.154,8.019,8.019,0,0,0-1-.059,6.352,6.352,0,0,0-1.711.224,5.145,5.145,0,0,0-1.474.666,4.613,4.613,0,0,0-1.154,1.1,5,5,0,0,0-.75,1.517A6.583,6.583,0,0,0,72,52.641a7.112,7.112,0,0,0,.168,1.571,5.564,5.564,0,0,0,.48,1.347,4.2,4.2,0,0,0,.766,1.054A4.134,4.134,0,0,0,75,57.578a6.528,6.528,0,0,0,2.108.313,8.448,8.448,0,0,0,1.163-.084,9.572,9.572,0,0,0,1.034-.2,6.577,6.577,0,0,0,.782-.236V51.947Zm8.188,3.958a3.2,3.2,0,0,1-.483.156,4.892,4.892,0,0,1-.589.1,5.285,5.285,0,0,1-.628.039,3.165,3.165,0,0,1-1.643-.415,2.737,2.737,0,0,1-1.075-1.224,4.724,4.724,0,0,1-.383-1.993,5.118,5.118,0,0,1,.245-1.648,3.188,3.188,0,0,1,.664-1.158,2.739,2.739,0,0,1,.991-.682,3.254,3.254,0,0,1,1.215-.224,4.128,4.128,0,0,1,.954.1,3.936,3.936,0,0,1,.719.236l.394-1.632a2.243,2.243,0,0,0-.442-.174,4.915,4.915,0,0,0-.725-.154,7.078,7.078,0,0,0-1-.066,5.7,5.7,0,0,0-1.6.222,4.819,4.819,0,0,0-1.406.662,4.576,4.576,0,0,0-1.118,1.1,5.141,5.141,0,0,0-.739,1.542,6.928,6.928,0,0,0-.267,1.979,6.7,6.7,0,0,0,.322,2.126,4.663,4.663,0,0,0,.941,1.655,4.141,4.141,0,0,0,1.532,1.072,5.443,5.443,0,0,0,2.088.383,7.727,7.727,0,0,0,.988-.061,5.944,5.944,0,0,0,.789-.147,2.909,2.909,0,0,0,.535-.186l-.286-1.619Zm1.755,1.877h2V53.865a2.741,2.741,0,0,0,.336.043c.125.007.256.011.4.011a5.774,5.774,0,0,0,.836-.061,4.807,4.807,0,0,0,.884-.211,3.862,3.862,0,0,0,.846-.406,2.921,2.921,0,0,0,1.208-1.575,4.038,4.038,0,0,0,.184-1.256,3.353,3.353,0,0,0-.122-.918,3,3,0,0,0-.345-.793,2.667,2.667,0,0,0-.539-.628,3.166,3.166,0,0,0-1.245-.63,6.607,6.607,0,0,0-1.734-.2q-.867,0-1.542.063c-.451.041-.839.091-1.165.154V57.782Zm2-8.9a2.615,2.615,0,0,1,.349-.057,4.8,4.8,0,0,1,.521-.025,2.235,2.235,0,0,1,.968.193,1.4,1.4,0,0,1,.63.571,1.852,1.852,0,0,1,.224.936,1.937,1.937,0,0,1-.236.977,1.583,1.583,0,0,1-.678.635,2.416,2.416,0,0,1-1.072.224c-.147,0-.279,0-.395-.011a2.336,2.336,0,0,1-.313-.043v-3.4Z" transform="translate(-57.15 -27.913)" fill="none"/>
        <path id="_5928876321" d="M73.635,32.891a2.827,2.827,0,0,0,.93-.562,2.321,2.321,0,0,0,.558-.782,2.276,2.276,0,0,0,.186-.914,2.433,2.433,0,0,0-.274-1.149,2.281,2.281,0,0,0-.746-.823,3.089,3.089,0,0,0-.787-.4,4.6,4.6,0,0,0-.948-.209,8.935,8.935,0,0,0-1.149-.061c-.342,0-.678.009-1.009.03s-.635.045-.916.077-.526.07-.728.111V38.5c.245.036.553.066.927.093s.807.041,1.3.043a10.938,10.938,0,0,0,1.641-.111,5.314,5.314,0,0,0,1.229-.331,2.989,2.989,0,0,0,.871-.537,2.8,2.8,0,0,0,.519-.617,2.935,2.935,0,0,0,.433-1.532,2.651,2.651,0,0,0-.27-1.19,2.478,2.478,0,0,0-.721-.868,2.939,2.939,0,0,0-1.05-.5v-.054Zm-2.883-.558V29.559a2.342,2.342,0,0,1,.345-.05c.143-.011.324-.018.539-.018a2.754,2.754,0,0,1,.639.068,1.583,1.583,0,0,1,.535.231,1.127,1.127,0,0,1,.365.424,1.471,1.471,0,0,1,.134.651,1.369,1.369,0,0,1-.218.762,1.458,1.458,0,0,1-.623.517,2.374,2.374,0,0,1-.982.19h-.734Zm0,1.469H71.5a3.122,3.122,0,0,1,.759.086,2.089,2.089,0,0,1,.662.283,1.4,1.4,0,0,1,.469.508,1.6,1.6,0,0,1,.177.769,1.717,1.717,0,0,1-.161.762,1.431,1.431,0,0,1-.437.519,1.916,1.916,0,0,1-.642.3,3.022,3.022,0,0,1-.773.1c-.174,0-.329,0-.458-.011a2.679,2.679,0,0,1-.345-.043ZM81.2,27.913a4.353,4.353,0,0,0-1.514.263,4.005,4.005,0,0,0-1.238.746,4.574,4.574,0,0,0-.927,1.156,5.821,5.821,0,0,0-.58,1.5,7.439,7.439,0,0,0-.2,1.766,7.614,7.614,0,0,0,.186,1.721,5.739,5.739,0,0,0,.542,1.471,4.309,4.309,0,0,0,.882,1.145,3.745,3.745,0,0,0,1.206.743,4.218,4.218,0,0,0,1.51.265,4.474,4.474,0,0,0,1.791-.349A3.823,3.823,0,0,0,84.261,37.3a4.845,4.845,0,0,0,.92-1.723,8.106,8.106,0,0,0,.329-2.4,7.573,7.573,0,0,0-.17-1.619,5.889,5.889,0,0,0-.512-1.44,4.377,4.377,0,0,0-.859-1.156,3.742,3.742,0,0,0-1.208-.771A4.242,4.242,0,0,0,81.2,27.913Zm-.054,1.646a1.727,1.727,0,0,1,.825.2,2,2,0,0,1,.635.551,3.206,3.206,0,0,1,.447.818,5.213,5.213,0,0,1,.265,1.009,7.254,7.254,0,0,1,.086,1.122,7.081,7.081,0,0,1-.145,1.48,4.282,4.282,0,0,1-.428,1.2,2.288,2.288,0,0,1-.712.8,1.789,1.789,0,0,1-1.968,0,2.338,2.338,0,0,1-.716-.8,4.171,4.171,0,0,1-.438-1.19,6.715,6.715,0,0,1-.15-1.451,7.081,7.081,0,0,1,.088-1.127,5.2,5.2,0,0,1,.265-1.018,3.277,3.277,0,0,1,.453-.832,2.046,2.046,0,0,1,.646-.56,1.786,1.786,0,0,1,.846-.2ZM63.135,47.649a3.961,3.961,0,0,0-.578-.233,5.335,5.335,0,0,0-.752-.175,6.254,6.254,0,0,0-.914-.068,4.7,4.7,0,0,0-1.517.233,3.294,3.294,0,0,0-1.131.639,2.785,2.785,0,0,0-.712.963,2.988,2.988,0,0,0-.245,1.2,2.526,2.526,0,0,0,.313,1.236,3.313,3.313,0,0,0,.88,1,6.254,6.254,0,0,0,1.365.782,5.7,5.7,0,0,1,.945.5,1.8,1.8,0,0,1,.542.539,1.249,1.249,0,0,1,.172.662,1.2,1.2,0,0,1-.193.682,1.266,1.266,0,0,1-.571.458,2.4,2.4,0,0,1-.936.165,4.508,4.508,0,0,1-.839-.079,4.961,4.961,0,0,1-.78-.209,3.638,3.638,0,0,1-.639-.3l-.395,1.687a3.181,3.181,0,0,0,.655.286,6.37,6.37,0,0,0,.9.213,6.246,6.246,0,0,0,1.018.086,5.3,5.3,0,0,0,1.623-.236,3.435,3.435,0,0,0,1.195-.66,2.792,2.792,0,0,0,.739-1,3.117,3.117,0,0,0,.252-1.263,2.891,2.891,0,0,0-.256-1.245A2.953,2.953,0,0,0,62.48,52.5a5.645,5.645,0,0,0-1.372-.827c-.32-.145-.592-.279-.821-.4a3.171,3.171,0,0,1-.555-.372,1.221,1.221,0,0,1-.32-.4,1.181,1.181,0,0,1-.1-.494,1.039,1.039,0,0,1,.163-.56,1.168,1.168,0,0,1,.5-.426,2.01,2.01,0,0,1,.871-.17,4.331,4.331,0,0,1,.782.072,4.114,4.114,0,0,1,.626.175,3.772,3.772,0,0,1,.456.2l.422-1.646Zm7.454,0a3.962,3.962,0,0,0-.578-.233,5.335,5.335,0,0,0-.752-.175,6.254,6.254,0,0,0-.914-.068,4.7,4.7,0,0,0-1.517.233,3.294,3.294,0,0,0-1.131.639,2.785,2.785,0,0,0-.712.963,2.988,2.988,0,0,0-.245,1.2,2.526,2.526,0,0,0,.313,1.236,3.313,3.313,0,0,0,.88,1,6.255,6.255,0,0,0,1.365.782,5.7,5.7,0,0,1,.945.5,1.8,1.8,0,0,1,.542.539,1.249,1.249,0,0,1,.172.662,1.2,1.2,0,0,1-.193.682,1.266,1.266,0,0,1-.571.458,2.4,2.4,0,0,1-.936.165,4.508,4.508,0,0,1-.839-.079,4.961,4.961,0,0,1-.78-.209,3.638,3.638,0,0,1-.639-.3L64.6,57.333a3.182,3.182,0,0,0,.655.286,6.37,6.37,0,0,0,.9.213,6.246,6.246,0,0,0,1.018.086,5.3,5.3,0,0,0,1.623-.236,3.435,3.435,0,0,0,1.195-.66,2.792,2.792,0,0,0,.739-1,3.118,3.118,0,0,0,.252-1.263,2.891,2.891,0,0,0-.256-1.245,2.953,2.953,0,0,0-.793-1.016,5.645,5.645,0,0,0-1.372-.827c-.32-.145-.592-.279-.821-.4a3.171,3.171,0,0,1-.555-.372,1.221,1.221,0,0,1-.32-.4,1.181,1.181,0,0,1-.1-.494,1.039,1.039,0,0,1,.163-.56,1.168,1.168,0,0,1,.5-.426,2.01,2.01,0,0,1,.871-.17,4.331,4.331,0,0,1,.782.072,4.115,4.115,0,0,1,.626.175,3.773,3.773,0,0,1,.456.2l.422-1.646Zm9.494,4.3H76.655v1.591h1.51V56.1a1.558,1.558,0,0,1-.4.107,4.216,4.216,0,0,1-.635.043,3.115,3.115,0,0,1-1.2-.229,2.63,2.63,0,0,1-.957-.685,3.187,3.187,0,0,1-.632-1.14,5.169,5.169,0,0,1-.229-1.591,4.989,4.989,0,0,1,.249-1.641,3.08,3.08,0,0,1,.691-1.145,2.79,2.79,0,0,1,1.038-.669,3.765,3.765,0,0,1,1.3-.218,6.331,6.331,0,0,1,.823.05,4.284,4.284,0,0,1,.653.136,3.794,3.794,0,0,1,.524.195l.422-1.659a3.5,3.5,0,0,0-.623-.222,6.2,6.2,0,0,0-.83-.154,8.019,8.019,0,0,0-1-.059,6.352,6.352,0,0,0-1.711.224,5.145,5.145,0,0,0-1.474.666,4.613,4.613,0,0,0-1.154,1.1,5,5,0,0,0-.75,1.517A6.583,6.583,0,0,0,72,52.641a7.112,7.112,0,0,0,.168,1.571,5.564,5.564,0,0,0,.48,1.347,4.2,4.2,0,0,0,.766,1.054A4.134,4.134,0,0,0,75,57.578a6.528,6.528,0,0,0,2.108.313,8.448,8.448,0,0,0,1.163-.084,9.572,9.572,0,0,0,1.034-.2,6.577,6.577,0,0,0,.782-.236V51.947Zm8.188,3.958a3.2,3.2,0,0,1-.483.156,4.892,4.892,0,0,1-.589.1,5.285,5.285,0,0,1-.628.039,3.165,3.165,0,0,1-1.643-.415,2.737,2.737,0,0,1-1.075-1.224,4.724,4.724,0,0,1-.383-1.993,5.118,5.118,0,0,1,.245-1.648,3.188,3.188,0,0,1,.664-1.158,2.739,2.739,0,0,1,.991-.682,3.254,3.254,0,0,1,1.215-.224,4.128,4.128,0,0,1,.954.1,3.936,3.936,0,0,1,.719.236l.394-1.632a2.243,2.243,0,0,0-.442-.174,4.915,4.915,0,0,0-.725-.154,7.078,7.078,0,0,0-1-.066,5.7,5.7,0,0,0-1.6.222,4.819,4.819,0,0,0-1.406.662,4.576,4.576,0,0,0-1.118,1.1,5.141,5.141,0,0,0-.739,1.542,6.928,6.928,0,0,0-.267,1.979,6.7,6.7,0,0,0,.322,2.126,4.663,4.663,0,0,0,.941,1.655,4.141,4.141,0,0,0,1.532,1.072,5.443,5.443,0,0,0,2.088.383,7.727,7.727,0,0,0,.988-.061,5.944,5.944,0,0,0,.789-.147,2.909,2.909,0,0,0,.535-.186l-.286-1.619Zm1.755,1.877h2V53.865a2.741,2.741,0,0,0,.336.043c.125.007.256.011.4.011a5.774,5.774,0,0,0,.836-.061,4.807,4.807,0,0,0,.884-.211,3.862,3.862,0,0,0,.846-.406,2.921,2.921,0,0,0,1.208-1.575,4.038,4.038,0,0,0,.184-1.256,3.353,3.353,0,0,0-.122-.918,3,3,0,0,0-.345-.793,2.667,2.667,0,0,0-.539-.628,3.166,3.166,0,0,0-1.245-.63,6.607,6.607,0,0,0-1.734-.2q-.867,0-1.542.063c-.451.041-.839.091-1.165.154V57.782Zm2-8.9a2.615,2.615,0,0,1,.349-.057,4.8,4.8,0,0,1,.521-.025,2.235,2.235,0,0,1,.968.193,1.4,1.4,0,0,1,.63.571,1.852,1.852,0,0,1,.224.936,1.937,1.937,0,0,1-.236.977,1.583,1.583,0,0,1-.678.635,2.416,2.416,0,0,1-1.072.224c-.147,0-.279,0-.395-.011a2.336,2.336,0,0,1-.313-.043v-3.4Z" transform="translate(-57.15 -27.913)" fill="#dedede"/>
      </g>
      <path id="Path_181895" data-name="Path 181895" d="M73.411,32.637a2.827,2.827,0,0,0,.93-.562,2.321,2.321,0,0,0,.558-.782,2.277,2.277,0,0,0,.186-.914,2.433,2.433,0,0,0-.274-1.149,2.281,2.281,0,0,0-.746-.823,3.088,3.088,0,0,0-.787-.4,4.6,4.6,0,0,0-.948-.209,8.937,8.937,0,0,0-1.149-.061c-.342,0-.678.009-1.009.03s-.635.045-.916.077-.526.07-.728.111V38.241c.245.036.553.066.927.093s.807.041,1.3.043a10.938,10.938,0,0,0,1.641-.111,5.315,5.315,0,0,0,1.229-.331A2.99,2.99,0,0,0,74.5,37.4a2.8,2.8,0,0,0,.519-.617,2.935,2.935,0,0,0,.433-1.532,2.651,2.651,0,0,0-.27-1.19,2.478,2.478,0,0,0-.721-.868,2.939,2.939,0,0,0-1.05-.5v-.054Zm-2.883-.558V29.305a2.342,2.342,0,0,1,.345-.05c.143-.011.324-.018.539-.018a2.754,2.754,0,0,1,.639.068,1.583,1.583,0,0,1,.535.231,1.127,1.127,0,0,1,.365.424,1.471,1.471,0,0,1,.134.651,1.369,1.369,0,0,1-.218.762,1.458,1.458,0,0,1-.623.517,2.375,2.375,0,0,1-.982.19h-.734Zm0,1.469h.748a3.122,3.122,0,0,1,.759.086,2.089,2.089,0,0,1,.662.283,1.4,1.4,0,0,1,.469.508,1.6,1.6,0,0,1,.177.769,1.717,1.717,0,0,1-.161.762,1.43,1.43,0,0,1-.437.519,1.916,1.916,0,0,1-.642.3,3.021,3.021,0,0,1-.773.1c-.174,0-.329,0-.458-.011a2.68,2.68,0,0,1-.345-.043Zm10.446-5.89a4.353,4.353,0,0,0-1.514.263,4,4,0,0,0-1.238.746,4.574,4.574,0,0,0-.927,1.156,5.821,5.821,0,0,0-.58,1.5,7.439,7.439,0,0,0-.2,1.766,7.614,7.614,0,0,0,.186,1.721,5.739,5.739,0,0,0,.542,1.471,4.309,4.309,0,0,0,.882,1.145,3.745,3.745,0,0,0,1.206.743,4.218,4.218,0,0,0,1.51.265,4.474,4.474,0,0,0,1.791-.349,3.823,3.823,0,0,0,1.408-1.038,4.845,4.845,0,0,0,.92-1.723,8.105,8.105,0,0,0,.329-2.4,7.574,7.574,0,0,0-.17-1.619,5.89,5.89,0,0,0-.512-1.44,4.377,4.377,0,0,0-.859-1.156,3.742,3.742,0,0,0-1.208-.771,4.242,4.242,0,0,0-1.562-.279Zm-.054,1.646a1.727,1.727,0,0,1,.825.2,2,2,0,0,1,.635.551,3.207,3.207,0,0,1,.447.818,5.214,5.214,0,0,1,.265,1.009A7.255,7.255,0,0,1,83.177,33a7.08,7.08,0,0,1-.145,1.48,4.281,4.281,0,0,1-.428,1.2,2.287,2.287,0,0,1-.712.8,1.789,1.789,0,0,1-1.968,0,2.338,2.338,0,0,1-.716-.8,4.171,4.171,0,0,1-.438-1.19,6.715,6.715,0,0,1-.15-1.451,7.08,7.08,0,0,1,.088-1.127,5.2,5.2,0,0,1,.265-1.018,3.276,3.276,0,0,1,.454-.832,2.046,2.046,0,0,1,.646-.56,1.786,1.786,0,0,1,.846-.2ZM62.91,47.4a3.959,3.959,0,0,0-.578-.233,5.335,5.335,0,0,0-.752-.175,6.253,6.253,0,0,0-.914-.068,4.694,4.694,0,0,0-1.517.233,3.294,3.294,0,0,0-1.131.639,2.785,2.785,0,0,0-.712.963,2.988,2.988,0,0,0-.245,1.2,2.526,2.526,0,0,0,.313,1.236,3.313,3.313,0,0,0,.88,1,6.254,6.254,0,0,0,1.365.782,5.7,5.7,0,0,1,.945.5,1.8,1.8,0,0,1,.542.539,1.25,1.25,0,0,1,.172.662,1.2,1.2,0,0,1-.193.682,1.266,1.266,0,0,1-.571.458,2.4,2.4,0,0,1-.936.165,4.507,4.507,0,0,1-.839-.079,4.961,4.961,0,0,1-.78-.209,3.638,3.638,0,0,1-.639-.3l-.395,1.687a3.182,3.182,0,0,0,.655.286,6.37,6.37,0,0,0,.9.213,6.244,6.244,0,0,0,1.018.086,5.294,5.294,0,0,0,1.623-.236,3.435,3.435,0,0,0,1.195-.66,2.792,2.792,0,0,0,.739-1,3.117,3.117,0,0,0,.252-1.263,2.891,2.891,0,0,0-.256-1.245,2.953,2.953,0,0,0-.793-1.016,5.645,5.645,0,0,0-1.372-.827c-.32-.145-.592-.279-.821-.4a3.171,3.171,0,0,1-.555-.372,1.221,1.221,0,0,1-.32-.4,1.181,1.181,0,0,1-.1-.494,1.039,1.039,0,0,1,.163-.56,1.168,1.168,0,0,1,.5-.426,2.01,2.01,0,0,1,.871-.17,4.331,4.331,0,0,1,.782.072,4.114,4.114,0,0,1,.626.175,3.771,3.771,0,0,1,.456.2L62.91,47.4Zm7.454,0a3.959,3.959,0,0,0-.578-.233,5.335,5.335,0,0,0-.752-.175,6.253,6.253,0,0,0-.914-.068,4.694,4.694,0,0,0-1.517.233,3.294,3.294,0,0,0-1.131.639,2.785,2.785,0,0,0-.712.963,2.987,2.987,0,0,0-.245,1.2,2.526,2.526,0,0,0,.313,1.236,3.313,3.313,0,0,0,.88,1,6.255,6.255,0,0,0,1.365.782,5.7,5.7,0,0,1,.945.5,1.8,1.8,0,0,1,.542.539,1.249,1.249,0,0,1,.172.662,1.2,1.2,0,0,1-.193.682,1.266,1.266,0,0,1-.571.458,2.4,2.4,0,0,1-.936.165,4.508,4.508,0,0,1-.839-.079,4.961,4.961,0,0,1-.78-.209,3.638,3.638,0,0,1-.639-.3l-.395,1.687a3.182,3.182,0,0,0,.655.286,6.369,6.369,0,0,0,.9.213,6.244,6.244,0,0,0,1.018.086,5.294,5.294,0,0,0,1.623-.236,3.435,3.435,0,0,0,1.195-.66,2.792,2.792,0,0,0,.739-1,3.118,3.118,0,0,0,.252-1.263,2.891,2.891,0,0,0-.256-1.245,2.953,2.953,0,0,0-.793-1.016,5.645,5.645,0,0,0-1.372-.827c-.32-.145-.592-.279-.821-.4a3.171,3.171,0,0,1-.555-.372,1.221,1.221,0,0,1-.32-.4,1.181,1.181,0,0,1-.1-.494,1.039,1.039,0,0,1,.163-.56,1.168,1.168,0,0,1,.5-.426,2.01,2.01,0,0,1,.871-.17,4.331,4.331,0,0,1,.782.072,4.114,4.114,0,0,1,.626.175,3.772,3.772,0,0,1,.456.2l.422-1.646Zm9.494,4.3H76.43v1.591h1.51v2.557a1.558,1.558,0,0,1-.4.107,4.215,4.215,0,0,1-.635.043,3.115,3.115,0,0,1-1.2-.229,2.63,2.63,0,0,1-.957-.685,3.187,3.187,0,0,1-.632-1.14,5.169,5.169,0,0,1-.229-1.591,4.989,4.989,0,0,1,.249-1.641,3.08,3.08,0,0,1,.691-1.145,2.79,2.79,0,0,1,1.038-.669,3.765,3.765,0,0,1,1.3-.218,6.33,6.33,0,0,1,.823.05,4.285,4.285,0,0,1,.653.136,3.8,3.8,0,0,1,.524.195l.422-1.659a3.5,3.5,0,0,0-.623-.222,6.193,6.193,0,0,0-.83-.154,8.02,8.02,0,0,0-1-.059,6.352,6.352,0,0,0-1.711.224,5.145,5.145,0,0,0-1.474.666,4.613,4.613,0,0,0-1.154,1.1,5,5,0,0,0-.75,1.517,6.583,6.583,0,0,0-.27,1.922,7.113,7.113,0,0,0,.168,1.571,5.563,5.563,0,0,0,.481,1.347,4.2,4.2,0,0,0,.766,1.054,4.134,4.134,0,0,0,1.578.966,6.529,6.529,0,0,0,2.108.313,8.449,8.449,0,0,0,1.163-.084,9.574,9.574,0,0,0,1.034-.2,6.577,6.577,0,0,0,.782-.236V51.693Zm8.188,3.958a3.2,3.2,0,0,1-.483.156,4.89,4.89,0,0,1-.589.1,5.285,5.285,0,0,1-.628.039,3.165,3.165,0,0,1-1.643-.415,2.736,2.736,0,0,1-1.075-1.224,4.724,4.724,0,0,1-.383-1.993,5.118,5.118,0,0,1,.245-1.648,3.188,3.188,0,0,1,.664-1.158,2.739,2.739,0,0,1,.991-.682,3.254,3.254,0,0,1,1.215-.224,4.128,4.128,0,0,1,.954.1,3.936,3.936,0,0,1,.719.236l.394-1.632a2.243,2.243,0,0,0-.442-.174,4.916,4.916,0,0,0-.725-.154,7.079,7.079,0,0,0-1-.066,5.7,5.7,0,0,0-1.6.222,4.819,4.819,0,0,0-1.406.662,4.576,4.576,0,0,0-1.118,1.1,5.141,5.141,0,0,0-.739,1.542,6.928,6.928,0,0,0-.267,1.979,6.7,6.7,0,0,0,.322,2.126,4.663,4.663,0,0,0,.941,1.655,4.142,4.142,0,0,0,1.532,1.072,5.443,5.443,0,0,0,2.088.383,7.726,7.726,0,0,0,.988-.061,5.942,5.942,0,0,0,.789-.147,2.909,2.909,0,0,0,.535-.186l-.286-1.619ZM89.8,57.528h2V53.611a2.741,2.741,0,0,0,.336.043c.125.007.256.011.4.011a5.773,5.773,0,0,0,.836-.061,4.808,4.808,0,0,0,.884-.211,3.861,3.861,0,0,0,.846-.406,2.92,2.92,0,0,0,1.208-1.575,4.038,4.038,0,0,0,.184-1.256,3.353,3.353,0,0,0-.122-.918,3,3,0,0,0-.345-.793,2.667,2.667,0,0,0-.539-.628,3.166,3.166,0,0,0-1.245-.63,6.607,6.607,0,0,0-1.734-.2q-.867,0-1.542.063c-.451.041-.839.091-1.165.154V57.528Zm2-8.9a2.615,2.615,0,0,1,.349-.057,4.8,4.8,0,0,1,.521-.025,2.235,2.235,0,0,1,.968.193,1.4,1.4,0,0,1,.63.571,1.852,1.852,0,0,1,.224.936,1.937,1.937,0,0,1-.236.977,1.583,1.583,0,0,1-.678.635,2.416,2.416,0,0,1-1.072.224c-.147,0-.279,0-.395-.011a2.337,2.337,0,0,1-.313-.043v-3.4Z" transform="translate(-2.778 -18.21)" fill="#fff"/>
      <path id="Path_181896" data-name="Path 181896" d="M61.3,43.55v.929c-2.306.033-6.222-1.146-9.755-1.785.9.036,1.809.105,2.7.181,1.562.136,3.12.31,4.682.467.772.078,1.577.16,2.376.208ZM38.05,42.693h0c-3.533.639-7.449,1.818-9.752,1.785V43.55c.8-.048,1.6-.13,2.372-.208,1.562-.157,3.12-.332,4.685-.467.886-.076,1.791-.145,2.7-.181Z" transform="translate(-20.141 -9.092)" fill="#146da1" fill-rule="evenodd"/>
      <path id="Path_181897" data-name="Path 181897" d="M60.914,31.98c.787.081,1.547.148,2.267.181V49.387c-2.957.042-9.213-1.1-13.656-.892a53.659,53.659,0,0,1,10.738-1.013l.651-.009V31.98ZM41.1,48.494h0c-4.444-.2-10.7.934-13.656.892V32.161c.721-.033,1.48-.1,2.267-.181V47.472l.651.009A53.638,53.638,0,0,1,41.1,48.494Z" transform="translate(-20.657 -15.589)" fill="#1987c6" fill-rule="evenodd"/>
      <path id="Path_181898" data-name="Path 181898" d="M41.253,31.726c-3.346-1.275-7.6-1.411-11.983-1.2V47.752c4.172.06,11.989.329,14.938,2.785,2.948-2.457,10.765-2.725,14.941-2.785V30.526c-4.29-.205-8.45-.081-11.763,1.118A50.211,50.211,0,0,0,49.6,40.273a14.6,14.6,0,0,0-5.092,8.173l-.292,0,.078-5.218a.991.991,0,1,0-.265,0l-.078,5.215-.289,0a14.6,14.6,0,0,0-4.848-8.32,50.387,50.387,0,0,0,2.439-8.387Z" transform="translate(-19.551 -16.52)" fill="#33a1e1" fill-rule="evenodd"/>
      <path id="Path_181899" data-name="Path 181899" d="M55.337,25.616h0a.6.6,0,0,1,.6.6V62.654a.6.6,0,0,1-.6.6h0a.6.6,0,0,1-.6-.6V26.22A.6.6,0,0,1,55.337,25.616Z" transform="translate(-4.108 -19.449)" fill="#fff" fill-rule="evenodd"/>
    </g>
  </g>
</svg>
